<svg width="230" height="230" viewBox="0 0 230 230" fill="none" xmlns="http://www.w3.org/2000/svg">
<path d="M0 115C0 51.4873 51.4873 0 115 0V0C178.513 0 230 51.4873 230 115V115C230 178.513 178.513 230 115 230V230C51.4873 230 0 178.513 0 115V115Z" fill="#F8F6EE"/>
<path d="M49.6931 116.863L93.4262 130.629L81.0352 190.659L29.7168 176.051L49.6931 116.863Z" fill="#C4A358"/>
<path opacity="0.6" d="M49.6931 116.863L93.4262 130.629L81.0352 190.659L29.7168 176.051L49.6931 116.863Z" fill="white"/>
<path d="M29.7124 176.049L15 168.73L43.8432 114.146L46.14 116.679L49.6887 116.861L29.7124 176.049Z" fill="#C4A358"/>
<path opacity="0.4" d="M29.7124 176.049L15 168.73L43.8432 114.146L46.14 116.679L49.6887 116.861L29.7124 176.049Z" fill="white"/>
<path opacity="0.5" d="M24.1922 166.275L15 168.73L43.8432 114.146L46.14 116.679L24.1922 166.275Z" fill="#C4A358"/>
<path d="M29.8167 174.668C29.0182 173.239 28.1458 171.859 27.2685 170.484C26.3912 169.109 25.4744 167.758 24.538 166.423L24.4098 166.235L24.1929 166.28C22.8474 166.541 21.5018 166.802 20.1661 167.122C18.8304 167.443 17.4947 167.743 16.1738 168.108C17.544 167.985 18.9044 167.803 20.2598 167.615C21.6152 167.428 22.9706 167.191 24.3211 166.95L23.9761 166.807C24.8994 168.157 25.8424 169.488 26.8052 170.799C27.7663 172.105 28.7521 173.411 29.8167 174.668Z" fill="#C4A358"/>
<path d="M24.1641 166.75C26.1356 162.634 28.0282 158.489 29.911 154.335C31.7938 150.18 33.6175 146.01 35.4756 141.845C37.3337 137.681 39.1081 133.467 40.8973 129.287L43.544 122.979C44.4016 120.869 45.2839 118.765 46.1168 116.646C45.1311 118.696 44.1798 120.771 43.2088 122.836L40.3699 129.056C38.4871 133.206 36.6585 137.38 34.8053 141.545C32.9521 145.709 31.1728 149.923 29.3836 154.108C27.5945 158.292 25.8497 162.511 24.1641 166.75Z" fill="#C4A358"/>
<path d="M49.2961 120.345L95.0795 123.307L98.0022 196.861L44.668 195.195L49.2961 120.345Z" fill="#455A64"/>
<path d="M44.6675 195.202L28.5898 191.076L42.9622 118.941L45.811 121.204L49.2956 120.351L44.6675 195.202Z" fill="#37474F"/>
<path opacity="0.1" d="M36.885 185.473L28.5898 191.076L42.9621 118.941L45.811 121.204L36.885 185.473Z" fill="black"/>
<path d="M44.406 193.547C43.2773 192.127 42.0846 190.782 40.8967 189.441C39.7089 188.101 38.4767 186.809 37.2396 185.533L37.0671 185.355L36.8699 185.469C35.6328 186.174 34.4055 186.883 33.1832 187.652C31.9609 188.421 30.7484 189.17 29.5605 190.008C30.8568 189.451 32.1284 188.835 33.3951 188.194C34.6618 187.554 35.9137 186.888 37.1607 186.223L36.7911 186.159C38.02 187.457 39.2653 188.723 40.5271 189.959C41.7987 191.176 43.0703 192.403 44.406 193.547Z" fill="#263238"/>
<path d="M36.9648 186.014C37.852 180.637 38.6554 175.25 39.4292 169.853C40.2031 164.456 40.9473 159.054 41.7113 153.657C42.4752 148.261 43.1505 142.839 43.8257 137.423L44.8115 129.295C45.117 126.58 45.4473 123.874 45.7331 121.153C45.2797 123.839 44.8805 126.535 44.4517 129.226L43.2786 137.304C42.4851 142.696 41.7556 148.103 40.9966 153.5C40.2376 158.897 39.582 164.328 38.8821 169.744C38.1823 175.161 37.5464 180.577 36.9648 186.014Z" fill="#263238"/>
<path d="M94.097 58.3161C98.1879 54.3732 109.061 49.6713 119.465 59.3018C134.252 72.9541 128.983 110.347 126.928 116.045C126.928 116.045 101.525 125.138 78.7734 112.314C78.7734 112.314 90.8834 86.9956 88.7641 74.0827C88.2818 71.2187 88.5165 68.2798 89.447 65.5286C90.3776 62.7773 91.9752 60.2994 94.097 58.3161Z" fill="#263238"/>
<path d="M86.594 88.1503C86.5151 88.3573 86.4461 88.5643 86.3673 88.7713C85.3482 91.3999 84.0894 93.9291 82.6066 96.3269C81.248 98.6598 79.5579 100.783 77.5891 102.631C77.5349 102.68 77.4462 102.606 77.5004 102.557C79.5261 100.649 80.9111 98.2194 82.1827 95.7995C83.4294 93.43 84.5321 90.9875 85.485 88.4854C87.4521 83.4059 88.7622 78.0959 89.3837 72.6843C89.3837 72.5808 89.5808 72.5907 89.5759 72.6843C89.5513 73.4433 89.5069 74.1974 89.4478 74.9515C89.4629 74.9453 89.4794 74.9433 89.4956 74.9455C89.5118 74.9476 89.5271 74.954 89.5401 74.964C89.5531 74.974 89.5632 74.9872 89.5695 75.0023C89.5757 75.0174 89.578 75.0338 89.5759 75.0501C89.1225 80.1068 88.5261 85.065 87.0327 89.9295C85.5193 94.7075 83.3532 99.2536 80.5957 103.439C79.0686 105.819 77.3945 108.103 75.5831 110.275C75.5808 110.28 75.5774 110.284 75.5731 110.287C75.5689 110.29 75.5639 110.293 75.5587 110.294C75.5534 110.295 75.548 110.294 75.5429 110.293C75.5377 110.292 75.533 110.289 75.529 110.285C75.525 110.282 75.5219 110.277 75.52 110.272C75.518 110.267 75.5172 110.262 75.5177 110.257C75.5182 110.251 75.5199 110.246 75.5227 110.242C75.5255 110.237 75.5293 110.233 75.5338 110.23C80.6055 103.621 84.1345 96.0311 86.594 88.1503Z" fill="#263238"/>
<path d="M114.816 57.1832C127.902 64.9704 131.86 80.5448 131.948 94.4188C132.017 98.69 131.663 102.957 130.894 107.159C130.894 107.175 130.887 107.19 130.876 107.201C130.865 107.212 130.85 107.218 130.834 107.218C130.819 107.218 130.804 107.212 130.793 107.201C130.781 107.19 130.775 107.175 130.775 107.159C131.622 99.816 131.401 92.3887 130.12 85.1087C128.883 78.2924 126.921 71.2494 122.934 65.3943C120.812 62.1662 118.011 59.4398 114.727 57.405C114.604 57.3064 114.693 57.1093 114.816 57.1832Z" fill="#263238"/>
<path d="M119.009 108.133C139.217 126.447 153.599 142.224 153.412 149.4C152.983 165.472 144.506 168.942 142.998 168.434C127.053 163.013 116.919 132.672 110.216 114.333C103.562 96.1315 113.218 102.889 119.009 108.133Z" fill="#F7A9A0"/>
<path d="M129.69 161.115L155.872 141.578C155.872 141.578 130.647 115.531 117.531 105.826C106.515 97.6694 100.98 103.426 107.881 119.567C114.411 134.841 129.69 161.115 129.69 161.115Z" fill="#C4A358"/>
<path d="M141.36 127.093L138.895 124.717C137.865 125.289 137.284 126.442 137.013 127.778C136.389 129.627 136.193 131.594 136.441 133.53C136.589 134.589 137.042 136.137 138.412 135.881C139.891 135.61 140.537 133.288 140.877 132.11C141.265 130.468 141.428 128.78 141.36 127.093ZM131.532 134.841C130.921 133.574 129.757 132.293 128.377 133.426C126.899 134.654 127.037 137.187 127.337 138.877C127.555 140.259 128.008 141.593 128.678 142.82C128.988 143.514 129.518 144.085 130.186 144.447C132.03 145.22 132.182 142.776 132.325 141.554C132.587 139.321 132.518 136.95 131.532 134.841ZM135.085 121.07L133.183 119.286C132.335 119.399 131.823 120.183 131.547 121.164C131.114 122.497 130.946 123.902 131.054 125.299C131.147 126.142 131.32 127.601 132.266 127.975C133.213 128.35 133.972 127.369 134.302 126.61C134.711 125.708 135.406 122.943 135.085 121.085V121.07ZM120.748 120.548C120.526 118.054 119.037 115.905 117.416 114.086C116.322 112.844 114.35 110.346 112.453 111.74C110.974 112.82 111.605 114.949 112.167 116.334C113.09 118.552 114.629 120.459 116.603 121.829C117.431 122.386 118.678 123.071 119.56 122.751C120.457 122.608 120.851 121.726 120.748 120.548ZM139.304 146.487C138.812 144.841 137.175 142.086 135.904 142.332C134.864 142.544 134.026 144.91 134.918 147.926C135.879 151.189 137.683 152.574 138.526 152.199C140.206 151.475 139.921 148.641 139.304 146.507V146.487Z" fill="#263238"/>
<path d="M148.276 138.819C146.456 139.863 144.7 141.015 143.017 142.269C141.228 143.487 139.498 144.768 137.758 146.04C136.018 147.311 129.291 152.639 127.61 153.975C127.536 154.034 127.649 154.157 127.728 154.103C129.522 152.891 136.6 148.065 138.31 146.814C140.021 145.562 141.721 144.315 143.377 143.009C145.033 141.703 146.852 140.426 148.34 138.923C148.37 138.869 148.326 138.78 148.276 138.819Z" fill="#263238"/>
<path opacity="0.1" d="M144.817 149.823L129.69 161.11C129.69 161.11 114.411 134.84 107.88 119.561C103.4 109.083 104.164 102.987 108.26 102.223C114.815 110.685 132.15 133.1 144.817 149.823Z" fill="black"/>
<path d="M110.654 103.09C114.368 105.733 117.199 109.435 118.777 113.711C121.379 120.818 135.116 154.362 137.462 161.681C139.808 169 158.109 204.629 158.109 204.629C158.109 204.629 148.059 215.442 145.126 217.66C141.05 220.755 126.288 225.679 126.288 225.679C126.288 225.679 120.108 172.485 118.945 167.083C117.781 161.681 110.654 103.09 110.654 103.09Z" fill="#C4A358"/>
<path d="M143.585 185.604C142.866 187.856 141.264 189.675 139.494 191.173C138.538 191.987 136.724 193.702 135.887 191.844C135.637 191.11 135.637 190.315 135.887 189.581C136.242 188.197 136.834 186.885 137.636 185.703C138.587 184.224 140.239 182.253 142.205 182.351C144.029 182.484 144.004 184.249 143.585 185.604Z" fill="#263238"/>
<path d="M132.513 196.214C132.454 198.678 132.07 201.34 130.497 203.355C129.768 204.297 128.856 204.676 128.068 204.164C127.185 203.789 126.732 202.414 126.51 201.418C125.987 199.027 126.166 196.534 127.028 194.242C127.57 192.813 128.585 190.792 130.438 191.009C132.824 191.29 132.558 194.528 132.513 196.214Z" fill="#263238"/>
<path d="M141.618 194.263C142.737 194.958 142.047 198.157 141.263 199.724C140.277 201.73 138.478 204.066 136.709 203.45C135.812 203.135 135.432 200.853 136.985 197.748C138.434 194.874 140.706 193.691 141.618 194.263Z" fill="#263238"/>
<path d="M148.685 210.692C148.375 211.525 147.66 213.013 146.63 213.156C145.6 213.299 145.334 212.294 145.26 211.54C145.163 210.354 145.256 209.162 145.536 208.006C145.841 206.443 146.59 205.049 148.035 204.792C150.888 204.329 149.094 209.617 148.685 210.692Z" fill="#263238"/>
<path d="M147.703 229.991H101.323C99.3075 222.075 96.2024 209.892 93.5014 199.276C93.3388 198.625 93.1712 197.974 93.0086 197.344C92.9051 196.944 92.8114 196.555 92.7128 196.171C90.1104 185.968 88.0601 177.9 88.0108 177.713L87.9368 177.442C87.9122 177.343 87.9023 177.289 87.9023 177.289H132.68L147.703 229.991Z" fill="#37474F"/>
<path d="M131.216 177.254C131.216 177.283 131.216 177.338 131.216 177.407C131.216 177.934 131.216 178.461 131.216 178.989C131.216 180.329 131.137 181.67 131.048 183.011C130.695 188.253 130.01 193.468 128.998 198.624C127.688 205.424 125.953 212.135 123.803 218.718C123.611 219.29 123.498 219.61 123.488 219.645L119.914 221.409L119.623 221.557L112.536 225.086C111.55 225.579 110.826 225.939 110.624 226.047L110.569 226.077C110.569 226.077 110.49 227.669 110.392 229.995H62.0209C63.0066 221.794 63.12 220.709 63.12 220.709C62.8341 219.127 61.5674 215.051 62.0209 210.31C63.0066 199.896 69.4141 178.984 69.9858 177.737C70.1189 177.431 70.2027 177.274 70.2027 177.274H82.4359H111.417H131.216V177.254Z" fill="#37474F"/>
<path d="M110.621 225.939V226.047C110.621 227.363 110.587 228.684 110.567 229.99H110.074C110.183 228.669 110.271 227.343 110.429 226.023C110.429 225.904 110.429 225.786 110.464 225.668C110.464 225.648 110.471 225.629 110.485 225.615C110.499 225.602 110.518 225.594 110.538 225.594C110.557 225.594 110.576 225.602 110.59 225.615C110.604 225.629 110.611 225.648 110.611 225.668C110.616 225.766 110.621 225.855 110.621 225.939Z" fill="#263238"/>
<path d="M104.822 228.482C106.878 227.057 109.096 225.86 111.274 224.627C113.453 223.395 115.759 222.163 118.076 221.084C122.605 218.979 127.381 217.456 132.143 215.978C132.171 215.967 132.202 215.967 132.23 215.979C132.257 215.991 132.279 216.014 132.29 216.042C132.302 216.07 132.301 216.101 132.289 216.129C132.277 216.157 132.254 216.179 132.226 216.19C127.643 218.161 123.192 220.418 118.633 222.439C116.336 223.459 114.024 224.411 111.732 225.446C109.441 226.481 107.198 227.604 104.881 228.57C104.808 228.59 104.763 228.516 104.822 228.482Z" fill="#263238"/>
<path d="M117.366 206.027C117.425 203.774 117.583 201.527 117.691 199.28C117.957 193.976 118.184 188.639 118.677 183.35C118.684 183.311 118.704 183.276 118.734 183.251C118.764 183.225 118.803 183.211 118.842 183.211C118.882 183.211 118.92 183.225 118.95 183.251C118.98 183.276 119 183.311 119.007 183.35C119.076 187.456 118.918 191.571 118.835 195.672C118.79 197.727 118.731 199.777 118.677 201.833C118.563 203.792 118.55 205.756 118.638 207.717C118.746 209.196 119.071 212.074 121.003 212.252C122.822 212.419 123.818 210.458 124.271 209.014C125.424 205.361 125.834 201.419 126.208 197.619C126.43 195.366 126.652 193.124 126.785 190.866C126.918 188.609 127.1 185.228 126.977 182.951C126.977 182.808 127.179 182.813 127.204 182.951C127.564 184.923 127.578 188.865 127.529 191.197C127.085 212.128 123.783 213.321 122.038 213.661C121.824 213.703 121.606 213.726 121.388 213.73C121.388 214.223 121.304 214.686 121.269 215.155C121.22 215.899 121.127 216.633 121.028 217.377C120.921 218.102 120.769 218.82 120.575 219.526C120.417 220.243 120.162 220.935 119.815 221.581C119.802 221.602 119.782 221.617 119.759 221.625C119.736 221.633 119.711 221.633 119.688 221.626C119.665 221.619 119.645 221.604 119.631 221.585C119.616 221.565 119.608 221.542 119.608 221.517C119.591 220.807 119.651 220.096 119.786 219.398C119.884 218.679 119.983 217.92 120.131 217.234C120.279 216.549 120.407 215.825 120.555 215.125C120.648 214.632 120.717 214.169 120.806 213.691C120.242 213.593 119.71 213.356 119.26 213.002C118.81 212.647 118.456 212.186 118.228 211.66C117.386 209.945 117.322 207.905 117.366 206.027Z" fill="#263238"/>
<path d="M75.0745 202.051C77.9973 202.258 80.8806 202.633 83.8132 202.288C86.5733 202.005 89.2033 200.972 91.4183 199.301C96.2387 195.565 98.3531 189.444 99.6543 183.712C99.6582 183.684 99.6729 183.66 99.6951 183.643C99.7173 183.626 99.7451 183.619 99.7726 183.623C99.8 183.627 99.8248 183.642 99.8415 183.664C99.8581 183.686 99.8652 183.714 99.8613 183.741C99.3142 188.719 98.2447 193.865 95.0311 197.867C93.6489 199.63 91.8998 201.071 89.9052 202.091C87.7868 203.075 85.4681 203.553 83.1331 203.485C80.3953 203.462 77.6713 203.094 75.0252 202.391C74.9833 202.381 74.9466 202.356 74.9224 202.32C74.8982 202.285 74.8882 202.241 74.8944 202.199C74.9005 202.156 74.9225 202.117 74.9558 202.09C74.9891 202.063 75.0315 202.049 75.0745 202.051Z" fill="#263238"/>
<path d="M138.872 200.882C138.059 200.788 137.261 200.882 136.433 200.261C135.605 199.64 134.905 198.58 134.259 196.81C132.854 192.932 132.164 187.136 131.706 181.768C131.706 181.65 131.642 181.65 131.647 181.768C131.883 186.372 132.268 191.177 133.229 195.145C133.553 196.647 134.049 198.108 134.708 199.497C135.309 200.65 135.979 201.202 136.625 201.419C136.994 201.539 137.383 201.582 137.769 201.543C138.155 201.505 138.529 201.387 138.867 201.197C138.946 201.177 138.931 200.882 138.872 200.882Z" fill="#263238"/>
<path d="M74.5777 178.703C73.0054 187.304 71.1276 196.027 69.4271 204.603C68.9885 207.171 68.2245 209.704 68.3773 212.311C68.5995 214.945 69.0146 217.56 69.6194 220.133C69.3433 221.789 69.0772 223.445 68.7765 225.096C68.4759 226.747 68.2097 228.369 67.8943 230C68.0471 228.344 68.2344 226.698 68.3872 225.047C68.54 223.396 68.7568 221.745 68.949 220.118C68.2223 217.594 67.7274 215.009 67.4704 212.395C67.3833 211.487 67.4048 210.572 67.5345 209.67C68.0569 206.151 68.7913 202.715 69.506 199.265C70.9846 192.365 72.6604 185.524 74.5284 178.728L74.5777 178.703Z" fill="#263238"/>
<path d="M64.9084 195.407C65.1056 195.649 136.765 195.565 137.618 194.683C137.766 194.53 141.817 186.674 141.674 183.805C141.452 179.301 138.096 173.909 138.273 170.828C138.574 165.673 118.43 114.953 115.399 107.52C112.368 100.088 98.641 98.4616 91.5978 104.332C81.3065 112.907 65.4013 177.556 64.036 181.789C62.3948 186.861 64.7211 195.181 64.9084 195.407Z" fill="#EBEBEB"/>
<path d="M106.829 175.355C106.602 174.631 119.811 172.058 121.241 171.846C122.67 171.634 135.268 171.733 135.401 171.989C135.534 172.245 123.833 172.846 122.887 172.827C121.941 172.807 106.937 175.71 106.829 175.355Z" fill="#C7C7C7"/>
<path d="M120.433 174.454C119.846 174.089 127.944 174.099 127.92 174.37C127.895 174.641 121.34 175.016 120.433 174.454Z" fill="#C7C7C7"/>
<path d="M96.5824 101.032C96.5824 101.032 96.8732 154.118 96.267 158.776C95.6607 163.433 85.0935 227.328 85.0935 227.328C85.0935 227.328 62.4211 222.729 59.3455 220.546C56.27 218.363 50.8828 205.76 50.8828 205.76C50.8828 205.76 64.3334 173.231 65.5558 169.826C67.3006 164.996 83.5803 114.364 87.7353 107.528C89.7333 104.3 92.9043 101.972 96.5824 101.032Z" fill="#C4A358"/>
<path d="M73.7208 181.549C72.5033 182.042 71.8478 183.289 71.5521 184.748C70.928 186.597 70.7325 188.564 70.9803 190.5C71.1282 191.554 71.5817 193.102 72.9519 192.846C74.4305 192.574 75.0762 190.258 75.4162 189.08C75.7563 187.902 76.8998 180.218 73.7208 181.549ZM66.0664 191.83C65.4552 190.564 64.292 189.282 62.9119 190.416C61.4333 191.643 61.5713 194.171 61.872 195.867C62.0882 197.249 62.5417 198.582 63.2126 199.81C63.5236 200.504 64.0533 201.077 64.7208 201.441C66.5642 202.21 66.717 199.765 66.8599 198.548C67.1211 196.291 67.0521 193.92 66.0664 191.83ZM68.1857 176.28C67.0521 176.128 66.4064 177 66.0811 178.153C65.6477 179.486 65.4803 180.891 65.5883 182.288C65.6819 183.131 65.8544 184.585 66.8007 184.965C67.7471 185.344 68.5012 184.354 68.8363 183.599C69.4721 182.21 70.6994 176.611 68.1956 176.28H68.1857ZM68.5357 213.294C68.3139 210.796 66.8303 208.647 65.2088 206.828C64.1146 205.591 62.1381 203.087 60.2455 204.487C58.7668 205.566 59.3977 207.695 59.9596 209.075C60.8792 211.296 62.4193 213.204 64.3955 214.571C65.2235 215.133 66.4656 215.813 67.3528 215.492C68.2449 215.33 68.6441 214.448 68.5357 213.294ZM73.8341 203.477C73.3412 201.835 71.7049 199.08 70.4382 199.327C69.3982 199.534 68.5603 201.899 69.4524 204.921C70.4135 208.183 72.2175 209.568 73.0603 209.194C74.741 208.45 74.4551 205.591 73.8341 203.477ZM84.2289 204.038C83.3565 205.172 83.736 206.685 84.5838 208.011C85.1561 209.025 85.8865 209.942 86.7475 210.727C87.0299 210.99 87.3663 211.188 87.7333 211.308L88.3937 207.316C87.6938 205.729 85.7617 202.047 84.2289 204.038ZM95.7474 111.558C95.018 110.755 93.8055 111.607 93.1796 112.095C91.4791 113.441 89.9068 115.575 89.4879 117.817C88.9359 119.183 88.8127 120.528 90.0892 120.809C91.144 121.041 92.4107 119.602 93.0465 118.951C94.1509 117.837 95.0178 116.511 95.5947 115.052C95.915 114.17 96.4917 112.376 95.7474 111.558ZM93.1303 137.97C92.4057 138.739 91.4841 140.075 92.5487 140.982C93.6133 141.889 95.4222 141.189 96.6346 140.706C96.6346 138.976 96.6346 137.182 96.6346 135.363C95.3291 136.03 94.1446 136.912 93.1303 137.97ZM88.1226 131.642C86.23 131.258 84.357 132.963 83.2284 134.269C82.2912 135.307 81.5408 136.499 81.0104 137.793C80.6625 138.47 80.5481 139.243 80.6851 139.991C81.247 141.908 83.2382 140.484 84.2782 139.829C86.2004 138.616 87.9994 137.069 89.0098 134.989C89.6062 133.712 89.8822 132.007 88.1226 131.642ZM96.1368 128.626C95.5404 129.232 94.5103 130.287 94.8208 131.253C95.0624 132.051 95.9249 132.169 96.6593 132.076C96.6593 130.77 96.6593 129.459 96.6593 128.133C96.4523 128.33 96.2896 128.488 96.1368 128.626ZM76.0225 138.626C74.5685 142.894 73.1244 147.157 71.8133 151.1C72.4491 151.342 73.1983 151.056 73.8735 150.4C75.6824 148.656 76.4119 146.147 76.8308 143.747C77.0674 142.263 77.6687 139.533 76.0225 138.626ZM85.9293 143.106C85.1111 142.426 82.7503 143.259 80.9611 145.856C79.029 148.651 79.0882 150.923 79.9113 151.347C81.5427 152.185 83.5882 150.164 84.8401 148.355C85.816 146.945 86.9249 143.934 85.9392 143.106H85.9293ZM90.937 156.788C89.5076 156.822 88.5859 158.084 88.0733 159.558C87.6466 160.643 87.3938 161.789 87.3242 162.954C87.2946 163.698 87.472 164.723 88.4381 164.708C89.4041 164.693 90.3504 163.338 90.7694 162.574C91.3066 161.588 93.7759 156.714 90.937 156.788Z" fill="#263238"/>
<path d="M81.2423 113.234C62.6707 133.214 49.6982 150.169 50.5065 157.3C52.3153 173.279 61.059 176.029 62.5179 175.369C77.94 168.612 88.7143 135.265 93.8206 116.423C98.8873 97.7136 86.5605 107.512 81.2423 113.234Z" fill="#F7A9A0"/>
<path d="M49.5547 145.194L77.2002 162.592C77.2002 162.592 91.9126 130.758 94.7466 114.06C97.0434 100.545 93.0561 97.6573 80.4778 109.9C68.5699 121.467 49.5547 145.194 49.5547 145.194Z" fill="#C4A358"/>
<path d="M61.3355 130.934C59.8568 132.659 58.4719 134.315 57.1953 135.863C57.4034 136.563 57.6964 137.235 58.0677 137.864C58.3692 138.554 58.8885 139.127 59.5463 139.495C61.3897 140.264 61.5425 137.824 61.6854 136.602C61.9711 134.709 61.8518 132.777 61.3355 130.934ZM69.3546 121.683C68.6974 122.432 68.0403 123.186 67.3831 123.945C66.7424 124.675 66.1016 125.424 65.4707 126.134L65.4067 126.208C65.5052 127.065 65.7221 128.332 66.5896 128.672C67.5408 129.066 68.2949 128.066 68.6251 127.307C69.0244 126.38 69.7144 123.541 69.3546 121.683ZM75.2691 138.44C73.5096 137.947 72.2379 139.791 71.5134 141.092C70.3583 143.199 69.8347 145.595 70.0052 147.992C70.0841 148.978 70.3305 150.382 71.1339 150.87C71.8338 151.476 72.7653 151.235 73.5983 150.427C75.4022 148.687 76.1465 146.183 76.5555 143.783C76.8365 142.132 77.5413 139.027 75.2691 138.426V138.44ZM92.9339 112.112C91.2334 113.457 89.6612 115.591 89.2422 117.834C88.6902 119.199 88.567 120.545 89.8435 120.825C90.8983 121.057 92.165 119.618 92.8008 118.967C93.2579 118.496 93.6781 117.99 94.0576 117.454C94.3336 116.262 94.5505 115.123 94.7477 114.049C94.9087 113.083 95.0401 112.172 95.142 111.318C94.4125 111.008 93.4613 111.673 92.9339 112.097V112.112ZM87.8917 131.644C85.9991 131.259 84.1262 132.965 82.9975 134.271C82.0603 135.309 81.3099 136.501 80.7795 137.795C80.4316 138.471 80.3172 139.244 80.4542 139.993C81.0161 141.91 83.0073 140.486 84.0473 139.83C85.7241 138.841 87.1628 137.495 88.2614 135.887C88.5916 135.005 88.912 134.118 89.2472 133.231C89.2694 132.843 89.1409 132.461 88.8883 132.165C88.6357 131.869 88.2787 131.683 87.8917 131.644ZM80.7302 145.858C78.7981 148.652 78.8573 150.924 79.6804 151.348C80.5035 151.772 81.4695 151.452 82.3666 150.782C83.3523 148.396 84.4465 145.764 85.5407 143.004C84.5944 142.531 82.4011 143.413 80.7154 145.858H80.7302Z" fill="#263238"/>
<path d="M77.047 154.501C75.4231 153.174 73.7213 151.947 71.9507 150.824C70.1714 149.597 68.3576 148.443 66.529 147.275C64.7004 146.107 57.3319 141.745 55.4738 140.661C55.39 140.612 55.316 140.765 55.3949 140.819C57.1742 142.051 64.2223 146.935 66.0066 148.069C67.7908 149.202 69.5651 150.356 71.374 151.43C73.1829 152.504 75.041 153.742 76.978 154.589C77.0174 154.604 77.0766 154.56 77.047 154.501Z" fill="#263238"/>
<path d="M74.1504 160.566C75.3481 161.231 76.5261 161.916 77.709 162.601L77.4576 162.685C80.9077 152.936 84.6585 143.306 88.4636 133.695C89.7253 130.491 91.0315 127.288 92.2686 124.084C89.4592 134.045 85.6394 143.685 81.8048 153.286C80.4789 156.544 79.1235 159.787 77.6892 163C76.5063 162.197 75.3185 161.394 74.1504 160.566Z" fill="#263238"/>
<path d="M92.6364 126.592C92.1809 128.61 91.0931 130.43 89.5312 131.787C90.5712 130.066 91.5373 128.277 92.6364 126.592Z" fill="#263238"/>
<path d="M141.772 167.178C138.091 160.209 135.666 144.645 144.335 114.625C145.538 110.47 176.062 116.931 175.012 121.431C173.681 127.104 167.308 148.824 166.633 150.352C161.014 163.255 144.271 171.905 141.772 167.178Z" fill="#F7A9A0"/>
<path d="M139.314 161.451C138.551 159.191 138.025 156.857 137.747 154.487C137.609 153.304 137.49 152.116 137.441 150.924C137.393 149.724 137.42 148.522 137.52 147.326C137.692 144.95 137.983 142.585 138.392 140.238C138.782 137.892 139.323 135.574 140.014 133.299C139.6 135.635 139.299 137.981 139.028 140.327C138.757 142.673 138.535 145.029 138.373 147.38C138.309 148.553 138.249 149.731 138.294 150.889C138.338 152.047 138.392 153.24 138.486 154.413C138.664 156.739 138.9 159.085 139.314 161.451Z" fill="#263238"/>
<path d="M158.2 129.413C154.513 129.453 144.271 118.418 144.33 114.628C144.493 104.302 152.832 93.479 153.656 86.0811C154.36 79.8662 154.691 70.561 158.047 70.8025C162.941 71.1573 163.937 82.9761 164.095 89.7924C167.284 87.8998 170.201 86.5691 172.193 86.4163C178.787 85.9234 184.781 115.076 179.862 119.67C175.135 124.1 161.882 129.354 158.2 129.413Z" fill="#F7A9A0"/>
<path d="M188.278 127.348C183.842 111.083 176.133 85.0407 174.019 82.9608C172.274 85.2773 167.942 110.827 165.566 126.761L164.58 126.613C164.58 126.505 166.226 115.603 168.119 104.75C172.003 82.5074 173.191 82.118 173.762 81.9307C173.86 81.8993 173.963 81.8887 174.065 81.8998C174.167 81.9108 174.265 81.9432 174.354 81.9948C177.188 83.5178 187.233 119.827 189.219 127.092L188.278 127.348Z" fill="#263238"/>
<path d="M161.638 126.312L160.682 126.08C160.706 125.976 163.314 115.198 166.177 104.463C172.038 82.4963 173.206 82.1119 173.768 81.9295C173.868 81.8979 173.974 81.8882 174.079 81.9009C174.183 81.9137 174.284 81.9486 174.374 82.0034C177.06 83.5707 184.286 118.909 185.71 125.976L184.724 126.174C181.545 110.358 175.887 85.0197 173.97 82.9497C172.151 84.9507 165.477 110.427 161.638 126.312Z" fill="#263238"/>
<path d="M153.497 119.85L203.953 119.663L211.321 205.031L152.881 207.979L153.497 119.85Z" fill="#C4A358"/>
<path d="M152.891 207.978L135.068 204.627L146.493 118.78L149.751 121.171L153.507 119.85L152.891 207.978Z" fill="#C4A358"/>
<path opacity="0.2" d="M152.891 207.978L135.068 204.627L146.493 118.78L149.751 121.171L153.507 119.85L152.891 207.978Z" fill="black"/>
<path opacity="0.1" d="M143.807 197.298L135.068 204.627L146.493 118.78L149.751 121.171L143.807 197.298Z" fill="black"/>
<g opacity="0.1">
<path d="M152.539 206.059C151.218 204.497 149.838 203.033 148.458 201.57C147.078 200.106 145.659 198.706 144.224 197.326L144.027 197.134L143.82 197.287C142.504 198.228 141.193 199.169 139.912 200.185C138.63 201.2 137.339 202.186 136.092 203.275C137.477 202.501 138.832 201.663 140.178 200.811C141.523 199.958 142.854 199.051 144.18 198.134L143.771 198.095C145.19 199.501 146.628 200.873 148.084 202.21C149.528 203.516 151.006 204.817 152.539 206.059Z" fill="black"/>
<path d="M143.961 197.919C144.612 191.536 145.168 185.149 145.716 178.751C146.263 172.354 146.736 165.962 147.253 159.564C147.771 153.167 148.185 146.75 148.599 140.343L149.205 130.727C149.378 127.519 149.58 124.32 149.728 121.102C149.392 124.29 149.116 127.509 148.806 130.678L147.973 140.254C147.426 146.661 146.948 153.044 146.435 159.441C145.923 165.838 145.504 172.256 145.09 178.663C144.676 185.07 144.276 191.512 143.961 197.919Z" fill="black"/>
</g>
<path d="M167.484 126.296L166.498 126.178C166.498 126.064 167.844 115.098 169.455 104.235C172.767 81.9039 173.931 81.7609 174.631 81.6772C175.33 81.5934 176.518 81.4406 183.699 103.309C187.184 113.935 190.422 124.729 190.457 124.837L189.511 125.123C184.853 109.568 176.844 84.7083 174.724 82.7368C173.039 85.0138 169.411 110.445 167.484 126.296Z" fill="#263238"/>
<path d="M164.085 125.736L163.1 125.539C163.1 125.43 165.303 114.617 167.752 103.902C172.78 81.9007 173.972 81.7577 174.613 81.6789C175.387 81.5852 176.55 81.4472 181.307 103.113C183.613 113.616 185.659 124.306 185.678 124.4L184.693 124.582C181.78 109.304 176.56 84.8578 174.687 82.7385C172.849 84.9268 167.24 110.048 164.085 125.736Z" fill="#263238"/>
<path d="M156.805 121.523L198.62 121.538L214.999 187.611L163.577 190.135L156.805 121.523Z" fill="#455A64"/>
<path d="M156.806 121.523L151.838 124.569L147.107 123.717L147.082 195.674L163.579 190.135L156.806 121.523Z" fill="#37474F"/>
<path opacity="0.1" d="M151.838 124.567L147.107 123.715L147.082 195.672L155.032 184.963L151.838 124.567Z" fill="black"/>
<path d="M215.001 187.611L163.579 190.135L147.082 195.675L197.617 193.092L215.001 187.611Z" fill="#263238"/>
<path d="M162.97 189.709C161.846 188.964 156.163 185.086 154.985 184.47L154.822 184.386L154.694 184.509C153.886 185.298 148.75 192.981 148.006 193.873C148.888 193.178 154.231 185.761 155.049 185.002L154.758 185.046C155.921 185.638 161.742 189.206 162.97 189.709Z" fill="#263238"/>
<path d="M154.687 184.896C154.599 179.874 154.426 174.857 154.244 169.839C154.061 164.822 153.815 159.805 153.603 154.787C153.391 149.77 153.11 144.758 152.795 139.74L152.326 132.224C152.144 129.715 151.986 127.212 151.779 124.708C151.819 127.217 151.903 129.73 151.962 132.239L152.223 139.765C152.405 144.782 152.647 149.8 152.864 154.817C153.08 159.834 153.356 164.847 153.677 169.859C153.997 174.871 154.288 179.889 154.687 184.896Z" fill="#263238"/>
<path d="M162.187 89.2282C161.246 92.5352 165.682 91.7467 165.682 91.7467C165.682 91.7467 159.57 94.418 159.925 98.2031C160.275 101.85 165.598 100.707 165.982 100.633C165.657 100.776 160.107 103.378 160.852 107.144C161.63 111.062 166.766 108.997 167.111 108.859C166.85 109.09 163.449 112.215 164.647 114.946C166.742 119.643 175.663 111.9 179.798 112.368C179.798 112.368 179.798 119.465 179.847 119.672C179.847 119.672 188.487 112.481 188.808 106.858C188.867 106.042 188.646 105.23 188.181 104.556C187.716 103.883 187.034 103.389 186.25 103.156C186.25 103.156 189.291 101.146 188.798 98.1588C188.542 96.6309 185.841 95.6945 185.841 95.6945C185.841 95.6945 188.211 93.9843 187.605 91.3573C187.112 89.2577 184.52 88.6318 184.52 88.6318C184.52 88.6318 186.028 85.9309 184.845 83.9496C182.528 79.9328 164.198 82.1458 162.187 89.2282Z" fill="#F7A9A0"/>
<path d="M184.157 88.4677C184.17 88.4677 184.183 88.4625 184.192 88.4532C184.201 88.444 184.206 88.4315 184.206 88.4184C184.206 88.4053 184.201 88.3928 184.192 88.3835C184.183 88.3743 184.17 88.3691 184.157 88.3691C177.957 87.6298 170.918 88.7141 165.428 91.7649C165.245 91.8684 165.329 92.2036 165.551 92.1296C171.82 90.0646 177.538 88.7289 184.157 88.4677Z" fill="#263238"/>
<path d="M185.972 95.648C186.041 95.648 186.041 95.5297 185.972 95.5199C179.565 94.7904 171.679 96.2296 165.764 100.493C165.562 100.641 165.528 100.986 165.764 100.823C169.909 98.2848 180.004 95.855 185.972 95.648Z" fill="#263238"/>
<path d="M166.783 109.305C172.614 105.432 179.105 103.82 186.006 103.12C186.094 103.12 186.07 102.987 186.006 102.972C182.555 102.396 178.189 103.302 174.867 104.288C171.763 105.15 168.939 106.808 166.675 109.098C166.562 109.212 166.66 109.384 166.783 109.305Z" fill="#263238"/>
<path d="M165.581 91.6963C165.365 91.8146 165.779 91.9969 165.581 92.1251C164.689 92.6623 159.593 96.344 160.313 98.4682C160.889 100.169 163.575 100.573 164.67 100.321L167.415 99.6954L165.054 101.243C163.996 101.917 163.057 102.762 162.274 103.742C161.525 104.728 161.027 105.866 161.244 106.955C161.312 107.491 161.56 107.987 161.948 108.361C162.336 108.736 162.841 108.967 163.378 109.015C164.585 109.098 165.793 108.871 166.888 108.355L169.958 107.039L167.494 109.277C166.809 109.9 166.206 110.607 165.7 111.381C165.187 112.103 164.901 112.961 164.877 113.845C164.882 114.241 164.997 114.627 165.209 114.961C165.422 115.294 165.723 115.562 166.079 115.733C166.931 115.998 167.841 116.014 168.701 115.777C170.56 115.393 172.359 114.604 174.182 113.91C175.094 113.555 176.011 113.195 176.942 112.884C177.859 112.516 178.844 112.348 179.831 112.392C178.859 112.458 177.91 112.712 177.036 113.141C176.139 113.52 175.262 113.944 174.379 114.368C172.621 115.274 170.781 116.012 168.884 116.571C167.859 116.892 166.763 116.908 165.729 116.615C165.185 116.394 164.718 116.018 164.384 115.535C164.051 115.052 163.866 114.482 163.851 113.895C163.854 112.805 164.181 111.741 164.793 110.839C165.344 109.966 166.007 109.17 166.764 108.468L167.376 109.39C166.091 110.02 164.663 110.302 163.235 110.208C162.444 110.131 161.704 109.782 161.141 109.222C160.613 108.652 160.27 107.936 160.155 107.167C159.889 105.62 160.603 104.166 161.461 103.101C162.337 102.037 163.383 101.124 164.556 100.4L164.941 101.317C163.541 101.588 160.505 101.465 159.263 98.9364C158.114 95.4075 164.389 92.1941 165.581 91.6963Z" fill="#263238"/>
<path d="M165.672 91.7472C164.964 91.7334 164.263 91.612 163.592 91.3874C163.32 91.3034 163.075 91.148 162.884 90.9373C162.692 90.7267 162.561 90.4685 162.503 90.1897C162.459 89.5641 162.598 88.9393 162.902 88.3908C163.208 87.7698 163.562 87.129 163.952 86.4834C163.287 86.8701 162.711 87.3923 162.261 88.0162C161.994 88.3428 161.794 88.7192 161.673 89.1236C161.552 89.528 161.512 89.9523 161.556 90.3721C161.651 90.8297 161.883 91.2475 162.222 91.5697C162.555 91.8571 162.961 92.0465 163.395 92.1168C164.174 92.2386 164.972 92.1091 165.672 91.7472Z" fill="#263238"/>
<path d="M112.535 116.438C107.853 117.423 100.08 110.07 97.0931 104.224C96.891 103.82 97.6155 99.6803 98.2563 94.6039C98.6358 91.5235 98.9857 88.0833 99.0745 84.9192C99.0745 84.2686 118.79 90.3061 118.79 90.3061C118.79 90.3061 116.621 96.8858 116.478 102.396C116.472 102.832 116.505 103.267 116.577 103.697C116.591 103.767 116.599 103.838 116.601 103.909C116.971 106.388 117.05 115.501 112.535 116.438Z" fill="#F7A9A0"/>
<path d="M100.285 85.0576C101.049 90.4298 104.006 103.441 114.579 103.983C115.256 104.025 115.935 104.009 116.609 103.934C116.62 103.862 116.62 103.789 116.609 103.717C116.541 103.287 116.506 102.852 116.506 102.416C116.634 96.8961 118.778 90.3214 118.778 90.3214C118.778 90.3214 104.568 85.9497 100.285 85.0576Z" fill="#263238"/>
<path d="M96.5691 62.8211C94.4398 69.864 98.2005 90.1748 103.213 94.6943C110.483 101.249 122.361 101.851 127.926 93.1172C133.313 84.6548 127.926 58.267 122.347 54.1812C114.101 48.0993 99.7185 52.4217 96.5691 62.8211Z" fill="#F7A9A0"/>
<path d="M96.5691 62.8211C94.4398 69.864 98.2005 90.1748 103.213 94.6943C110.483 101.249 122.361 101.851 127.926 93.1172C133.313 84.6548 127.926 58.267 122.347 54.1812C114.101 48.0993 99.7185 52.4217 96.5691 62.8211Z" fill="#F7A9A0"/>
<path d="M113.55 75.7949C113.55 75.7456 113.452 75.8787 113.462 75.9329C113.693 77.308 113.728 78.9197 112.54 79.5456C112.505 79.5456 112.54 79.6343 112.565 79.6195C114.058 79.2006 114.014 77.0616 113.55 75.7949Z" fill="#263238"/>
<path d="M112.133 74.5205C109.891 74.6536 110.324 79.1287 112.399 79.0055C114.474 78.8823 114.021 74.4121 112.133 74.5205Z" fill="#263238"/>
<path d="M121.904 74.9069C121.904 74.8527 122.017 74.966 122.017 75.0203C122.052 76.4151 122.323 78.0021 123.609 78.3914C123.649 78.3914 123.649 78.4752 123.609 78.4703C122.057 78.3421 121.712 76.2278 121.904 74.9069Z" fill="#263238"/>
<path d="M123.07 73.3822C125.293 73.0865 125.717 77.5616 123.656 77.8179C121.596 78.0742 121.202 73.6286 123.07 73.3822Z" fill="#263238"/>
<path d="M110.124 70.9007C110.727 70.769 111.323 70.6045 111.908 70.4079C112.593 70.2206 113.155 70.1417 113.638 69.5848C113.757 69.4119 113.815 69.2049 113.804 68.9957C113.794 68.7864 113.714 68.5865 113.579 68.4266C112.953 67.776 112.061 67.8006 111.228 67.9929C110.385 68.159 109.635 68.6335 109.123 69.3236C108.571 70.0481 109.306 71.0387 110.124 70.9007Z" fill="#263238"/>
<path d="M125.115 69.9931C124.5 69.9547 123.888 69.8839 123.281 69.7811C122.581 69.6924 122.009 69.6974 121.452 69.2094C121.311 69.0554 121.224 68.8589 121.205 68.6503C121.186 68.4418 121.237 68.233 121.349 68.0561C121.871 67.3267 122.759 67.2183 123.606 67.2922C124.465 67.335 125.277 67.6971 125.883 68.3075C126.015 68.4538 126.101 68.6353 126.131 68.8298C126.16 69.0243 126.133 69.2232 126.051 69.4022C125.97 69.5812 125.837 69.7324 125.671 69.8374C125.505 69.9424 125.311 69.9965 125.115 69.9931Z" fill="#263238"/>
<path d="M113.945 88.2768C114.305 88.5725 114.68 88.9915 115.182 88.9865C115.705 88.93 116.209 88.7619 116.661 88.4937C116.705 88.4937 116.755 88.4937 116.73 88.5578C116.559 88.8587 116.307 89.1061 116.003 89.2723C115.7 89.4385 115.356 89.517 115.01 89.4991C114.721 89.4521 114.452 89.3201 114.238 89.1201C114.024 88.92 113.874 88.6608 113.807 88.3754C113.787 88.2768 113.891 88.2374 113.945 88.2768Z" fill="#263238"/>
<path d="M115.01 83.9973C115.412 84.5129 115.917 84.9401 116.492 85.2522C117.067 85.5642 117.7 85.7545 118.351 85.811C118.921 85.866 119.495 85.8395 120.057 85.7321C120.165 85.7213 120.273 85.6998 120.377 85.6681L120.678 85.5941C120.75 85.5727 120.813 85.5284 120.857 85.4679C120.902 85.4074 120.925 85.3341 120.924 85.259C120.929 85.2115 120.929 85.1636 120.924 85.1161V84.9929C120.855 83.9233 120.604 82.3117 120.604 82.3117C121.013 82.4694 123.068 83.1841 122.999 82.6321C122.304 78.0435 121.521 72.9375 119.874 68.5165C119.867 68.4832 119.846 68.4543 119.817 68.4363C119.788 68.4183 119.753 68.4126 119.719 68.4204C119.686 68.4283 119.657 68.449 119.639 68.4781C119.621 68.5073 119.615 68.5423 119.623 68.5757C120.116 73.0114 121.388 77.3338 121.954 81.7843C121.294 81.602 120.219 81.2471 119.662 81.2915C119.515 81.3506 120.205 84.4014 120.195 84.8844C120.199 84.9023 120.199 84.9208 120.195 84.9386C118.425 85.328 117.021 84.9091 115.172 83.8642C115.034 83.7903 114.931 83.8938 115.01 83.9973Z" fill="#263238"/>
<path d="M119.38 85.2493C118.863 86.0647 118.145 86.7334 117.295 87.1912C116.825 87.4248 116.295 87.5058 115.777 87.4228C114.643 87.2355 114.52 86.2202 114.648 85.3331C114.718 84.8615 114.844 84.3999 115.023 83.958C116.3 84.8426 117.827 85.2952 119.38 85.2493Z" fill="#263238"/>
<path d="M117.299 87.1921C116.829 87.4257 116.298 87.5067 115.781 87.4237C114.647 87.2364 114.524 86.2211 114.652 85.334C115.85 85.3488 117.097 86.0486 117.299 87.1921Z" fill="#FF97B8"/>
<path d="M101.037 80.2262C102.082 79.2011 103.132 72.6904 103.132 72.6904C103.132 72.6904 115.089 67.3231 116.001 56.2288C116.001 56.2288 122.147 62.4635 127.337 63.6562C127.337 63.6562 126.642 52.2761 116.104 51.2164C116.104 51.2164 105.655 47.727 97.3749 57.8701C89.0946 68.0131 97.8678 80.6106 97.8678 80.6106L101.037 80.2262Z" fill="#263238"/>
<path d="M115.608 54.1477C116.189 55.8974 115.928 57.9329 115.514 59.7023C115.07 61.5085 114.368 63.2415 113.429 64.8477C112.531 66.5158 111.365 68.0258 109.979 69.318C108.353 70.7374 106.352 71.6788 104.39 72.5462C104.331 72.5758 104.39 72.6842 104.439 72.6596C106.514 71.8118 108.599 70.9345 110.388 69.5595C111.915 68.3074 113.222 66.808 114.252 65.1237C115.378 63.4741 116.141 61.6044 116.49 59.6382C116.801 57.6963 116.411 55.9368 115.844 54.0886C115.78 53.9555 115.564 54.0048 115.608 54.1477Z" fill="#263238"/>
<path d="M117.953 48.8902C115.795 47.5053 110.634 44.765 106.085 44.6024C101.447 44.4397 95.4534 46.628 93.3587 47.318C91.6336 47.8848 85.8522 48.4565 81.4212 50.8814C78.5034 52.4733 77.1923 56.7119 77.5915 58.8115C78.1879 61.9708 84.6742 60.1422 84.9847 61.3645C85.1819 62.1778 84.0532 66.2094 86.0247 68.1069C87.9962 70.0044 87.9124 69.7037 89.0411 70.7437C91.7766 73.272 95.2316 58.3827 100.826 54.3906C106.42 50.3984 117.953 48.8902 117.953 48.8902Z" fill="#C4A358"/>
<path opacity="0.1" d="M117.473 49.1177C117.473 49.1177 106.388 50.3992 100.799 54.3963C95.2095 58.3934 92.617 72.7011 89.8766 70.1678C88.669 69.049 88.2304 67.6098 88.0332 65.2737C89.3443 61.1829 92.0797 54.9236 96.2988 50.9807C100.242 47.2793 106.23 46.0521 112.371 46.3232C114.147 47.1109 115.853 48.0457 117.473 49.1177Z" fill="black"/>
<path d="M89.5589 77.2686C92.6985 72.7245 95.779 65.44 100.801 60.2058C105.824 54.9716 118.373 53.4684 120.024 53.8331C124.06 54.7153 124.647 56.7903 125.347 56.5438C126.047 56.2974 122.715 51.0041 121.68 50.1367C120.067 48.9728 118.215 48.1832 116.258 47.8251C114.479 47.5836 103.384 46.9281 98.6722 50.9499C93.9603 54.9716 86.2615 67.1305 86.7593 70.6397C86.8776 71.4775 87.8634 72.1675 88.0211 73.3553C88.2281 74.9226 88.2675 76.6969 88.5485 77.7911C88.7998 78.7127 89.3814 77.5496 89.5589 77.2686Z" fill="#C4A358"/>
<path d="M102.153 57.7149C101.307 56.9957 100.524 56.2059 99.8115 55.3541C99.0786 54.5045 98.4483 53.5715 97.9336 52.5744C97.9319 52.5653 97.9281 52.5566 97.9227 52.549C97.9172 52.5415 97.9102 52.5352 97.902 52.5306C97.8939 52.5261 97.8849 52.5234 97.8756 52.5226C97.8663 52.5219 97.8569 52.5233 97.8482 52.5265C97.8395 52.5298 97.8316 52.535 97.825 52.5416C97.8185 52.5482 97.8135 52.5562 97.8104 52.565C97.8072 52.5738 97.8061 52.5832 97.8069 52.5924C97.8078 52.6017 97.8107 52.6107 97.8153 52.6188C98.1918 53.7127 98.7409 54.7393 99.4418 55.6597C100.157 56.5604 101.035 57.3193 102.029 57.8973C102.143 57.9564 102.241 57.7938 102.153 57.7149Z" fill="#263238"/>
<path d="M89.9407 75.0035C89.8586 74.7145 89.7615 74.4299 89.6499 74.1509C89.546 73.8306 89.4766 73.5002 89.4429 73.1652C89.4663 72.5197 89.4201 71.8736 89.3049 71.2381C89.1274 70.7403 88.8943 70.2641 88.6099 69.8186C88.2582 69.3332 88.0841 68.7415 88.117 68.1429C88.117 68.0641 88.0037 68.0394 87.9938 68.1429C87.8016 69.3011 88.4522 70.2524 88.8021 71.3071C89.0288 71.9823 88.9007 72.6871 89.0091 73.3771C89.0642 74.032 89.3306 74.6512 89.7682 75.1415C89.8224 75.1613 89.9653 75.107 89.9407 75.0035Z" fill="#263238"/>
<path d="M91.9042 71.0778C91.6134 70.5849 91.2831 70.1315 91.0367 69.5992C90.8026 69.0932 90.6049 68.5711 90.4453 68.0369C90.2777 67.5144 90.1594 66.9772 90.0066 66.4498C89.8242 65.8288 89.5679 65.2226 89.4151 64.5918C89.4151 64.508 89.2771 64.5523 89.2968 64.6361C89.4496 65.2867 89.494 65.9718 89.6271 66.6322C89.7544 67.201 89.919 67.7608 90.12 68.3079C90.2985 68.8365 90.5279 69.3466 90.8051 69.8309C91.067 70.3274 91.4276 70.7651 91.8647 71.1172C91.8701 71.1181 91.8756 71.1176 91.8808 71.1159C91.8859 71.1143 91.8906 71.1114 91.8945 71.1075C91.8983 71.1037 91.9012 71.099 91.9029 71.0938C91.9046 71.0887 91.905 71.0832 91.9042 71.0778Z" fill="#263238"/>
<path d="M93.8999 67.5627C93.203 66.7547 92.6269 65.85 92.1896 64.8767C91.7706 63.9254 91.4108 62.9446 91.056 61.9688C91.056 61.8998 90.918 61.9244 90.9327 61.9688C91.0896 63.0394 91.3759 64.087 91.7854 65.0886C91.9941 65.5719 92.257 66.0299 92.5691 66.4538C92.9328 66.8914 93.3463 67.2851 93.8013 67.6268C93.8555 67.6958 93.9492 67.6219 93.8999 67.5627Z" fill="#263238"/>
<path d="M95.9975 64.2138C95.6402 63.8769 95.3522 63.4734 95.1498 63.026C94.8836 62.543 94.6322 62.0501 94.3957 61.5474C94.1689 61.0546 93.9323 60.6011 93.7056 60.1231C93.4455 59.6573 93.2875 59.1415 93.2423 58.61C93.2423 58.593 93.2356 58.5767 93.2236 58.5647C93.2115 58.5526 93.1952 58.5459 93.1782 58.5459C93.1612 58.5459 93.145 58.5526 93.1329 58.5647C93.1209 58.5767 93.1142 58.593 93.1142 58.61C93.0751 59.1407 93.1438 59.6738 93.3162 60.1773C93.4762 60.7401 93.6857 61.2877 93.9422 61.8136C94.1976 62.334 94.4857 62.8377 94.8047 63.3217C95.0569 63.772 95.4403 64.1348 95.9039 64.3617C95.9926 64.3962 96.0813 64.2828 95.9975 64.2138Z" fill="#263238"/>
<path d="M97.8122 59.8536C97.5115 59.4495 97.2158 59.0453 96.9496 58.6165C96.6835 58.1878 96.4568 57.754 96.2005 57.3105C95.9442 56.8669 95.7076 56.3888 95.471 55.9107C95.4634 55.8977 95.4514 55.8877 95.4372 55.8826C95.4229 55.8775 95.4073 55.8777 95.3931 55.883C95.379 55.8883 95.3671 55.8985 95.3597 55.9117C95.3523 55.9249 95.3499 55.9402 95.3527 55.9551C95.4779 56.4602 95.6427 56.9546 95.8456 57.4337C96.0546 57.9116 96.2967 58.3744 96.5701 58.8186C96.8376 59.2592 97.1305 59.6838 97.4474 60.0902C97.7461 60.5123 98.1224 60.8737 98.5564 61.1548C98.6205 61.1893 98.7141 61.1153 98.6796 61.0463C98.4307 60.621 98.1402 60.2215 97.8122 59.8536Z" fill="#263238"/>
<path d="M105.424 56C105.123 55.4677 104.828 54.9502 104.478 54.4524C104.12 53.9368 103.731 53.443 103.314 52.9738C102.524 52.0569 101.635 51.2304 100.663 50.5095C100.609 50.4701 100.52 50.5095 100.569 50.5933C102.132 52.4317 103.773 54.2109 105.32 56.0641C105.323 56.0739 105.327 56.083 105.334 56.0907C105.341 56.0984 105.349 56.1044 105.358 56.1083C105.368 56.1121 105.378 56.1137 105.388 56.1129C105.398 56.1121 105.408 56.1088 105.416 56.1035C105.425 56.0982 105.432 56.0909 105.438 56.0822C105.443 56.0736 105.446 56.0638 105.447 56.0537C105.447 56.0436 105.446 56.0334 105.442 56.0241C105.438 56.0148 105.432 56.0065 105.424 56Z" fill="#263238"/>
<path d="M108.273 53.0945C107.96 52.5759 107.592 52.0933 107.174 51.6554C106.26 50.7641 105.25 49.9772 104.162 49.3094C104.093 49.265 104.014 49.3488 104.078 49.403C104.966 50.2212 105.868 51.0245 106.705 51.8969C107.127 52.3197 107.526 52.7656 107.898 53.2325C108.263 53.7254 108.514 54.2478 108.859 54.7111C108.865 54.7194 108.874 54.7255 108.884 54.7286C108.894 54.7317 108.904 54.7316 108.914 54.7283C108.924 54.725 108.933 54.7188 108.939 54.7104C108.945 54.702 108.948 54.6919 108.948 54.6816C108.827 54.1142 108.597 53.5754 108.273 53.0945Z" fill="#263238"/>
<path d="M111.685 52.1014C111.406 51.594 111.076 51.1166 110.699 50.677C109.974 49.8402 109.112 49.132 108.151 48.5824C108.087 48.5429 108.023 48.6415 108.077 48.6859C108.922 49.4045 109.704 50.1943 110.413 51.0467C110.768 51.4705 111.098 51.9092 111.438 52.3429C111.744 52.811 112.073 53.2634 112.424 53.6982C112.454 53.7278 112.503 53.6982 112.493 53.649C112.273 53.1088 112.003 52.5906 111.685 52.1014Z" fill="#263238"/>
<path d="M114.303 50.564C113.958 50.1747 113.583 49.8001 113.213 49.4304C112.863 49.0488 112.454 48.7259 112.001 48.4743C111.932 48.4349 111.888 48.5285 111.932 48.5778C112.617 49.3269 113.287 50.0909 113.953 50.8548C114.529 51.5989 115.024 52.4018 115.431 53.2501C115.431 53.2846 115.51 53.2501 115.505 53.2205C115.381 52.234 114.962 51.308 114.303 50.564Z" fill="#263238"/>
<path d="M117.287 50.4005C116.662 49.5959 115.891 48.9169 115.014 48.3995C114.95 48.365 114.881 48.4685 114.94 48.5079C115.726 49.1061 116.416 49.8208 116.986 50.6272C117.569 51.4261 118.065 52.2853 118.465 53.1901C118.465 53.2345 118.558 53.2246 118.548 53.1901C118.353 52.1739 117.921 51.2181 117.287 50.4005Z" fill="#263238"/>
<path d="M120.753 52.7307C120.69 52.5137 120.613 52.3013 120.521 52.0949C120.332 51.6798 120.101 51.2851 119.831 50.917C119.266 50.1817 118.629 49.5048 117.929 48.8963C117.916 48.8851 117.899 48.8797 117.882 48.8811C117.865 48.8825 117.849 48.8906 117.838 48.9037C117.827 48.9167 117.821 48.9337 117.822 48.9508C117.824 48.9679 117.832 48.9837 117.845 48.9948C118.511 49.611 119.102 50.3042 119.605 51.0599C119.851 51.4263 120.07 51.8101 120.26 52.2083C120.354 52.4005 120.438 52.6026 120.516 52.8046C120.572 53.0088 120.648 53.207 120.743 53.3961C120.749 53.4063 120.758 53.4147 120.768 53.4206C120.779 53.4265 120.79 53.4295 120.802 53.4295C120.814 53.4295 120.826 53.4265 120.836 53.4206C120.847 53.4147 120.855 53.4063 120.861 53.3961C120.868 53.1694 120.831 52.9436 120.753 52.7307Z" fill="#263238"/>
<path d="M123.027 53.2954C122.858 52.9553 122.669 52.6261 122.46 52.3097C122.257 51.997 122.033 51.6989 121.789 51.4176C121.538 51.1268 121.297 50.8459 121.035 50.5452C121.03 50.537 121.024 50.5301 121.016 50.5247C121.008 50.5194 120.999 50.5159 120.99 50.5144C120.981 50.513 120.971 50.5136 120.962 50.5163C120.953 50.519 120.944 50.5237 120.937 50.53C120.93 50.5363 120.925 50.5441 120.921 50.5529C120.917 50.5616 120.916 50.571 120.916 50.5805C120.916 50.59 120.919 50.5992 120.923 50.6076C120.928 50.616 120.934 50.6233 120.942 50.629C121.195 50.92 121.425 51.2316 121.627 51.5605C121.819 51.871 122.021 52.1717 122.213 52.4772C122.405 52.7828 122.608 53.0884 122.8 53.394C122.974 53.7239 123.165 54.0447 123.372 54.355C123.411 54.4043 123.475 54.355 123.46 54.3057C123.354 53.9536 123.209 53.6147 123.027 53.2954Z" fill="#263238"/>
<path d="M101.547 79.567C101.547 79.567 96.8059 73.1007 93.8634 74.806C90.9209 76.5113 94.583 85.9594 98.112 87.1817C98.5538 87.3701 99.0292 87.4671 99.5095 87.4669C99.9898 87.4666 100.465 87.3692 100.907 87.1804C101.348 86.9916 101.747 86.7153 102.079 86.3683C102.411 86.0212 102.67 85.6105 102.839 85.161L101.547 79.567Z" fill="#F7A9A0"/>
<path d="M94.9878 77.4922C94.9336 77.4922 94.9237 77.5661 94.9878 77.5858C97.4522 78.5272 98.8076 80.7746 99.7638 83.1108C99.0146 82.2187 98.0091 81.7456 96.8065 82.6426C96.7474 82.6869 96.8065 82.7855 96.8755 82.7707C97.3043 82.6242 97.7679 82.6137 98.2029 82.7407C98.6378 82.8678 99.0229 83.1261 99.3054 83.4804C99.7724 84.0763 100.174 84.7208 100.503 85.4026C100.621 85.6195 100.996 85.4962 100.927 85.2449C100.927 85.2449 100.927 85.2055 100.927 85.1857C100.888 82.0561 98.3591 77.7337 94.9878 77.4922Z" fill="#263238"/>
<path d="M99.1361 121.924C100.891 128.991 96.3513 136.867 96.3513 136.867C84.2216 142.185 67.5672 137.572 67.1729 136.778C67.1729 136.778 66.6801 131.446 65.788 129.942C64.8958 128.439 58.3258 120.711 56.5465 118.779C54.7672 116.847 54.2004 108.173 54.8017 106.551C55.403 104.93 66.3104 105.147 68.8044 106.26C72.7228 107.912 76.7531 109.284 80.8651 110.366C80.8651 110.366 84.8327 93.4658 92.7779 93.7516C96.4252 93.8847 92.0189 101.145 91.4176 108.537C91.0677 112.84 97.825 116.65 99.1361 121.924Z" fill="#F7A9A0"/>
<path d="M63.7754 112.619C64.9287 113.329 66.3926 113.383 67.7184 113.703L71.7649 114.556C74.4744 115.142 77.1445 115.898 79.7594 116.818C81.0734 117.305 82.3417 117.907 83.5496 118.617C84.8217 119.311 85.8633 120.361 86.5463 121.638C87.8669 124.133 88.3211 126.995 87.8377 129.776C88.0094 127.045 87.3679 124.325 85.9943 121.959C84.6635 119.633 81.9626 118.568 79.4637 117.607C76.8955 116.667 74.2816 115.858 71.6319 115.182C68.9999 114.369 66.1658 113.999 63.7754 112.619Z" fill="#263238"/>
<path d="M58.5667 121.814L57.6992 121.346C57.9013 120.976 62.628 112.292 67.3596 110.651C68.232 110.345 69.6219 109.99 71.2336 109.586C75.8864 108.403 83.6739 106.432 84.0041 103.972C84.147 102.898 82.6339 101.804 81.3426 101.074L81.8354 100.217C84.1322 101.513 85.1673 102.785 84.9898 104.105C84.5758 107.225 77.0102 109.142 71.485 110.537C69.8979 110.941 68.5277 111.291 67.6898 111.577C63.3279 113.095 58.616 121.73 58.5667 121.814Z" fill="#263238"/>
<path d="M56.5991 120.286L55.8203 119.68C56.0815 119.345 62.2277 111.479 66.9051 109.847C67.8909 109.502 69.5962 109.128 71.553 108.694C76.0727 107.708 83.6285 106.028 83.9538 103.834C84.0721 103.056 83.1652 102.104 81.3415 101.074L81.8344 100.217C84.1066 101.498 85.1268 102.725 84.9395 103.977C84.5452 106.629 78.7441 108.117 71.7748 109.66C69.8525 110.084 68.1866 110.449 67.2403 110.779C62.834 112.312 56.6631 120.207 56.5991 120.286Z" fill="#263238"/>
<path d="M71.7625 99.682C71.7625 99.682 71.0922 96.6706 72.2554 94.5513C73.4186 92.432 78.1206 91.8455 79.8555 92.225C81.5905 92.6045 88.4612 97.0009 90.482 99.4701C92.5028 101.939 91.6452 105.877 87.8057 104.892C83.9661 103.906 71.7625 99.682 71.7625 99.682Z" fill="#F7A9A0"/>
<path d="M87.1974 96.5283C89.997 98.0069 94.0534 102.083 90.5342 104.937C88.198 106.297 85.0288 103.872 82.6777 103.369C84.2106 103.537 85.6646 104.123 87.1136 104.518C88.4444 104.892 90.1399 105.119 90.894 103.709C92.4712 100.964 89.1246 98.1301 87.1974 96.5283Z" fill="#263238"/>
<path d="M69.2246 94.4245C69.2246 94.4245 70.7032 91.7286 73 90.9153C75.2969 90.1021 79.1906 92.7784 80.2404 94.2076C81.2903 95.6369 83.523 103.483 83.3998 106.672C83.2765 109.861 80.0236 112.251 77.7908 108.979C75.5581 105.706 69.2246 94.4245 69.2246 94.4245Z" fill="#F7A9A0"/>
<path d="M77.3066 91.8408C78.8778 92.7844 80.2049 94.0844 81.1807 95.6358C82.2058 97.1884 82.6593 99.0859 82.9747 100.806C83.3863 102.574 83.6273 104.378 83.6943 106.193C83.7639 107.126 83.5159 108.055 82.9906 108.829C82.4653 109.603 81.6937 110.176 80.8011 110.456C81.6128 110.118 82.2859 109.515 82.7102 108.745C83.1346 107.975 83.2852 107.084 83.1374 106.218C82.9068 104.454 82.5777 102.705 82.1516 100.978C81.7918 99.1943 81.4862 97.5284 80.5843 95.9759C79.7422 94.4163 78.6328 93.0167 77.3066 91.8408Z" fill="#263238"/>
<path d="M61.6758 98.1495C61.6758 98.1495 62.4545 95.0248 64.5788 93.6102C66.7031 92.1957 71.4791 93.901 72.9577 95.0888C74.4364 96.2766 78.9561 103.665 79.7299 106.917C80.5037 110.17 77.8225 113.453 74.599 110.708C71.3756 107.962 61.6758 98.1495 61.6758 98.1495Z" fill="#F7A9A0"/>
<path d="M69.2852 93.4385C71.17 93.9924 72.9032 94.9702 74.3519 96.2971C75.8306 97.6031 76.8163 99.4218 77.6542 101.083C78.5735 102.77 79.331 104.541 79.9165 106.371C80.2521 107.294 80.2577 108.304 79.9325 109.231C79.6072 110.157 78.9711 110.942 78.1323 111.453C78.8777 110.902 79.4069 110.107 79.6283 109.207C79.8498 108.307 79.7495 107.358 79.3448 106.524C78.6222 104.787 77.7994 103.094 76.8804 101.452C76.0031 99.7323 75.2145 98.096 73.8541 96.7751C72.536 95.4065 70.99 94.2775 69.2852 93.4385Z" fill="#263238"/>
<path d="M54.6484 108.158C54.747 105.526 55.8363 100.509 58.35 97.7781C60.8636 95.0476 70.0903 99.9467 72.5892 102.268C75.0881 104.589 78.7797 112.47 76.6111 113.845C74.4424 115.22 68.0695 108.641 66.4676 107.586C64.8658 106.531 54.6484 108.158 54.6484 108.158Z" fill="#F7A9A0"/>
<path d="M60.5547 109.732C61.7425 108.278 63.5612 107.129 65.5771 107.317C67.6275 107.603 69.0273 109.135 70.5059 110.303C71.9845 111.472 73.3301 112.93 74.9418 113.753C75.755 114.113 76.6126 114.246 76.7556 113.468C76.9322 112.594 76.912 111.691 76.6964 110.826V110.87C76.1533 109.134 75.459 107.448 74.6214 105.833C73.7687 104.236 72.7731 102.718 71.3142 101.703C69.8298 100.673 68.2581 99.7737 66.6171 99.017C64.9742 98.2054 63.3164 97.4562 61.644 96.7695C65.0941 97.9031 68.5442 99.1353 71.6888 101.156C73.3202 102.166 74.4144 103.837 75.3065 105.454C76.1922 107.104 76.9311 108.829 77.5146 110.609V110.634C77.7612 111.646 77.7612 112.702 77.5146 113.714C77.421 114.016 77.2513 114.29 77.0217 114.508C76.7712 114.721 76.4537 114.84 76.1247 114.843C75.58 114.852 75.0421 114.721 74.5623 114.463C72.7781 113.477 71.4325 112.102 70.0327 110.811C68.6329 109.52 67.2578 108.051 65.4835 107.746C63.7091 107.44 61.846 108.367 60.5547 109.732Z" fill="#263238"/>
<path d="M59.6269 173.703C56.9013 166.31 56.5662 156.946 69.1493 128.36C70.8892 124.417 98.9832 127.679 98.4164 132.268C97.2976 141.258 89.589 155.679 86.5085 160.331C78.7358 172.062 61.4752 178.705 59.6269 173.703Z" fill="#F7A9A0"/>
<path d="M58.3348 168.687C57.9224 166.526 57.7571 164.325 57.8419 162.127C57.8863 161.033 57.9503 159.939 58.0785 158.85C58.2139 157.756 58.423 156.672 58.7044 155.607C59.2334 153.479 59.8801 151.383 60.6415 149.327C61.3815 147.258 62.2676 145.244 63.2931 143.3C62.5292 145.35 61.8736 147.425 61.2428 149.51C60.6119 151.595 60.0303 153.684 59.5276 155.789C59.286 156.844 59.0347 157.898 58.9164 158.953C58.7981 160.008 58.6601 161.102 58.5714 162.181C58.3788 164.344 58.2998 166.516 58.3348 168.687Z" fill="#263238"/>
</svg>
