<svg width="260" height="260" viewBox="0 0 260 260" fill="none" xmlns="http://www.w3.org/2000/svg">
<path d="M0 130C0 58.203 58.203 0 130 0V0C201.797 0 260 58.203 260 130V130C260 201.797 201.797 260 130 260V260C58.203 260 0 201.797 0 130V130Z" fill="#F8F6EE"/>
<path d="M115.75 133.943C122.771 140.844 130.937 150.157 138.525 162.189C143.804 170.559 147.718 178.524 150.638 185.533C143.909 188.561 137.179 191.59 130.45 194.618L113.148 135.741L115.75 133.943Z" fill="#C4A358"/>
<path d="M103.016 129.183L115.96 133.228C119.506 138.853 121.554 143.835 122.757 147.3C128.357 163.437 126.561 178.205 126.053 182.379C126.053 182.379 126.044 182.45 124.413 194.619H65.2334C65.0374 190.208 65.0753 184.109 66.1166 176.953C67.3515 168.468 68.498 160.592 73.6306 151.941C75.7177 148.424 82.9798 137.168 96.9045 131.275C99.3882 130.224 101.536 129.576 103.016 129.183Z" fill="#C4A358"/>
<path d="M72.5683 153.821C79.7727 156.133 88.947 158.401 99.7284 159.506C109.772 160.535 118.625 160.289 125.801 159.616C126.006 161.308 126.212 163.001 126.418 164.694C118.755 165.319 109.641 165.508 99.4449 164.616C88.0221 163.617 78.1264 161.515 70.0879 159.258C70.9146 157.445 71.7412 155.634 72.5683 153.821Z" fill="#331F15"/>
<path opacity="0.5" d="M128.124 149.293L131.055 149.947L120.381 194.616H114.338L128.124 149.293Z" fill="#CFB875"/>
<path d="M104.144 186.06L106.655 185.279L112.409 188.253L113.86 184.734L106.557 181.926L103.576 183.323L104.144 186.06Z" fill="#CFB875"/>
<path opacity="0.5" d="M65.1406 187.929C71.0074 189.396 78.0207 190.709 85.9894 191.345C92.9755 191.903 99.295 191.83 104.755 191.462C104.755 189.22 104.755 186.978 104.755 184.735C91.7312 183.28 78.707 181.825 65.6833 180.37L65.1406 187.929Z" fill="#CFB875"/>
<path d="M108.215 138.49C104.556 137.863 102.097 134.388 102.725 130.728L105.169 116.469L118.422 118.741L115.977 133C115.35 136.66 111.875 139.118 108.215 138.49Z" fill="#E39C76"/>
<path d="M116.686 129.019L108.838 123.075C108.794 123.837 108.671 127.422 111.324 130.377C113.018 132.264 115.02 132.978 115.956 133.246L116.686 129.019Z" fill="#A46C50"/>
<path d="M105.633 112.002C105.629 111.78 105.119 111.355 104.964 111.213C104.703 110.973 104.41 110.767 104.097 110.601C103.487 110.28 102.785 110.107 102.094 110.143C100.721 110.214 99.3561 111.119 98.898 112.439C98.6318 113.206 98.671 114.054 98.8823 114.838C99.1997 116.016 99.9017 117.083 100.838 117.866C101.614 118.515 102.547 118.968 103.53 119.201C103.727 119.248 105.77 119.558 105.768 119.477C105.723 116.985 105.678 114.494 105.633 112.002Z" fill="#E39C76"/>
<path d="M103.775 111.827C103.745 112.918 103.696 118.689 108.056 123.538C108.859 124.431 114.199 130.369 120.278 128.994C128.09 127.227 129.392 115.134 129.454 114.478C129.665 112.258 130.284 105.723 125.549 101.347C121.684 97.7764 116.782 97.9807 116.085 98.0207C115.35 98.0628 110.657 98.4087 107.134 102.333C103.937 105.895 103.824 110.042 103.775 111.827Z" fill="#E39C76"/>
<path d="M125.356 113.75C125.31 114.704 125.91 115.508 126.698 115.546C127.485 115.585 128.161 114.843 128.207 113.889C128.254 112.935 127.653 112.131 126.866 112.092C126.078 112.054 125.402 112.796 125.356 113.75Z" fill="#262626"/>
<path d="M122.567 114.707L123.551 116.674C123.732 117.036 123.564 117.475 123.187 117.623L121.877 118.136" stroke="#262626" stroke-width="0.703655" stroke-miterlimit="10" stroke-linecap="round" stroke-linejoin="round"/>
<path d="M113.157 117.241C113.105 118.312 113.93 119.222 115 119.274C116.07 119.326 116.98 118.5 117.032 117.43C117.084 116.36 116.259 115.45 115.189 115.398C114.119 115.346 113.209 116.171 113.157 117.241Z" fill="#A46C50"/>
<path d="M103.918 116.644C103.961 116.435 104.228 115.016 103.267 113.79C102.514 112.83 101.484 112.595 101.201 112.54" stroke="#262626" stroke-width="0.703655" stroke-miterlimit="10" stroke-linecap="round" stroke-linejoin="round"/>
<path d="M103.304 114.082C103.242 114.061 102.496 113.821 101.86 114.305C101.338 114.703 101.275 115.299 101.266 115.398" stroke="#262626" stroke-width="0.703655" stroke-miterlimit="10" stroke-linecap="round" stroke-linejoin="round"/>
<path d="M128.062 116.744C128.432 116.762 128.769 116.888 129.055 117.082C128.838 118.101 128.521 119.328 128.064 120.61C128 120.613 127.938 120.623 127.873 120.619C126.803 120.567 125.978 119.657 126.03 118.587C126.082 117.517 126.992 116.691 128.062 116.744Z" fill="#A46C50"/>
<path d="M117.727 111.714L119.342 113.546L117.029 114.361" stroke="#262626" stroke-width="0.703655" stroke-miterlimit="10" stroke-linecap="round" stroke-linejoin="round"/>
<path d="M117.029 122.04L122.844 122.702C122.828 122.583 122.573 120.866 121.193 120.242C119.84 119.63 117.934 120.307 117.029 122.04Z" fill="white"/>
<path d="M103.85 110.486C104.17 110.611 104.926 110.954 105.526 111.762C106.08 112.506 106.213 113.256 106.252 113.599C112.283 113.027 115.764 111.332 117.861 109.806C117.861 109.806 118.014 109.695 122.435 106.336C123.147 107.104 124.263 108.134 125.842 109.018C127.273 109.819 128.599 110.228 129.569 110.447C132.739 109.709 134.948 107.341 135.022 104.869C135.099 102.265 132.784 100.294 131.142 99.475C128.461 98.1382 127.228 99.6979 123.298 98.6681C120.13 97.8381 120.248 96.6458 117.277 95.926C116.38 95.7085 112.65 94.8046 108.902 96.7778C105.741 98.4424 103.237 101.801 102.987 105.674C102.85 107.793 103.425 109.503 103.85 110.486Z" fill="#262626"/>
<path d="M103.003 129.183C97.6844 130.395 87.7358 133.458 78.4687 141.748C78.4687 141.748 69.1289 150.103 62.759 165.597C62.1948 166.969 61.5633 168.418 60.8663 171.464C60.326 173.825 60.0825 176.002 60.0028 177.904C59.9434 179.325 60.8192 180.618 62.156 181.104C63.3306 181.53 64.6827 182.005 66.1816 182.505C68.958 183.431 75.1161 185.953 82.0919 186.922C96.6385 188.941 104.714 189.445 104.714 189.445L105.772 164.335L86.5439 161.901L103.003 129.183Z" fill="#C4A358"/>
<path d="M118.557 142.097C120.972 150.543 122.468 157.615 123.415 162.772" stroke="#262626" stroke-width="0.412725" stroke-miterlimit="10" stroke-linecap="round" stroke-linejoin="round"/>
<path opacity="0.5" d="M93.3763 140.586L82.5879 164.89H89.1175L93.3763 140.586Z" fill="#CFB875"/>
<path d="M129.597 149.724L123.77 148.073L111.051 192.961L116.878 194.612L129.597 149.724Z" fill="#593B2A"/>
<path d="M105.337 170.243C105.337 170.243 116.27 169.154 117.435 169.513C118.601 169.873 122.59 172.131 123.154 172.775C123.718 173.42 123.919 174.024 123.839 174.628C123.758 175.232 122.953 175.917 122.953 175.917C123.584 176.9 123.605 177.573 123.471 178.029C123.231 178.842 122.277 179.691 122.268 179.702C122.338 179.954 122.418 180.315 122.439 180.754C122.46 181.171 122.501 182.012 122.086 182.779C121.471 183.918 120.203 184.242 119.926 184.307C119.926 184.307 120.416 185.219 119.771 185.985C119.127 186.75 117.194 187.716 114.898 187.394C112.603 187.072 106.642 184.132 106.642 184.132L104.727 184.732L105.337 170.243Z" fill="#E39C76"/>
<path opacity="0.5" d="M135.203 149.299C149.894 149.299 161.804 137.389 161.804 122.697C161.804 108.006 149.894 96.0957 135.203 96.0957C120.511 96.0957 108.602 108.006 108.602 122.697C108.602 137.389 120.511 149.299 135.203 149.299Z" fill="#CDEBF5"/>
<path d="M135.195 92.6367C118.594 92.6367 105.137 106.094 105.137 122.695C105.137 139.296 118.594 152.754 135.195 152.754C151.796 152.754 165.253 139.296 165.253 122.695C165.253 106.094 151.796 92.6367 135.195 92.6367ZM135.195 147.846C121.305 147.846 110.045 136.585 110.045 122.695C110.045 108.805 121.305 97.5448 135.195 97.5448C149.085 97.5448 160.345 108.805 160.345 122.695C160.345 136.585 149.085 147.846 135.195 147.846Z" fill="#331F15"/>
<path d="M122.958 175.922C122.958 175.922 118.931 175.171 116.897 174.225C114.862 173.278 114.105 172.758 114.105 172.758" stroke="#262626" stroke-width="0.619087" stroke-miterlimit="10" stroke-linecap="round" stroke-linejoin="round"/>
<path d="M122.277 179.704C122.277 179.704 117.611 179.237 115.718 178.149C113.825 177.06 113.148 176.351 113.148 176.351" stroke="#262626" stroke-width="0.619087" stroke-miterlimit="10" stroke-linecap="round" stroke-linejoin="round"/>
<path d="M120.758 184.032C118.76 183.953 117.258 183.507 116.211 183.077C114.465 182.361 112.283 180.995 112.283 180.995" stroke="#262626" stroke-width="0.619087" stroke-miterlimit="10" stroke-linecap="round" stroke-linejoin="round"/>
<path d="M105.337 170.244L104.727 184.733L106.642 184.134L106.028 170.177L105.337 170.244Z" fill="#A46C50"/>
<path d="M92.6462 142.097C92.6462 142.097 82.6167 164.147 82.8998 164.715C83.1826 165.283 105.785 164.337 105.785 164.337L104.728 189.447C104.728 189.447 87.0803 188.332 80.0987 186.599C73.1172 184.866 65.1406 182.151 65.1406 182.151" stroke="#262626" stroke-width="0.412725" stroke-miterlimit="10" stroke-linecap="round" stroke-linejoin="round"/>
<path d="M136.58 104.885C136.425 105.231 136.401 105.637 136.545 106.021C136.835 106.793 137.696 107.185 138.468 106.895C139.872 106.368 141.392 106.146 142.864 106.253C144.51 106.372 145.77 106.867 146.375 107.151C147.092 107.488 148.584 108.19 149.697 109.721C151.246 111.853 151.116 114.349 150.989 115.323C150.882 116.141 151.458 116.891 152.276 116.998C153.094 117.105 153.845 116.528 153.951 115.711C154.168 114.06 154.216 110.859 152.114 107.965C150.55 105.812 148.515 104.855 147.645 104.447C146.678 103.992 145.1 103.419 143.08 103.273C141.181 103.136 139.223 103.42 137.418 104.098C137.03 104.243 136.738 104.534 136.58 104.885Z" fill="white"/>
<path d="M84.2809 139.857C80.6333 143.101 75.9485 147.943 71.6724 154.654C67.2819 161.544 64.8501 168.005 63.4609 172.759" stroke="white" stroke-width="0.412725" stroke-miterlimit="10" stroke-linecap="round" stroke-linejoin="round"/>
<path d="M154.938 194.631H110.27C108.528 194.631 107.115 193.218 107.115 191.476V189.457H154.938V194.631H154.938Z" fill="#A8A29E"/>
<path d="M188.24 194.632H139.507C137.594 194.632 136.232 192.997 136.466 190.978L140.149 159.201C140.383 157.183 142.124 155.547 144.037 155.547H192.77C194.684 155.547 196.045 157.183 195.811 159.201L192.128 190.978C191.894 192.996 190.154 194.632 188.24 194.632Z" fill="#F5F5F4"/>
<path d="M192.974 194.632H144.242C142.328 194.632 140.966 192.997 141.2 190.978L144.883 159.201C145.117 157.183 146.858 155.547 148.772 155.547H197.504C199.418 155.547 200.78 157.183 200.546 159.201L196.863 190.978C196.629 192.996 194.888 194.632 192.974 194.632Z" fill="#E7E5E4"/>
<path d="M200.545 161.024L196.862 191.163C196.862 191.163 197.027 194.628 191.349 194.628C185.671 194.628 159.457 194.628 159.457 194.628C162.89 194.606 174.912 194.112 185.955 185.07C196.976 176.047 199.842 164.39 200.545 161.024Z" fill="#D6D3D1"/>
<path d="M199.515 164.894C198.411 168.466 195.73 175.461 189.304 181.993C182.964 188.438 176.125 191.237 172.584 192.416" stroke="#D6D3D1" stroke-width="0.412725" stroke-miterlimit="10" stroke-linecap="round" stroke-linejoin="round"/>
<path d="M170.899 178.264H169.195L170.281 171.355H171.984L170.899 178.264Z" fill="#C4A358"/>
<path d="M173.117 178.268H171.414L172.162 173.504H173.866L173.117 178.268Z" fill="#C4A358"/>
<path d="M123.274 96.8799C120.816 98.267 114.608 102.198 110.535 110.128C106.473 118.035 106.88 125.35 107.181 128.158" stroke="#262626" stroke-width="0.412725" stroke-miterlimit="10" stroke-linecap="round" stroke-linejoin="round"/>
<path d="M126.272 180.614L125.314 173.856" stroke="#262626" stroke-width="0.412725" stroke-miterlimit="10" stroke-linecap="round" stroke-linejoin="round"/>
<path d="M215.6 203.137H44.3996C41.9699 203.137 40 201.167 40 198.738C40 196.308 41.9699 194.338 44.3996 194.338H215.6C218.03 194.338 220 196.308 220 198.738C220 201.167 218.03 203.137 215.6 203.137Z" fill="#331F15"/>
<path d="M102.52 81.8487C102.382 81.2929 102.45 80.7882 102.723 80.3348C102.992 79.86 103.404 79.5538 103.959 79.4162C104.836 79.1993 105.595 78.8752 106.237 78.444C106.874 77.9914 107.321 77.4155 107.579 76.7164C107.859 76.0119 107.877 75.168 107.633 74.1846C107.453 73.4577 107.113 72.8613 106.612 72.3954C106.132 71.9243 105.543 71.6051 104.843 71.4379C104.165 71.2654 103.441 71.2744 102.672 71.465C102.073 71.6131 101.533 71.8603 101.052 72.2064C100.591 72.5472 100.192 72.9522 99.8549 73.4215C99.5869 73.8055 99.2256 74.1332 98.7709 74.4045C98.3323 74.6493 97.8222 74.6507 97.2405 74.409C96.6322 74.1512 96.2405 73.7604 96.0654 73.2365C95.8903 72.7126 95.9717 72.1706 96.3095 71.6106C96.8833 70.629 97.6304 69.7974 98.5507 69.1158C99.4872 68.4076 100.543 67.9079 101.719 67.6168C103.194 67.2516 104.604 67.2655 105.95 67.6586C107.311 68.0249 108.484 68.6873 109.47 69.6458C110.456 70.6042 111.127 71.7996 111.481 73.2319C111.746 74.3009 111.821 75.2919 111.707 76.2051C111.587 77.0968 111.302 77.9161 110.852 78.6629C110.417 79.383 109.85 80.0227 109.149 80.582C108.464 81.1146 107.68 81.5695 106.798 81.9467C106.761 81.9787 106.723 82.0106 106.686 82.0426C106.669 82.0693 106.667 82.104 106.677 82.1467L106.971 83.3332C107.109 83.8891 107.043 84.4044 106.775 84.8792C106.502 85.3326 106.087 85.6281 105.531 85.7657C104.975 85.9033 104.471 85.8354 104.017 85.5619C103.559 85.2671 103.26 84.8417 103.123 84.2859L102.52 81.8487ZM106.792 91.5456C106.172 91.6991 105.651 91.6578 105.23 91.4218C104.824 91.1591 104.545 90.7178 104.391 90.0978L104.257 89.5527C104.103 88.9327 104.147 88.4227 104.388 88.0226C104.646 87.5958 105.084 87.3057 105.704 87.1523L106.121 87.0491C106.741 86.8956 107.254 86.9502 107.659 87.2128C108.081 87.4488 108.368 87.8768 108.522 88.4968L108.657 89.042C108.81 89.662 108.758 90.1853 108.501 90.6121C108.259 91.0121 107.829 91.2889 107.209 91.4424L106.792 91.5456Z" fill="#78716C"/>
<path d="M87.3654 94.7352C87.0349 94.3534 86.8863 93.9296 86.9198 93.4639C86.9406 92.9834 87.1419 92.5779 87.5236 92.2474C88.1256 91.7261 88.5926 91.1676 88.9246 90.5718C89.2439 89.9613 89.365 89.3298 89.288 88.6771C89.2257 88.0116 88.9021 87.3412 88.3173 86.6658C87.885 86.1665 87.3788 85.8341 86.7986 85.6685C86.2331 85.4901 85.6421 85.4752 85.0256 85.6236C84.4237 85.7594 83.8585 86.0561 83.3299 86.5138C82.9188 86.8698 82.5932 87.2801 82.3533 87.7448C82.128 88.1968 81.9766 88.6747 81.8991 89.1786C81.8422 89.5876 81.6893 89.9897 81.4406 90.3849C81.1939 90.7527 80.7936 90.958 80.2397 91.0009C79.6585 91.0417 79.1942 90.8913 78.847 90.5496C78.4998 90.208 78.3469 89.7495 78.3882 89.1741C78.4464 88.1731 78.7008 87.2206 79.1513 86.3167C79.6038 85.3854 80.2338 84.57 81.0414 83.8708C82.0546 82.9935 83.1684 82.4402 84.3828 82.2108C85.5992 81.954 86.7866 82.0049 87.945 82.3636C89.1033 82.7222 90.1084 83.3934 90.9603 84.3772C91.596 85.1114 92.0516 85.8602 92.3272 86.6236C92.5901 87.3722 92.6939 88.1301 92.6388 88.8973C92.5856 89.637 92.3955 90.3669 92.0683 91.0869C91.7431 91.7796 91.3094 92.4506 90.767 93.1001C90.7503 93.1402 90.7337 93.1804 90.717 93.2205C90.715 93.2479 90.7268 93.2762 90.7522 93.3056L91.4578 94.1205C91.7884 94.5023 91.9433 94.9334 91.9225 95.4139C91.889 95.8796 91.6814 96.2778 91.2996 96.6083C90.9179 96.9389 90.4941 97.0875 90.0284 97.054C89.5499 97.0058 89.1454 96.7908 88.8148 96.4091L87.3654 94.7352ZM94.6032 100.646C94.1774 101.015 93.7516 101.191 93.326 101.174C92.9023 101.13 92.5061 100.895 92.1374 100.469L91.8132 100.095C91.4445 99.6687 91.275 99.2503 91.3045 98.8394C91.336 98.401 91.5647 97.9975 91.9905 97.6288L92.2768 97.3808C92.7026 97.0121 93.1274 96.8499 93.551 96.8941C93.9767 96.9109 94.3739 97.1323 94.7426 97.5581L95.0668 97.9325C95.4355 98.3583 95.6041 98.7904 95.5725 99.2288C95.543 99.6397 95.3153 100.03 94.8895 100.398L94.6032 100.646Z" fill="#78716C"/>
<path d="M122.602 85.1701C122.812 84.711 123.137 84.4003 123.574 84.2377C124.02 84.0576 124.473 84.0727 124.932 84.2832C125.656 84.6151 126.357 84.8087 127.037 84.864C127.725 84.9016 128.35 84.7502 128.912 84.4097C129.492 84.0772 129.968 83.5049 130.34 82.6928C130.616 82.0925 130.708 81.4941 130.619 80.8974C130.547 80.3089 130.315 79.7648 129.925 79.2652C129.552 78.7737 129.048 78.3822 128.412 78.0908C127.918 77.8641 127.409 77.7379 126.887 77.712C126.382 77.6943 125.885 77.7545 125.394 77.8928C124.998 78.0104 124.569 78.0379 124.106 77.9753C123.669 77.9032 123.316 77.6239 123.048 77.1376C122.77 76.6255 122.715 76.1407 122.882 75.6831C123.049 75.2255 123.403 74.8964 123.943 74.6956C124.878 74.3338 125.851 74.1707 126.86 74.2061C127.895 74.2321 128.898 74.4676 129.869 74.9129C131.087 75.4715 132.052 76.2559 132.764 77.2661C133.502 78.2667 133.948 79.3685 134.101 80.5713C134.255 81.7742 134.061 82.9671 133.518 84.15C133.113 85.0327 132.621 85.7577 132.04 86.3248C131.468 86.8742 130.821 87.2828 130.1 87.5505C129.405 87.8086 128.662 87.9379 127.871 87.9386C127.106 87.9296 126.315 87.8129 125.499 87.5884C125.456 87.5898 125.413 87.5913 125.369 87.5927C125.344 87.6023 125.323 87.6247 125.306 87.6601L124.857 88.6399C124.647 89.0989 124.318 89.4185 123.873 89.5987C123.435 89.7612 122.986 89.7372 122.527 89.5268C122.068 89.3163 121.758 88.9922 121.595 88.5544C121.441 88.099 121.469 87.6418 121.679 87.1827L122.602 85.1701ZM120.221 94.2064C119.709 93.9717 119.373 93.6571 119.212 93.2628C119.077 92.8589 119.126 92.4009 119.361 91.8889L119.567 91.4387C119.802 90.9267 120.113 90.599 120.499 90.4556C120.911 90.3027 121.373 90.3436 121.885 90.5783L122.229 90.7362C122.741 90.9709 123.065 91.2903 123.2 91.6942C123.361 92.0885 123.324 92.5417 123.09 93.0537L122.883 93.5039C122.648 94.0159 122.325 94.3484 121.913 94.5014C121.527 94.6448 121.078 94.5991 120.566 94.3643L120.221 94.2064Z" fill="#78716C"/>
</svg>
