<svg width="250" height="250" viewBox="0 0 250 250" fill="none" xmlns="http://www.w3.org/2000/svg">
<path d="M0 125C0 55.9644 55.9644 0 125 0V0C194.036 0 250 55.9644 250 125V125C250 194.036 194.036 250 125 250V250C55.9644 250 0 194.036 0 125V125Z" fill="#F8F6EE"/>
<path d="M105.006 192.988L165 158.351L159.998 86.1836L105.006 117.937V192.988Z" fill="#C4A358"/>
<path opacity="0.6" d="M105.006 192.988L165 158.351L159.998 86.1836L105.006 117.937V192.988Z" fill="white"/>
<path d="M105.004 117.936V112.158L90 109.274L144.993 77.5215L149.994 86.1833H159.996L105.004 117.936Z" fill="#C4A358"/>
<path opacity="0.3" d="M104.805 117.724V111.946L89.8008 109.063L144.793 77.3096L149.795 85.9714H159.797L104.805 117.724Z" fill="white"/>
<path d="M144.994 77.5215V94.8452L149.995 91.9614V86.1833L144.994 77.5215Z" fill="#C4A358"/>
<path opacity="0.1" d="M144.994 77.5215V94.8452L149.995 91.9614V86.1833L144.994 77.5215Z" fill="black"/>
<path d="M159.997 86.1836H149.994V91.9617L159.997 86.1836Z" fill="#C4A358"/>
<path opacity="0.2" d="M159.997 86.1836H149.994V91.9617L159.997 86.1836Z" fill="black"/>
<path d="M90.0013 109.275L85 181.443L105.005 192.989V117.937V112.159L90.0013 109.275Z" fill="#C4A358"/>
<path opacity="0.1" d="M90.0013 109.275L85 181.443L105.005 192.989V117.937V112.159L90.0013 109.275Z" fill="black"/>
<path d="M105.006 112.158L95.0039 187.21L105.006 192.988V112.158Z" fill="#C4A358"/>
<path opacity="0.2" d="M105.006 112.158L95.0039 187.21L105.006 192.988V112.158Z" fill="black"/>
<path d="M105.005 192.988L95.8325 180.953L85 181.443L105.005 192.988Z" fill="#C4A358"/>
<path d="M106.217 108.508C106.217 109.487 106.898 109.891 107.749 109.402C108.197 109.108 108.57 108.714 108.838 108.25C109.106 107.786 109.262 107.266 109.292 106.731C109.292 105.752 108.6 105.348 107.749 105.837C107.302 106.131 106.931 106.526 106.665 106.99C106.399 107.454 106.245 107.974 106.217 108.508Z" fill="#37474F"/>
<path d="M126.68 96.963C126.68 97.942 127.371 98.3464 128.223 97.8462C128.671 97.5556 129.045 97.1631 129.313 96.7009C129.581 96.2386 129.736 95.7195 129.766 95.186C129.766 94.207 129.074 93.8026 128.223 94.2921C127.774 94.5851 127.401 94.9795 127.133 95.4435C126.864 95.9075 126.709 96.428 126.68 96.963Z" fill="#37474F"/>
<path d="M107.751 107.391C107.616 107.388 107.488 107.333 107.393 107.238C107.298 107.143 107.243 107.015 107.24 106.88V94.2703C107.24 88.7689 111.944 81.5861 117.732 78.2448C120.925 76.3827 124.01 76.0209 126.128 77.2446C127.82 78.2129 128.746 80.107 128.746 82.5651V95.3344C128.743 95.4709 128.687 95.6008 128.589 95.6963C128.492 95.7918 128.361 95.8452 128.224 95.8452C128.089 95.8452 127.959 95.7914 127.863 95.6956C127.767 95.5998 127.713 95.4699 127.713 95.3344V82.5651C127.713 80.4369 126.979 78.9046 125.585 78.1172C123.798 77.053 121.105 77.4468 118.222 79.1174C112.72 82.3097 108.24 89.0775 108.24 94.249V106.88C108.238 107.011 108.186 107.136 108.096 107.231C108.005 107.326 107.882 107.383 107.751 107.391Z" fill="#37474F"/>
<path d="M121.426 117.17C121.426 118.149 122.117 118.543 122.969 118.053C123.417 117.763 123.791 117.37 124.059 116.908C124.327 116.446 124.482 115.927 124.512 115.393C124.512 114.414 123.82 114.01 122.969 114.499C122.52 114.792 122.147 115.187 121.879 115.651C121.611 116.115 121.455 116.635 121.426 117.17Z" fill="#455A64"/>
<path d="M141.918 105.625C141.918 106.604 142.61 106.998 143.461 106.508C143.909 106.218 144.283 105.825 144.551 105.363C144.819 104.901 144.974 104.382 145.004 103.848C145.004 102.858 144.312 102.465 143.461 102.954C143.011 103.246 142.637 103.64 142.369 104.104C142.1 104.568 141.946 105.09 141.918 105.625Z" fill="#455A64"/>
<path d="M122.988 116.053C122.857 116.051 122.731 115.997 122.638 115.904C122.545 115.811 122.491 115.685 122.488 115.553V102.922C122.488 97.4315 127.192 90.2488 132.98 86.9607C136.173 85.0985 139.258 84.7367 141.376 85.9604C143.057 86.9287 143.983 88.8229 143.983 91.2809V104.05C143.984 104.118 143.972 104.186 143.947 104.249C143.922 104.312 143.885 104.37 143.837 104.418C143.79 104.467 143.733 104.505 143.67 104.532C143.608 104.558 143.54 104.572 143.472 104.572C143.404 104.572 143.336 104.558 143.273 104.532C143.209 104.506 143.152 104.467 143.104 104.419C143.055 104.371 143.017 104.313 142.991 104.25C142.964 104.187 142.951 104.119 142.951 104.05V91.2809C142.951 89.1527 142.227 87.6311 140.823 86.8436C139.035 85.7795 136.353 86.1732 133.459 87.8439C127.958 91.0362 123.489 97.8039 123.489 102.965V115.553C123.483 115.684 123.429 115.808 123.336 115.901C123.244 115.994 123.119 116.048 122.988 116.053Z" fill="#455A64"/>
<path d="M136.918 96.9601C133.782 96.9474 130.698 95.3732 128.565 93.1241C127.572 92.0768 126.758 90.8625 126.206 89.5271C125.699 88.3019 125.315 86.9001 125.458 85.563C125.702 83.2709 127.569 81.6692 129.7 81.0877C130.774 80.7942 131.921 80.7365 133.014 80.9505C134.18 81.1783 135.186 81.7498 136.005 82.6082C136.431 83.0542 136.89 83.6181 136.995 84.2454C137.087 84.7913 136.75 85.2382 136.236 85.4018C135.616 85.5989 134.908 85.422 134.322 85.1931C133.599 84.9104 132.955 84.4989 132.392 83.9661C131.241 82.8775 130.197 81.4964 129.557 80.039C129.005 78.7798 128.883 77.337 128.979 75.9785C129.076 74.5901 129.441 73.1344 130.289 72.0051C131.175 70.8237 132.579 70.1038 133.976 69.7177C135.393 69.3262 136.929 69.2429 138.374 69.5258C138.996 69.6476 139.647 69.8353 140.168 70.2019C140.561 70.4779 141.032 70.9565 140.963 71.499C140.888 72.1039 140.162 72.3839 139.632 72.3904C138.858 72.3995 138.067 72.0285 137.454 71.5791C136.78 71.0841 136.147 70.4532 135.65 69.7793C135.284 69.2822 135.021 68.7092 134.947 68.092C134.639 65.521 137.236 63.4675 139.389 62.6883C139.973 62.4769 140.575 62.352 141.194 62.3119C141.402 62.2983 141.322 62.639 141.154 62.6499C139.976 62.7261 138.826 63.2448 137.865 63.9058C136.932 64.5471 136.082 65.4215 135.67 66.4929C135.256 67.5717 135.482 68.7132 136.204 69.6042C136.698 70.2143 137.279 70.8225 137.929 71.2657C138.472 71.6351 139.265 72.0367 139.943 71.8912C140.142 71.8485 140.384 71.7168 140.428 71.4828C140.481 71.2056 140.237 70.9265 140.085 70.7832C139.7 70.4229 139.165 70.2481 138.66 70.1038C137.403 69.745 136.014 69.7661 134.739 70.0135C133.427 70.2688 132.099 70.8022 131.137 71.7586C130.234 72.6573 129.805 73.9124 129.612 75.1478C129.413 76.4245 129.445 77.7864 129.797 79.035C130.156 80.3066 130.947 81.4609 131.774 82.4728C132.695 83.6007 133.798 84.6449 135.274 84.9461C135.638 85.0205 136.391 85.1013 136.459 84.5749C136.525 84.0569 136.042 83.4874 135.73 83.1317C135.022 82.3231 134.145 81.7441 133.102 81.4785C132.124 81.2297 131.078 81.232 130.094 81.447C128.212 81.8581 126.42 83.123 126.024 85.1058C125.791 86.2673 126.043 87.4863 126.41 88.5937C126.815 89.8179 127.453 90.9622 128.248 91.9755C129.954 94.1484 132.348 95.6239 134.996 96.3576C135.63 96.5332 136.281 96.6624 136.929 96.7798C136.998 96.7944 136.992 96.9604 136.918 96.9601Z" fill="#E0E0E0"/>
<path d="M145.8 60.8089C147.42 60.4637 149.803 61.4241 149.142 62.465C148.481 63.5059 146.168 62.2974 146.168 62.2974C146.168 62.2974 146.63 64.1483 145.972 64.4569C145.315 64.7656 144.153 63.1044 144.662 61.8649C144.662 61.8649 143.694 62.468 142.617 61.8858C141.54 61.3037 142.48 60.4822 143.874 60.409C143.874 60.409 142.436 57.3267 144.512 57.6556C145.538 57.8182 146.055 58.9373 145.8 60.8089Z" fill="#C4A358"/>
<path opacity="0.65" d="M145.8 60.8089C147.42 60.4637 149.803 61.4241 149.142 62.465C148.481 63.5059 146.168 62.2974 146.168 62.2974C146.168 62.2974 146.63 64.1483 145.972 64.4569C145.315 64.7656 144.153 63.1044 144.662 61.8649C144.662 61.8649 143.694 62.468 142.617 61.8858C141.54 61.3037 142.48 60.4822 143.874 60.409C143.874 60.409 142.436 57.3267 144.512 57.6556C145.538 57.8182 146.055 58.9373 145.8 60.8089Z" fill="white"/>
<path d="M144.422 61.7155C144.497 61.6152 144.582 61.52 144.67 61.4303C144.796 61.3009 144.929 61.1772 145.058 61.0511C145.182 60.9308 145.314 60.822 145.453 60.7194C145.533 60.6599 145.616 60.6034 145.701 60.5511C145.832 60.4705 145.949 60.4309 146.106 60.4287C146.251 60.4268 146.4 60.571 146.312 60.7213C146.208 60.9007 146.056 60.9537 145.925 61.0462C145.857 61.0946 145.79 61.1452 145.724 61.1972C145.588 61.3049 145.467 61.4253 145.343 61.5465C145.22 61.6672 145.09 61.7818 144.969 61.9046C144.778 62.0983 144.583 62.2926 144.339 62.4199C144.317 62.4312 144.286 62.4314 144.266 62.4165C144.073 62.2769 144.32 61.8514 144.422 61.7155Z" fill="#455A64"/>
<path d="M127.798 91.8546C127.852 91.7573 127.9 91.6408 127.978 91.5582C127.99 91.5449 127.996 91.5467 127.986 91.5658C127.939 91.6569 127.858 91.7352 127.793 91.813C127.748 91.8664 127.699 91.9184 127.658 91.9749C127.578 92.0847 127.8 91.7434 127.881 91.6345C127.896 91.6144 127.909 91.5965 127.919 91.5731C127.927 91.5552 127.903 91.5919 127.9 91.5959C127.866 91.6335 127.83 91.6691 127.799 91.7091C127.768 91.7496 127.733 91.7851 127.696 91.8204C127.671 91.8447 127.633 91.8612 127.614 91.8908C127.603 91.9071 127.595 91.9251 127.584 91.9407C127.565 91.9666 127.587 91.9172 127.59 91.9113C127.611 91.8689 127.636 91.8276 127.663 91.7886C127.679 91.7653 127.692 91.7385 127.711 91.7177C127.766 91.6564 127.813 91.5884 127.86 91.521C127.864 91.5153 127.872 91.5118 127.878 91.5068C127.89 91.4953 127.842 91.5382 127.838 91.5428C127.792 91.5866 127.749 91.632 127.702 91.6739C127.675 91.6971 127.653 91.7232 127.628 91.748C127.614 91.7622 127.583 91.7854 127.583 91.8062" stroke="#455A64" stroke-width="0.399999" stroke-linecap="round"/>
<path d="M127.559 92C127.641 91.89 127.717 91.7584 127.833 91.6787C127.884 91.6436 127.932 91.5905 127.968 91.5402C127.975 91.5301 127.984 91.518 127.989 91.5065C127.998 91.4812 128.021 91.4577 128.027 91.4321C128.031 91.4177 127.953 91.45 127.947 91.4539C127.933 91.4629 127.919 91.4694 127.907 91.4806C127.853 91.532 127.784 91.5796 127.75 91.6478C127.739 91.6705 127.72 91.696 127.699 91.7119C127.673 91.7331 127.647 91.7579 127.623 91.7821C127.612 91.793 127.6 91.8009 127.587 91.8093C127.56 91.8264 127.538 91.8484 127.513 91.867C127.501 91.8756 127.508 91.8494 127.509 91.845C127.515 91.8274 127.526 91.8088 127.537 91.7941C127.547 91.7813 127.556 91.769 127.568 91.7579C127.587 91.7398 127.621 91.7164 127.634 91.6938C127.641 91.6819 127.653 91.677 127.663 91.6677C127.671 91.6595 127.674 91.6495 127.684 91.6434C127.711 91.6284 127.731 91.5933 127.748 91.5696C127.756 91.5587 127.776 91.551 127.787 91.5412C127.803 91.5271 127.818 91.5129 127.834 91.5001C127.854 91.485 127.863 91.468 127.887 91.4627C127.91 91.4575 127.941 91.4418 127.96 91.4277" stroke="#455A64" stroke-width="0.399999" stroke-linecap="round"/>
<path d="M128.09 92.7517C128.175 92.6262 128.256 92.4928 128.363 92.3852C128.378 92.3704 128.387 92.35 128.401 92.3344C128.41 92.324 128.419 92.3102 128.427 92.2983C128.437 92.2813 128.413 92.3194 128.409 92.3239C128.35 92.3954 128.28 92.4586 128.229 92.5357C128.212 92.561 128.193 92.5842 128.186 92.6138C128.176 92.654 128.164 92.6936 128.155 92.734C128.154 92.7378 128.177 92.7147 128.178 92.7144C128.212 92.6774 128.243 92.6368 128.274 92.5966C128.304 92.5573 128.336 92.5196 128.372 92.4849C128.381 92.4762 128.391 92.4639 128.403 92.4589C128.406 92.4574 128.405 92.4788 128.405 92.4793C128.404 92.5356 128.398 92.5907 128.387 92.6459C128.372 92.7182 128.349 92.7869 128.33 92.8578C128.327 92.8692 128.329 92.8513 128.329 92.8491C128.341 92.7991 128.362 92.7517 128.38 92.7037C128.401 92.6484 128.418 92.5888 128.45 92.5387C128.459 92.526 128.469 92.5129 128.479 92.5011C128.493 92.4836 128.501 92.4717 128.49 92.5052C128.461 92.5984 128.432 92.6919 128.402 92.7848C128.388 92.8284 128.38 92.8735 128.366 92.9172C128.334 93.0177 128.426 92.7152 128.455 92.6138C128.469 92.5656 128.494 92.5259 128.514 92.48C128.519 92.4688 128.52 92.4759 128.52 92.4845C128.52 92.5199 128.521 92.5557 128.518 92.591C128.513 92.6553 128.5 92.7189 128.486 92.7818C128.469 92.8585 128.449 92.9357 128.43 93.012C128.42 93.0546 128.424 93.0988 128.415 93.1411" stroke="#37474F" stroke-width="0.399999" stroke-linecap="round"/>
<path d="M128.51 92.46V93.4521" stroke="#37474F" stroke-width="0.399999" stroke-linecap="round"/>
<path d="M128.533 92.4834V93.4925" stroke="#37474F" stroke-width="0.399999" stroke-linecap="round"/>
<path d="M128.543 92.21V93.473" stroke="#37474F" stroke-width="0.399999" stroke-linecap="round"/>
<path d="M127.727 92.2704C127.867 92.0906 128.006 91.9098 128.149 91.7322C128.158 91.7213 128.171 91.7116 128.177 91.6992" stroke="#455A64" stroke-width="0.399999" stroke-linecap="round"/>
<path d="M127.742 92.4052C127.824 92.3286 127.905 92.2518 127.973 92.1629C128.005 92.1211 128.034 92.0759 128.069 92.0364C128.082 92.0219 128.096 92.0083 128.108 91.9936C128.117 91.9822 128.128 91.9546 128.14 91.9482" stroke="#455A64" stroke-width="0.399999" stroke-linecap="round"/>
<path d="M127.717 92.4496C127.762 92.398 127.808 92.3455 127.856 92.297C127.872 92.2818 127.892 92.2715 127.907 92.2564C127.934 92.2288 127.962 92.197 127.984 92.165C127.997 92.1462 128.007 92.1238 128.025 92.1088C128.045 92.0921 128.071 92.085 128.09 92.0696C128.1 92.0619 128.108 92.0527 128.117 92.0437C128.121 92.0389 128.135 92.0359 128.131 92.0377C128.118 92.0421 128.114 92.0521 128.102 92.0573C128.095 92.0604 128.088 92.065 128.082 92.0711C128.069 92.0844 128.049 92.0965 128.039 92.1119C128.015 92.1454 128.005 92.1935 127.976 92.2226C127.96 92.2388 127.938 92.2537 127.924 92.2718C127.911 92.2893 127.891 92.3042 127.88 92.3238C127.87 92.341 127.864 92.358 127.857 92.3775C127.854 92.3875 127.848 92.3999 127.847 92.4105C127.847 92.4136 127.849 92.398 127.851 92.3949C127.866 92.356 127.9 92.3185 127.926 92.2872C127.959 92.2482 127.996 92.208 128.036 92.1755C128.05 92.1639 128.07 92.1505 128.082 92.1363C128.091 92.1252 128.098 92.1172 128.11 92.1102C128.121 92.1038 128.127 92.0896 128.139 92.0841C128.143 92.0824 128.151 92.0733 128.154 92.0694C128.162 92.059 128.18 92.0502 128.18 92.0352" stroke="#455A64" stroke-width="0.399999" stroke-linecap="round"/>
<path d="M129.02 92.6182C129.016 92.7124 129.012 92.807 128.992 92.8994C128.986 92.9299 128.984 92.9584 128.981 92.989C128.975 93.0412 128.97 93.0896 128.97 93.1419C128.97 93.2048 128.967 93.2688 128.967 93.3307" stroke="#D6BF8A" stroke-width="0.399999" stroke-linecap="round"/>
<path d="M128.947 92.3682V93.3682" stroke="#D6BF8A" stroke-width="0.399999" stroke-linecap="round"/>
<path d="M128.994 92.5371V93.0965" stroke="#D6BF8A" stroke-width="0.399999" stroke-linecap="round"/>
<path d="M128.979 92.5186V92.9154" stroke="#D6BF8A" stroke-width="0.399999" stroke-linecap="round"/>
<path d="M128.953 92.5459V92.9834" stroke="#D6BF8A" stroke-width="0.399999" stroke-linecap="round"/>
<path d="M128.947 92.5498V93.3529" stroke="#D6BF8A" stroke-width="0.399999" stroke-linecap="round"/>
<path d="M128.906 92.5303V92.9146" stroke="#D6BF8A" stroke-width="0.24" stroke-linecap="round"/>
<path d="M128.947 92.6494L128.943 92.6533" stroke="#D6BF8A" stroke-width="0.0799999" stroke-linecap="round"/>
<path d="M128.812 92.543V92.8367" stroke="#D6BF8A" stroke-width="0.0799999" stroke-linecap="round"/>
<path d="M128.807 92.5586V92.9523" stroke="#D6BF8A" stroke-width="0.0799999" stroke-linecap="round"/>
<path d="M128.803 92.5586V92.9242" stroke="#D6BF8A" stroke-width="0.0799999" stroke-linecap="round"/>
<path d="M128.807 92.5648C128.807 92.6614 128.807 92.7581 128.807 92.8547C128.807 92.9559 128.807 92.6523 128.807 92.5511C128.807 92.5432 128.806 92.5521 128.807 92.5537C128.822 92.5705 128.816 92.6004 128.816 92.6216C128.816 92.6458 128.816 92.6699 128.816 92.6941C128.816 92.7531 128.816 92.8121 128.816 92.871" stroke="#D6BF8A" stroke-width="0.0799999" stroke-linecap="round"/>
<path d="M128.811 92.5615V92.7646" stroke="#D6BF8A" stroke-width="0.0799999" stroke-linecap="round"/>
<path d="M128.812 92.5586V92.8305" stroke="#D6BF8A" stroke-width="0.0799999" stroke-linecap="round"/>
<path d="M128.803 92.553C128.803 92.7999 128.803 93.0467 128.803 93.2936C128.803 93.3122 128.803 93.3308 128.803 93.3493C128.803 93.3664 128.803 93.3656 128.803 93.35C128.803 93.2195 128.803 93.089 128.803 92.9585C128.803 92.8526 128.803 92.7467 128.803 92.6408C128.803 92.6168 128.803 92.5927 128.803 92.5686C128.803 92.5474 128.816 92.5539 128.837 92.553" stroke="#D6BF8A" stroke-width="0.0799999" stroke-linecap="round"/>
<path d="M128.819 92.5527C128.819 92.7885 128.819 93.0243 128.819 93.26C128.819 93.2884 128.819 93.3451 128.819 93.3451C128.819 93.3451 128.819 93.321 128.819 93.309C128.819 93.3022 128.81 93.3014 128.804 93.2998C128.803 93.2993 128.801 93.2997 128.8 93.3012C128.791 93.3126 128.797 93.2719 128.797 93.2572C128.797 93.236 128.797 93.2147 128.797 93.1934" stroke="#D6BF8A" stroke-width="0.0799999" stroke-linecap="round"/>
<path d="M128.787 93.0811V93.2998" stroke="#D6BF8A" stroke-width="0.0799999" stroke-linecap="round"/>
<path d="M128.785 92.5742V93.3023" stroke="#D6BF8A" stroke-width="0.0799999" stroke-linecap="round"/>
<path d="M128.797 93.0303V93.299" stroke="#D6BF8A" stroke-width="0.0799999" stroke-linecap="round"/>
<path d="M128.803 93.0303V93.299" stroke="#D6BF8A" stroke-width="0.0799999" stroke-linecap="round"/>
<path d="M128.797 93.3024C128.797 93.0545 128.797 92.3108 128.797 92.5587" stroke="#D6BF8A" stroke-width="0.0799999" stroke-linecap="round"/>
<path d="M128.803 93.1777V93.3027" stroke="#D6BF8A" stroke-width="0.0799999" stroke-linecap="round"/>
<path d="M128.787 93.1523V93.293" stroke="#D6BF8A" stroke-width="0.0799999" stroke-linecap="round"/>
<path d="M128.801 92.5869V93.2963" stroke="#D6BF8A" stroke-width="0.0799999" stroke-linecap="round"/>
<path d="M129.916 93.1576C129.916 93.2668 129.917 93.3761 129.916 93.4854C129.916 93.5178 129.921 93.5702 129.912 93.6056C129.907 93.6258 129.903 93.6514 129.891 93.6688C129.874 93.6945 129.865 93.6163 129.865 93.6143C129.845 93.5206 129.824 93.427 129.803 93.3334C129.799 93.316 129.797 93.2684 129.783 93.2542C129.769 93.2403 129.748 93.2332 129.733 93.2204C129.637 93.14 129.615 92.9933 129.508 92.9224C129.446 92.8813 129.384 92.888 129.338 92.9507C129.288 93.0183 129.237 93.1279 129.236 93.2149C129.235 93.2525 129.236 93.2902 129.236 93.3279C129.236 93.3393 129.243 93.3062 129.246 93.2952C129.274 93.1931 129.296 93.0891 129.319 92.9857C129.319 92.984 129.34 92.8815 129.338 92.8818C129.311 92.8879 129.267 92.9825 129.254 93.004C129.22 93.0611 129.191 93.121 129.162 93.1806C129.153 93.198 129.14 93.2208 129.136 93.2403C129.126 93.2936 129.126 93.3617 129.104 93.4114C129.053 93.5221 129.177 93.5822 129.243 93.6446C129.268 93.6676 129.315 93.6729 129.343 93.6947C129.397 93.7364 129.457 93.7705 129.512 93.8089C129.529 93.821 129.549 93.8325 129.56 93.8514C129.579 93.8871 129.602 93.9205 129.621 93.9565C129.63 93.9727 129.639 94.0027 129.653 94.0154C129.661 94.023 129.691 94.0284 129.702 94.0345C129.779 94.0776 129.845 94.136 129.912 94.1928C129.962 94.2356 130.01 94.2811 130.063 94.3193C130.076 94.3291 130.144 94.3813 130.115 94.3353C130.033 94.2035 129.939 94.0788 129.855 93.9481C129.796 93.8571 129.744 93.7611 129.682 93.6724C129.657 93.6367 129.614 93.6217 129.584 93.5912C129.555 93.5627 129.525 93.5416 129.497 93.5085C129.472 93.477 129.445 93.4254 129.408 93.4066C129.401 93.403 129.37 93.3963 129.367 93.3923C129.339 93.3588 129.388 93.2801 129.418 93.2682C129.486 93.2413 129.579 93.2578 129.651 93.2578" stroke="#D6BF8A" stroke-width="0.319999" stroke-linecap="round"/>
<path d="M130.074 93.7775C130.177 93.9004 130.269 94.0332 130.363 94.1629C130.38 94.186 130.446 94.2542 130.448 94.2968C130.45 94.3237 130.45 94.353 130.448 94.3799C130.446 94.407 130.423 94.3315 130.414 94.306C130.348 94.1289 130.295 93.9483 130.245 93.7659C130.188 93.5531 130.063 92.9192 130.037 93.1381C129.992 93.5307 130.108 93.9711 130.252 94.3314C130.308 94.4717 130.375 94.5988 130.411 94.7446C130.42 94.7805 130.428 94.8038 130.428 94.8415C130.428 94.9648 130.465 94.5975 130.474 94.4745C130.482 94.3556 130.58 94.0111 130.49 93.8859C130.44 93.8164 130.328 94.1826 130.319 94.2091C130.277 94.3348 130.247 94.4597 130.215 94.5876C130.19 94.6869 130.179 94.6167 130.178 94.5484C130.176 94.3273 130.171 94.1037 130.194 93.8836C130.215 93.694 130.371 93.9789 130.409 94.0314C130.697 94.4287 130.941 94.8544 131.192 95.2755C131.192 95.2758 131.235 95.3587 131.235 95.3332C131.235 95.2082 131.197 95.0745 131.173 94.9535C131.134 94.7559 131.095 94.5572 131.043 94.3626C131.035 94.3358 131.014 94.1988 130.979 94.1791C130.974 94.1762 130.938 94.5483 130.935 94.5715C130.92 94.7237 130.908 94.8507 130.86 94.6165C130.773 94.1823 130.732 93.7247 130.606 93.2997C130.603 93.2889 130.595 93.2493 130.585 93.2824C130.576 93.3104 130.574 93.372 130.573 93.3943C130.565 93.5438 130.557 93.6936 130.553 93.8432C130.549 94.0308 130.524 94.2154 130.533 94.403C130.538 94.5253 130.589 94.6176 130.612 94.7319C130.615 94.7446 130.615 94.8409 130.615 94.785C130.615 94.7121 130.907 94.7524 130.961 94.7861C131.364 95.0383 131.722 95.3748 132.096 95.6667C132.176 95.7289 132.282 95.7904 132.349 95.8687C132.361 95.8822 132.212 95.7974 132.207 95.7936C131.996 95.6416 131.787 95.4286 131.647 95.2074C131.609 95.1471 131.634 95.2195 131.695 95.2316" stroke="#D6BF8A" stroke-width="0.319999" stroke-linecap="round"/>
<path d="M137.096 95.2737V95.2529" stroke="#D6BF8A" stroke-width="0.799999" stroke-linecap="round"/>
<path d="M132.796 95.2523C132.902 95.5711 132.983 95.8298 132.983 96.1629C132.983 96.2394 133.015 96.4813 132.943 96.2771C132.761 95.754 132.647 95.21 132.468 94.6868C132.446 94.6232 132.428 94.5369 132.343 94.5714C132.213 94.6245 132.233 94.9935 132.226 95.0953C132.212 95.2738 132.259 95.8041 132.209 95.632C132.116 95.3069 131.953 95.0027 131.829 94.6891C131.827 94.6861 131.798 94.5856 131.787 94.5922C131.743 94.6175 131.74 94.7595 131.732 94.7999C131.721 94.8494 131.683 95.171 131.633 95.1958C131.625 95.2001 131.632 95.1765 131.631 95.1669C131.626 95.0898 131.619 95.0129 131.612 94.9361C131.599 94.8072 131.587 94.6787 131.561 94.5518C131.552 94.5115 131.549 94.4795 131.549 94.5506C131.549 94.7191 131.549 94.8876 131.549 95.0561C131.549 95.0867 131.573 95.4602 131.519 95.3492C131.382 95.0674 131.32 94.7653 131.249 94.4629C131.201 94.2584 131.153 94.7001 131.145 94.7491C131.139 94.7896 131.138 95.0238 131.083 95.0238C130.985 95.0238 130.91 94.9407 130.822 94.9407C130.774 94.9407 130.786 94.9342 130.779 94.8703C130.779 94.8652 130.76 94.8235 130.764 94.8207C130.832 94.7821 131.021 94.8324 131.083 94.8461C131.635 94.9676 132.114 95.3361 132.643 95.527C133.193 95.725 133.745 95.9302 134.305 96.0948C134.531 96.1612 134.748 96.2587 134.963 96.3556C135.116 96.4244 135.273 96.4712 135.408 96.5726C135.464 96.6142 135.272 96.5439 135.206 96.5218C134.923 96.4264 134.642 96.3273 134.351 96.254C133.856 96.1293 132.312 96.1403 132.822 96.1686C133.792 96.2225 134.778 96.4111 135.72 96.6372C136.39 96.7981 137.073 96.9907 137.726 97.2165C137.736 97.2201 137.848 97.2269 137.839 97.2154C137.806 97.1739 137.573 97.2054 137.537 97.205C137.257 97.2016 136.984 97.1761 136.714 97.1023C136.612 97.0746 136.38 97.0456 136.352 96.9096C136.331 96.8048 136.348 96.6842 136.369 96.5818" stroke="#D6BF8A" stroke-width="0.799999" stroke-linecap="round"/>
</svg>
