<svg width="230" height="230" viewBox="0 0 230 230" fill="none" xmlns="http://www.w3.org/2000/svg">
<path d="M0 115C0 51.4873 51.4873 0 115 0C178.513 0 230 51.4873 230 115C230 178.513 178.513 230 115 230C51.4873 230 0 178.513 0 115Z" fill="#F8F6EE"/>
<path d="M81.7441 230L95.1445 200.106L87.3806 174.43C85.0345 166.648 85.5861 158.281 88.9333 150.875L101.991 122.949L111.051 118.193L132.564 114.494C133.389 114.769 153.349 125.229 153.349 125.229C157.264 127.448 160.777 130.311 163.742 133.696L145.218 198.333C145.218 198.333 149.259 211.085 153.221 230H81.7441Z" fill="#C4A358"/>
<g opacity="0.3">
<path d="M142.5 165.919C140.829 172.399 139.158 178.879 137.487 185.359C137.176 186.552 136.791 187.854 135.751 188.514C134.998 188.907 134.155 189.096 133.306 189.064L108.896 190.226C107.524 190.225 106.159 190.431 104.849 190.837C104.194 191.044 103.593 191.394 103.091 191.863C102.588 192.331 102.197 192.906 101.945 193.545C101.254 195.642 102.685 197.825 104.109 199.487C116.336 213.97 133.324 223.421 152.172 225.549L146.126 193.111L148.669 180.402L142.5 165.919Z" fill="black"/>
</g>
<path d="M107.352 179.089L107.706 179.126L108.721 179.266C109.607 179.388 110.885 179.56 112.462 179.749C115.629 180.134 120.006 180.568 124.86 180.837C129.714 181.106 134.122 181.143 137.307 181.1C138.902 181.1 140.192 181.057 141.079 181.027H142.106L141.085 181.076C140.192 181.125 138.902 181.161 137.307 181.192C134.122 181.253 129.714 181.229 124.854 180.966C119.994 180.703 115.617 180.244 112.456 179.835C110.873 179.633 109.595 179.456 108.715 179.315L107.7 179.156L107.352 179.089Z" fill="#FAFAFA"/>
<path d="M87.1465 165.408C87.1465 165.408 87.336 165.408 87.7028 165.445L89.3106 165.573L95.2099 166.032C100.192 166.399 107.076 166.845 114.693 167.163C122.31 167.481 129.212 167.627 134.213 167.676L140.13 167.719H141.738H142.294C142.294 167.719 142.105 167.719 141.738 167.719H140.13C138.73 167.719 136.707 167.719 134.213 167.719C129.212 167.688 122.31 167.566 114.687 167.242C107.064 166.918 100.18 166.466 95.1977 166.068C92.7096 165.873 90.6922 165.702 89.3045 165.573L87.7028 165.42L87.1465 165.408Z" fill="#FAFAFA"/>
<path d="M92.2148 153.672L92.7283 153.703L94.1894 153.807L99.5813 154.198C104.136 154.51 110.432 154.889 117.395 155.158C124.358 155.427 130.661 155.531 135.228 155.567L140.632 155.598C139.354 155.598 137.508 155.598 135.228 155.598C130.661 155.598 124.352 155.488 117.389 155.219C110.426 154.95 104.13 154.565 99.5752 154.228C97.3011 154.057 95.461 153.911 94.1894 153.794L92.7223 153.666L92.2148 153.672Z" fill="#FAFAFA"/>
<path d="M95.4297 143.496C95.4297 143.459 97.4104 143.496 99.8496 143.532C102.289 143.569 104.276 143.661 104.276 143.697C104.276 143.734 102.295 143.697 99.8496 143.661C97.4043 143.624 95.4236 143.532 95.4297 143.496Z" fill="#FAFAFA"/>
<path d="M132.131 138.456H132.296H132.785L134.564 138.401L140.451 138.278L146.332 138.193H148.6C148.657 138.183 148.715 138.183 148.771 138.193H148.6H148.117L146.332 138.242L140.451 138.364L134.57 138.449H132.785H132.131V138.456Z" fill="#FAFAFA"/>
<path d="M84.2031 224.518H84.8939L86.8746 224.586L94.1555 224.824C100.305 224.995 108.827 225.154 118.187 225.124C127.546 225.093 136.068 224.873 142.218 224.653L149.499 224.372L151.474 224.286C151.926 224.286 152.164 224.286 152.164 224.286L151.48 224.329L149.499 224.439C147.781 224.531 145.293 224.641 142.224 224.763C136.074 225.008 127.552 225.234 118.187 225.27C108.821 225.307 100.299 225.13 94.1555 224.928C91.0989 224.83 88.5925 224.732 86.8746 224.653L84.8939 224.561L84.2031 224.518Z" fill="#FAFAFA"/>
<path d="M90.0684 212.543C90.0684 212.506 103.322 212.8 119.657 213.197C135.991 213.595 149.245 213.943 149.245 213.98C149.245 214.016 135.997 213.723 119.657 213.326C103.316 212.928 90.0684 212.543 90.0684 212.543Z" fill="#FAFAFA"/>
<path d="M95.1504 200.113H95.67H97.1678L102.67 200.205C107.328 200.297 113.759 200.462 120.863 200.725C127.966 200.987 134.392 201.336 139.031 201.66C141.355 201.837 143.237 201.972 144.533 202.1L146.025 202.247L146.545 202.302L146.025 202.271L144.527 202.155C143.231 202.039 141.348 201.917 139.025 201.752C134.373 201.452 127.948 201.14 120.851 200.853C113.753 200.566 107.322 200.407 102.664 200.291L97.1616 200.162L95.6639 200.126L95.1504 200.113Z" fill="#FAFAFA"/>
<path d="M105.34 121.85C105.34 121.85 86.6026 126.001 84.4263 146.156L82.1094 166.752L90.13 169.198L105.34 121.85Z" fill="#C4A358"/>
<path d="M87.8574 172.971C87.7938 172.878 87.7463 172.774 87.7168 172.665C87.6434 172.457 87.5089 172.152 87.3867 171.742C87.0407 170.594 86.8234 169.411 86.7387 168.215C86.5391 164.238 87.3487 160.276 89.0923 156.697C89.5936 155.652 90.156 154.655 90.7123 153.732C91.2686 152.809 91.7943 151.898 92.2712 151.018C93.1201 149.472 93.8241 147.851 94.3741 146.176C94.851 144.745 95.1933 143.572 95.4378 142.765C95.554 142.392 95.6518 142.08 95.7313 141.835C95.7547 141.724 95.796 141.616 95.8535 141.518C95.8428 141.631 95.8224 141.744 95.7924 141.854C95.7313 142.104 95.6518 142.416 95.5601 142.795C95.3462 143.614 95.0405 144.8 94.5942 146.249C94.0617 147.941 93.3698 149.579 92.5279 151.14C92.0572 152.02 91.5315 152.931 90.9813 153.873C90.4311 154.814 89.8809 155.78 89.3796 156.813C87.6529 160.346 86.8135 164.247 86.9343 168.178C87.0047 169.364 87.1868 170.541 87.4783 171.693C87.7596 172.518 87.8818 172.965 87.8574 172.971Z" fill="#263238"/>
<path d="M105.338 121.206L111.733 117.862H140.593L147.245 121.726C147.245 121.726 119.38 152.58 113.554 153.43C98.8886 155.557 105.338 121.206 105.338 121.206Z" fill="#FFBE9D"/>
<path d="M89.5781 132.594C89.5781 132.563 92.6653 132.453 96.4739 132.349C100.282 132.245 103.376 132.196 103.376 132.233C103.376 132.269 100.289 132.38 96.48 132.477C92.6714 132.575 89.5781 132.63 89.5781 132.594Z" fill="#FAFAFA"/>
<path d="M84.4941 148.083C84.6101 148.074 84.7266 148.074 84.8426 148.083L85.7718 148.162C86.5604 148.235 87.6425 148.321 88.8285 148.388C90.0144 148.455 91.1209 148.48 91.8851 148.492H92.8204C92.9342 148.481 93.0489 148.481 93.1628 148.492C93.0496 148.511 92.9351 148.521 92.8204 148.523C92.6003 148.523 92.2825 148.523 91.8851 148.523C91.0965 148.523 90.0022 148.523 88.7979 148.449C87.5936 148.376 86.5054 148.284 85.7413 148.193C85.35 148.144 85.0321 148.107 84.8181 148.07C84.7111 148.088 84.6022 148.092 84.4941 148.083Z" fill="#FAFAFA"/>
<path d="M163.785 133.722C169.44 139.633 171.048 147.073 171.048 153.853V185.875L142.15 185.319L143.141 156.904" fill="#C4A358"/>
<path d="M143.151 148.65C143.137 148.563 143.137 148.475 143.151 148.388C143.151 148.21 143.23 147.96 143.31 147.642C143.548 146.735 143.856 145.848 144.233 144.989C145.445 142.128 147.261 139.562 149.557 137.469C152.247 135.024 155.396 133.654 157.762 133.373C158.698 133.248 159.649 133.283 160.574 133.477C160.823 133.529 161.069 133.601 161.307 133.691C161.392 133.717 161.474 133.752 161.552 133.795C160.322 133.492 159.046 133.425 157.792 133.599C154.779 134.173 151.993 135.599 149.765 137.708C146.839 140.435 144.659 143.865 143.432 147.672C143.255 148.302 143.175 148.657 143.151 148.65Z" fill="#263238"/>
<path d="M171.06 185.874C171.012 185.884 170.962 185.884 170.914 185.874H168.823L162.71 185.801L142.163 185.477H142.004V185.318C142.004 184.542 142.047 183.716 142.071 182.873C142.322 174.229 142.554 166.409 142.719 160.718C142.823 157.9 142.903 155.613 142.958 153.993C142.988 153.223 143.019 152.612 143.037 152.159V151.688C143.031 151.634 143.031 151.578 143.037 151.523C143.042 151.578 143.042 151.634 143.037 151.688V152.165C143.037 152.605 143.037 153.217 143.037 153.999C143.037 155.613 142.958 157.9 142.903 160.724C142.762 166.409 142.56 174.235 142.346 182.873C142.346 183.704 142.297 184.53 142.279 185.318L142.12 185.153L162.636 185.599L168.749 185.764L170.412 185.826H170.84L171.06 185.874Z" fill="#263238"/>
<path d="M143.117 177.169C143.117 177.132 149.365 177.169 157.068 177.285C164.77 177.401 171.024 177.493 171.024 177.524C171.024 177.554 164.777 177.524 157.068 177.413C149.359 177.303 143.117 177.206 143.117 177.169Z" fill="#FAFAFA"/>
<path d="M143.279 162.008H143.56L144.361 162.069L147.314 162.283C149.802 162.467 153.25 162.681 157.059 162.846C160.867 163.011 164.321 163.078 166.84 163.109L169.799 163.139H166.84C164.34 163.139 160.886 163.072 157.059 162.907C153.232 162.742 149.802 162.516 147.314 162.295L144.361 162.039L143.56 161.953L143.279 162.008Z" fill="#FAFAFA"/>
<path d="M143.99 149.538C143.99 149.538 145.366 149.043 147.658 148.462C153.636 146.966 159.821 146.47 165.961 146.995C168.315 147.203 169.752 147.472 169.752 147.472C169.752 147.472 169.66 147.472 169.483 147.472L168.731 147.38C168.077 147.294 167.129 147.197 165.955 147.105C159.823 146.629 153.654 147.125 147.677 148.572C146.533 148.847 145.61 149.098 144.981 149.281L144.253 149.495L143.99 149.538Z" fill="#FAFAFA"/>
<path d="M87.6938 173.494L79.7955 158.92H55.7642L55 160.369L75.345 194.188L98.3737 195.301L87.6938 173.494Z" fill="#263238"/>
<path d="M86.9358 174.95L79.0374 160.376H55L74.5808 195.644L97.6157 196.751L86.9358 174.95Z" fill="#455A64"/>
<path d="M67.2135 166.483C67.4014 166.638 67.6312 166.733 67.8734 166.756C68.1156 166.779 68.3592 166.73 68.5731 166.614C68.787 166.498 68.9614 166.321 69.074 166.105C69.1867 165.889 69.2324 165.645 69.2053 165.403C69.1782 165.161 69.0796 164.933 68.9221 164.748C68.7646 164.562 68.5553 164.428 68.3211 164.362C68.0869 164.296 67.8383 164.302 67.6072 164.378C67.3761 164.454 67.1731 164.598 67.024 164.79C66.829 165.041 66.7398 165.359 66.7752 165.675C66.8106 165.991 66.9678 166.281 67.2135 166.483Z" fill="#EBEBEB"/>
<path d="M169.502 185.876V207.035C169.531 209.266 169.107 211.48 168.253 213.542C167.4 215.604 166.136 217.471 164.538 219.029C162.772 220.761 160.519 221.913 158.081 222.331C155.643 222.75 153.135 222.415 150.893 221.371L101.932 196.514L106.731 177.807L146.118 192.68L146.522 185.626L169.502 185.876Z" fill="#FFBE9D"/>
<path d="M109.632 179.786L105.83 175.066C104.591 173.537 103.026 172.304 101.249 171.457C99.4717 170.611 97.5278 170.173 95.5595 170.176H92.24L89.9781 172.725C89.9781 172.725 73.6984 173.41 73.1237 175.421V176.032V176.411L87.0253 177.347C87.0253 177.347 75.2022 177.31 74.4931 177.347C73.784 177.383 71.1919 177.151 71.247 178.539C71.2897 179.682 72.6347 180.581 74.6826 180.88C75.5201 181.003 85.766 181.889 85.766 181.889L74.487 181.785C73.2277 181.785 73.3866 183.809 74.1385 184.059C74.7499 184.261 89.1711 188.473 89.1711 188.473C89.1711 188.473 86.7258 190.105 84.7634 189.965C82.8011 189.824 79.3837 187.269 78.6501 188.473C77.9166 189.677 78.0816 190.387 78.5095 190.668C78.9375 190.949 83.6019 193.358 85.1608 193.786C86.7197 194.214 99.4353 196.231 99.4353 196.231L104.026 196.971L109.632 179.786Z" fill="#FFBE9D"/>
<path d="M58.3488 166.074C58.3488 166.074 55.8362 166.955 57.1261 170.182C58.3431 173.15 60.0685 175.883 62.2246 178.258C62.1116 178.786 62.1453 179.334 62.322 179.844C62.4988 180.354 62.8118 180.805 63.2272 181.15C63.2272 181.15 61.4482 181.596 62.5608 184.598C62.3925 185.027 62.3139 185.487 62.3298 185.948C62.3458 186.409 62.4559 186.862 62.6535 187.279C62.8511 187.696 63.1319 188.068 63.4787 188.372C63.8255 188.676 64.2308 188.907 64.6699 189.048C64.6699 189.048 63.7835 191.61 67.0113 192.832C70.2391 194.055 73.3508 191.94 73.3508 191.94L58.3488 166.074Z" fill="#FFBE9D"/>
<path d="M63.4756 177.989C65.7559 178.601 68.2684 179.096 70.3775 179.897C71.0744 180.16 71.7652 180.172 72.2115 180.759C72.4569 181.039 72.5957 181.396 72.6035 181.769C72.6113 182.141 72.4877 182.504 72.2543 182.794C71.9946 182.987 71.6957 183.12 71.3788 183.185C71.0619 183.249 70.7346 183.243 70.4203 183.167C67.9837 182.785 65.5985 182.126 63.3105 181.205" fill="#FFBE9D"/>
<path d="M64.385 181.801C66.6653 182.412 69.1778 182.907 71.293 183.708C71.9838 183.977 72.6746 183.989 73.127 184.57C73.3729 184.851 73.5119 185.21 73.5197 185.583C73.5275 185.957 73.4037 186.321 73.1698 186.612C72.9093 186.803 72.6104 186.936 72.2938 187C71.9771 187.064 71.6503 187.059 71.3358 186.985C68.9038 186.603 66.5228 185.946 64.2383 185.029" fill="#FFBE9D"/>
<path d="M65.6638 185.723C67.9502 186.334 70.4566 186.829 72.5718 187.63C73.2687 187.893 73.9534 187.911 74.4058 188.492C74.6492 188.773 74.7861 189.131 74.7928 189.503C74.7996 189.875 74.6756 190.238 74.4424 190.528C74.1829 190.721 73.8841 190.854 73.5671 190.919C73.2501 190.983 72.9228 190.977 72.6085 190.901C70.1834 190.513 67.8091 189.857 65.5293 188.944" fill="#FFBE9D"/>
<path d="M63.4531 181.283C63.4898 181.192 65.1037 181.754 67.1211 182.316C69.1385 182.879 70.7891 183.233 70.7891 183.337C68.236 183.122 65.7468 182.425 63.4531 181.283Z" fill="#EB996E"/>
<path d="M63.0371 184.658C64.448 184.983 65.8416 185.379 67.2125 185.844C69.5111 186.517 71.394 187 71.3756 187.104C68.4914 186.701 65.6819 185.877 63.0371 184.658Z" fill="#EB996E"/>
<path d="M64.5039 188.981C65.833 189.13 67.1464 189.396 68.4286 189.776C69.7389 190.046 71.0234 190.428 72.2678 190.919C70.938 190.775 69.6242 190.509 68.343 190.125C67.0319 189.858 65.7471 189.476 64.5039 188.981Z" fill="#EB996E"/>
<path d="M61.5586 177.524C61.5953 177.426 63.6188 178.135 66.1619 178.746C68.705 179.358 70.808 179.792 70.7896 179.896C70.3198 179.925 69.8483 179.885 69.3897 179.78C68.2745 179.607 67.1686 179.378 66.0763 179.095C64.9812 178.816 63.9018 178.479 62.8424 178.086C62.3894 177.962 61.9569 177.773 61.5586 177.524Z" fill="#EB996E"/>
<path d="M84.4277 172.909C86.3209 172.722 88.2237 172.653 90.1253 172.701C92.0298 172.631 93.9368 172.68 95.8351 172.848C93.9399 173.034 92.0351 173.103 90.1314 173.055C88.229 173.125 86.3241 173.076 84.4277 172.909Z" fill="#EB996E"/>
<path d="M151.774 205.419C151.712 205.419 151.816 204.6 151.731 203.292C151.685 202.528 151.576 201.769 151.407 201.024C151.195 200.112 150.904 199.22 150.539 198.358C150.156 197.506 149.702 196.688 149.181 195.913C148.748 195.282 148.266 194.688 147.739 194.134C146.834 193.18 146.174 192.703 146.21 192.654C146.387 192.733 146.552 192.836 146.699 192.96C147.135 193.263 147.544 193.603 147.922 193.975C148.482 194.519 148.991 195.112 149.444 195.748C149.993 196.53 150.466 197.363 150.857 198.236C151.233 199.116 151.522 200.031 151.719 200.968C151.876 201.731 151.964 202.507 151.981 203.285C151.998 203.81 151.974 204.336 151.908 204.857C151.893 205.05 151.848 205.24 151.774 205.419Z" fill="#EB996E"/>
<path d="M80.9323 87.9122C83.8361 84.4276 87.394 80.8574 87.5163 76.2968C87.5835 73.882 86.7093 71.1738 88.1276 69.242C89.3869 67.5608 91.8873 67.2918 93.2994 65.739C95.1884 63.6666 94.3754 60.3959 95.0234 57.6694C95.7264 54.6983 98.2695 52.4119 101.137 51.3604C104.004 50.3089 107.14 50.3272 110.172 50.6757L113.015 113.167C111.627 111.65 108.02 111.015 106.101 111.742C104.181 112.47 102.378 113.662 100.33 113.827C95.7264 114.206 92.4925 109.609 88.5617 107.194C84.8081 104.889 79.6607 104.137 77.5944 100.261C75.4854 96.2753 78.0224 91.3969 80.9323 87.9122Z" fill="#263238"/>
<path d="M89.5202 107.693C88.9777 107.578 88.4589 107.371 87.9857 107.082C87.3706 106.667 86.9146 106.056 86.6924 105.349C86.4703 104.641 86.4952 103.879 86.7631 103.187C87.0565 102.289 87.8757 101.647 88.8416 101.023C89.3725 100.696 89.8455 100.283 90.2415 99.8007C90.6682 99.2498 90.8849 98.565 90.8529 97.8689C90.7795 96.4628 90.052 95.2401 89.5935 93.9563C89.3374 93.3239 89.1946 92.6514 89.1717 91.9695C89.1859 91.2783 89.3981 90.6057 89.783 90.0315C90.6329 88.8967 91.6834 87.927 92.8825 87.1705C94.0287 86.4153 95.0779 85.5221 96.0064 84.5111C97.5446 82.7426 98.5791 80.5932 99.0018 78.2877C99.2995 76.7492 99.2995 75.1679 99.0018 73.6293C98.9247 73.2142 98.8165 72.8055 98.6779 72.4067C98.6425 72.2621 98.5847 72.1239 98.5067 71.9971C98.4455 71.9971 98.6473 72.6084 98.7818 73.666C99.0195 75.545 98.854 77.453 98.2964 79.263C97.7388 81.073 96.8018 82.7433 95.5479 84.1627C94.6355 85.1344 93.6092 85.9924 92.4912 86.7181C91.2273 87.5116 90.1223 88.5337 89.2328 89.732C88.7984 90.3958 88.5629 91.17 88.5543 91.9633C88.5777 92.7121 88.7329 93.4509 89.0128 94.1458C89.5141 95.4846 90.2354 96.6829 90.2782 97.8933C90.3187 98.4693 90.1541 99.041 89.8136 99.5073C89.4562 99.9489 89.0287 100.329 88.5481 100.632C88.0754 100.945 87.6297 101.297 87.2155 101.684C86.6975 102.211 86.3509 102.882 86.2211 103.61C86.0913 104.338 86.1843 105.087 86.488 105.761C86.788 106.389 87.2692 106.913 87.8696 107.265C88.2442 107.491 88.6597 107.641 89.0922 107.705C89.2341 107.732 89.3801 107.728 89.5202 107.693Z" fill="#455A64"/>
<path d="M112.298 121.575L112.493 111.091C112.493 111.091 102.101 109.55 99.6555 96.0335C98.4634 89.3087 98.604 78.2558 99.0442 69.2141C99.411 61.0772 108.031 52.7997 116.161 53.5149L142.528 58.045V62.4221L141.8 122.028C141.754 125.905 140.181 129.607 137.423 132.333C134.666 135.059 130.945 136.588 127.067 136.59C125.106 136.593 123.164 136.205 121.354 135.449C119.545 134.693 117.904 133.583 116.529 132.185C115.153 130.787 114.071 129.128 113.344 127.306C112.618 125.485 112.262 123.536 112.298 121.575Z" fill="#FFBE9D"/>
<path d="M103.217 78.5989C103.22 79.0531 103.401 79.4879 103.721 79.8102C104.041 80.1324 104.474 80.3165 104.929 80.3229C105.149 80.3361 105.371 80.305 105.579 80.2316C105.788 80.1581 105.98 80.0438 106.144 79.8951C106.308 79.7465 106.441 79.5667 106.534 79.3662C106.628 79.1656 106.681 78.9484 106.689 78.7273C106.686 78.2742 106.506 77.8403 106.187 77.5182C105.869 77.1961 105.437 77.0113 104.984 77.0033C104.762 76.9893 104.54 77.0197 104.331 77.0928C104.121 77.1658 103.929 77.2801 103.764 77.4288C103.599 77.5775 103.466 77.7576 103.372 77.9585C103.278 78.1595 103.225 78.3772 103.217 78.5989Z" fill="#263238"/>
<path d="M101.548 74.9222C101.768 75.1423 103.064 74.1458 104.934 74.1153C106.805 74.0847 108.193 75.0017 108.394 74.7633C108.492 74.6655 108.266 74.2559 107.661 73.834C106.835 73.2847 105.859 73.005 104.867 73.0332C103.895 73.045 102.952 73.3686 102.177 73.9563C101.627 74.4087 101.437 74.8183 101.548 74.9222Z" fill="#263238"/>
<path d="M120.404 78.1077C120.407 78.5619 120.588 78.9967 120.908 79.319C121.228 79.6412 121.662 79.8253 122.116 79.8317C122.337 79.8457 122.559 79.8153 122.768 79.7421C122.977 79.669 123.169 79.5547 123.333 79.4059C123.498 79.2571 123.63 79.077 123.724 78.876C123.817 78.6751 123.869 78.4575 123.877 78.2361C123.874 77.783 123.693 77.3491 123.375 77.027C123.056 76.7048 122.624 76.5201 122.171 76.5121C121.95 76.4981 121.728 76.5285 121.518 76.6016C121.309 76.6746 121.116 76.7889 120.951 76.9376C120.787 77.0862 120.654 77.2664 120.56 77.4673C120.466 77.6683 120.413 77.886 120.404 78.1077Z" fill="#263238"/>
<path d="M119.933 74.9438C120.154 75.17 121.456 74.1674 123.326 74.1429C125.197 74.1185 126.585 75.0232 126.78 74.7909C126.878 74.687 126.652 74.2835 126.047 73.8617C125.231 73.3106 124.262 73.0304 123.277 73.0608C122.304 73.0726 121.36 73.3938 120.581 73.9778C120.019 74.4302 119.83 74.8459 119.933 74.9438Z" fill="#263238"/>
<path d="M113.416 88.9336C113.416 88.8236 112.261 88.6463 110.36 88.4384C109.877 88.3956 109.424 88.31 109.339 87.986C109.291 87.4945 109.393 87 109.632 86.5677C110.06 85.4001 110.512 84.1835 110.983 82.8997C112.817 77.685 114.193 73.3995 113.985 73.3261C113.777 73.2528 112.09 77.4221 110.219 82.6307L108.929 86.2987C108.639 86.8796 108.563 87.5443 108.715 88.1755C108.789 88.3422 108.899 88.4901 109.038 88.6086C109.177 88.727 109.34 88.813 109.516 88.8602C109.782 88.928 110.055 88.9609 110.329 88.9581C112.194 89.0498 113.38 89.0498 113.416 88.9336Z" fill="#263238"/>
<path d="M112.492 111.084C118.869 111.065 125.117 109.277 130.538 105.918C130.538 105.918 126.002 115.388 112.412 114.361L112.492 111.084Z" fill="#EB996E"/>
<path d="M114.264 93.4207C114.61 92.9654 115.067 92.6062 115.591 92.3772C116.116 92.1482 116.69 92.0571 117.259 92.1124C117.673 92.1415 118.077 92.2546 118.446 92.4448C118.815 92.6351 119.141 92.8985 119.405 93.2189C119.661 93.5258 119.816 93.9038 119.85 94.3017C119.884 94.6997 119.795 95.0985 119.595 95.4442C119.299 95.785 118.908 96.0299 118.473 96.1475C118.037 96.2651 117.576 96.2501 117.149 96.1044C116.249 95.8149 115.417 95.3448 114.704 94.7228C114.492 94.575 114.308 94.3908 114.16 94.1787C114.089 94.0764 114.051 93.9548 114.051 93.8303C114.051 93.7057 114.089 93.5841 114.16 93.4818" fill="#CB8181"/>
<path d="M118.923 90.1294C118.624 90.1294 118.654 92.1468 116.943 93.614C115.231 95.0812 113.067 94.9039 113.055 95.1851C113.055 95.3135 113.544 95.5703 114.455 95.5825C115.647 95.569 116.796 95.1361 117.701 94.3598C118.557 93.6336 119.103 92.6081 119.229 91.4927C119.296 90.6123 119.058 90.1111 118.923 90.1294Z" fill="#CC6262"/>
<path d="M119.328 67.6501C119.523 68.1514 121.382 67.8763 123.607 68.1025C125.832 68.3287 127.593 68.8972 127.886 68.4326C128.015 68.2125 127.697 67.7418 126.969 67.265C126.012 66.6641 124.923 66.3033 123.797 66.2135C122.67 66.0974 121.533 66.2504 120.477 66.6597C119.64 66.9715 119.242 67.375 119.328 67.6501Z" fill="#263238"/>
<path d="M102.134 69.4805C102.47 69.9023 103.747 69.4377 105.3 69.3888C106.853 69.3399 108.161 69.6211 108.461 69.1748C108.589 68.9548 108.375 68.5635 107.794 68.1417C107.019 67.6608 106.113 67.4343 105.202 67.4937C104.293 67.5224 103.416 67.8368 102.696 68.3923C102.152 68.8692 101.981 69.2849 102.134 69.4805Z" fill="#263238"/>
<path d="M135.612 74.0027C131.149 68.5373 118.494 58.7193 112.296 56.0049C111.311 55.5648 110.388 54.6539 109.783 54.6539C108.482 55.3285 107.262 56.1489 106.146 57.0992C102.857 59.9786 100.246 66.7522 98.9809 70.9399C97.1469 65.7313 97.7582 58.2424 101.365 54.0731C104.972 49.9038 108.835 47.599 114.35 47.3484C119.864 47.0977 124.015 48.3143 128.716 51.212C130.55 52.3552 137.274 57.9367 139.176 61.1585L135.612 74.0027Z" fill="#C4A358"/>
<path d="M111.883 47.6224C110.966 47.7202 117.116 42.6767 120.955 41.9858C124.836 41.3111 128.828 42.1467 132.112 44.3212C134.3 45.7884 136.134 47.8363 138.561 48.8695C140.395 49.6581 142.468 49.7865 144.393 50.3612C146.932 51.1696 149.176 52.7084 150.845 54.7852C152.514 56.8619 153.534 59.3845 153.777 62.0377C153.942 64.2874 153.533 66.5372 153.496 68.793C153.459 71.0488 153.875 73.4514 155.403 75.1142C156.724 76.5509 158.668 77.2172 160.294 78.2565C162.259 79.5275 163.817 81.3355 164.785 83.4659C165.753 85.5963 166.089 87.9597 165.753 90.2754C165.35 92.7207 164.182 95.2761 165.038 97.6114C165.594 99.1581 166.939 100.271 167.844 101.646C168.724 103.035 169.166 104.656 169.113 106.299C169.059 107.942 168.513 109.531 167.544 110.859C165.252 111.11 163.442 112.834 161.657 114.301C159.872 115.768 157.592 117.119 155.379 116.465C152.506 115.621 151.136 111.776 148.171 111.354C145.207 110.932 143.146 114.026 140.401 115.065C137.271 116.245 133.616 114.454 131.721 111.703C129.825 108.952 129.373 105.461 129.306 102.111C129.22 97.9049 129.758 93.4666 132.246 90.0798C134.031 87.6344 136.868 85.562 136.911 82.5481C136.947 79.6565 134.313 77.3701 133.854 74.5151C133.469 72.0086 134.814 69.6244 135.853 67.3013C136.892 64.9782 138.818 61.5731 137.357 59.5007C137.375 59.4823 127.386 45.8984 111.883 47.6224Z" fill="#263238"/>
<path d="M110.663 49.8894C110.62 49.8405 110.186 50.1095 109.825 50.8186C109.587 51.2845 109.457 51.7981 109.444 52.3213C109.432 52.8444 109.538 53.3636 109.754 53.8401C109.97 54.3167 110.291 54.7383 110.693 55.0735C111.095 55.4088 111.567 55.6491 112.075 55.7766C112.851 55.9722 113.334 55.8194 113.297 55.7766C113.261 55.7338 112.833 55.6787 112.173 55.4159C111.748 55.2603 111.358 55.0217 111.027 54.714C110.695 54.4062 110.428 54.0355 110.241 53.6235C110.055 53.2114 109.952 52.7663 109.939 52.3141C109.927 51.8619 110.004 51.4117 110.167 50.9898C110.424 50.3051 110.73 49.9261 110.663 49.8894Z" fill="#263238"/>
<path d="M106.868 55.6762C106.911 55.823 107.81 55.6762 108.702 54.9732C109.595 54.2702 109.925 53.4632 109.815 53.3898C109.705 53.3165 109.136 53.9217 108.354 54.5269C107.571 55.1322 106.813 55.5234 106.868 55.6762Z" fill="#263238"/>
<path d="M115.803 52.1183C115.803 51.9593 114.978 51.9838 114.067 51.7331C113.156 51.4825 112.465 51.079 112.361 51.2012C112.257 51.3235 112.862 52.0021 113.92 52.2833C114.978 52.5645 115.864 52.265 115.803 52.1183Z" fill="#263238"/>
<path d="M115.714 49.6489C115.714 49.4899 114.901 49.4838 113.953 49.6489C113.005 49.8139 112.253 50.034 112.278 50.1868C112.302 50.3397 113.091 50.3519 114.039 50.1868C114.986 50.0218 115.738 49.8017 115.714 49.6489Z" fill="#263238"/>
<path d="M106.545 50.474C106.545 50.6268 106.851 50.7796 107.254 50.8102C107.658 50.8408 107.988 50.7368 108 50.5779C108.012 50.419 107.694 50.2722 107.291 50.2417C106.887 50.2111 106.557 50.315 106.545 50.474Z" fill="#263238"/>
<path d="M106.443 52.0332C106.443 52.1921 106.908 52.3205 107.483 52.3205C108.057 52.3205 108.528 52.1921 108.528 52.0332C108.528 51.8742 108.057 51.752 107.483 51.752C106.908 51.752 106.443 51.8803 106.443 52.0332Z" fill="#263238"/>
<path d="M130.317 61.1428C130.201 61.2651 131.619 62.7201 133.05 64.7558C134.48 66.7916 135.391 68.6073 135.544 68.54C135.697 68.4728 134.994 66.5165 133.514 64.4318C132.035 62.3472 130.409 61.0267 130.317 61.1428Z" fill="#263238"/>
<path d="M129.829 57.1169C129.701 57.2269 131.352 59.2688 133.039 62.0076C134.726 64.7464 135.826 67.1428 135.979 67.0817C136.132 67.0206 135.252 64.5019 133.534 61.708C131.816 58.9142 129.939 57.0191 129.829 57.1169Z" fill="#263238"/>
<path d="M166.359 76.4353C166.359 76.4353 166.481 76.3313 166.683 76.0929C166.951 75.7208 167.157 75.3079 167.294 74.8702C167.548 74.0595 167.613 73.2013 167.482 72.3618C167.352 71.5223 167.03 70.724 166.542 70.0285C165.32 68.1944 162.508 67.1246 159.738 67.901C158.32 68.2433 157.134 69.2398 155.924 70.0407C155.334 70.4649 154.674 70.7815 153.974 70.976C153.631 71.054 153.276 71.0572 152.932 70.9854C152.588 70.9137 152.263 70.7687 151.981 70.5603C151.414 70.0887 151.017 69.4446 150.85 68.7263C150.681 68.0176 150.644 67.2842 150.74 66.5622C150.911 65.1194 151.259 63.6705 151.296 62.2828C151.449 59.4951 150.752 56.8908 149.37 55.228C148.327 53.8852 146.817 52.9839 145.14 52.7031C144.69 52.638 144.233 52.638 143.783 52.7031C143.625 52.7201 143.47 52.7613 143.324 52.8254C143.919 52.7993 144.515 52.8321 145.103 52.9232C146.685 53.2746 148.088 54.1812 149.058 55.4786C150.318 57.0803 150.947 59.5624 150.77 62.2584C150.721 63.6216 150.379 64.9971 150.159 66.5377C149.939 68.0783 150.196 69.894 151.602 71.0127C151.946 71.2733 152.344 71.4549 152.766 71.5447C153.189 71.6345 153.626 71.6303 154.047 71.5323C154.816 71.3238 155.541 70.9779 156.187 70.5114C157.452 69.6616 158.54 68.7324 159.855 68.4084C162.416 67.6626 165.051 68.6224 166.194 70.2424C166.664 70.8892 166.984 71.6318 167.133 72.4171C167.282 73.2023 167.256 74.0108 167.056 74.7847C166.891 75.3608 166.657 75.915 166.359 76.4353Z" fill="#263238"/>
<path d="M83.0638 77.4377C83.216 77.4195 83.369 77.4093 83.5223 77.4071C83.7352 77.4249 83.9417 77.4888 84.1275 77.5943C84.3133 77.6999 84.4739 77.8446 84.5982 78.0184C84.8165 78.2741 84.9364 78.5993 84.9364 78.9354C84.9364 79.2716 84.8165 79.5968 84.5982 79.8525C84.3014 80.1742 83.9124 80.3963 83.4845 80.4882C83.0565 80.5801 82.6106 80.5374 82.2079 80.366C81.7297 80.1143 81.3238 79.7446 81.0285 79.2921C80.7332 78.8395 80.5584 78.3191 80.5206 77.78C80.4668 76.4942 80.7051 75.213 81.2175 74.0325C81.7005 72.8098 82.3791 71.416 83.5834 70.664C84.2031 70.301 84.9238 70.1487 85.6374 70.23C86.4083 70.3357 87.169 70.5055 87.9116 70.7374C88.7001 70.9944 89.5286 71.1062 90.3569 71.0675C90.7794 71.0303 91.1901 70.9088 91.5649 70.7104C91.9397 70.512 92.271 70.2405 92.5393 69.9121C92.988 69.2897 93.3092 68.5847 93.4844 67.8377C93.6596 67.0907 93.6854 66.3164 93.5603 65.5594C93.4074 64.1472 93.0834 62.8634 93.059 61.6529C93.0481 60.5286 93.273 59.4144 93.7192 58.3823C94.3656 56.869 95.4249 55.5682 96.7759 54.6287C97.7418 53.9745 98.3714 53.7728 98.3531 53.7178C98.1928 53.7344 98.0361 53.7756 97.8884 53.84C97.4624 54.0045 97.053 54.2092 96.6658 54.4514C95.2164 55.3597 94.0679 56.6763 93.3646 58.2356C92.8667 59.3126 92.608 60.4847 92.6066 61.6713C92.6066 62.949 92.9184 64.2633 93.0529 65.6205C93.2764 67.008 92.9424 68.4276 92.1236 69.5698C91.8982 69.8438 91.6193 70.0692 91.3041 70.2321C90.9888 70.395 90.6436 70.492 90.2896 70.5173C89.5293 70.5463 88.7697 70.4408 88.0461 70.2055C87.2704 69.9607 86.4746 69.7848 85.668 69.6798C84.836 69.5904 83.9975 69.7727 83.2777 70.1994C81.8778 71.0981 81.1992 72.5592 80.7102 73.8675C80.1803 75.1261 79.9501 76.4906 80.0377 77.8534C80.092 78.4664 80.304 79.055 80.6533 79.5617C81.0025 80.0684 81.477 80.4761 82.0306 80.745C82.5097 80.9422 83.039 80.9821 83.5422 80.859C84.0454 80.736 84.4965 80.4563 84.8305 80.0603C84.9677 79.8904 85.0693 79.6945 85.1292 79.4844C85.189 79.2744 85.206 79.0544 85.179 78.8376C85.1307 78.4871 84.9821 78.158 84.751 77.8901C84.6064 77.7026 84.4214 77.5503 84.2097 77.4444C83.998 77.3386 83.765 77.2819 83.5284 77.2787C83.3607 77.2822 83.1984 77.3377 83.0638 77.4377Z" fill="#263238"/>
<path d="M172.11 95.2636C171.97 95.3007 171.827 95.3253 171.682 95.337C171.483 95.3225 171.29 95.2591 171.12 95.1525C170.951 95.0459 170.81 94.8994 170.71 94.7257C170.634 94.6088 170.58 94.4779 170.554 94.3405C170.528 94.203 170.529 94.0618 170.558 93.9248C170.602 93.7633 170.679 93.6127 170.785 93.4823C170.89 93.3519 171.021 93.2445 171.169 93.1668C171.533 92.9639 171.955 92.8887 172.367 92.9529C172.779 93.0171 173.158 93.2172 173.443 93.5213C174.146 94.2982 174.532 95.3103 174.525 96.3579C174.546 96.9257 174.399 97.487 174.103 97.9719C173.779 98.4572 173.287 98.8055 172.722 98.95C172.097 99.1197 171.437 99.1049 170.821 98.9075C170.205 98.71 169.659 98.3384 169.249 97.8374C168.357 96.7052 167.884 95.299 167.911 93.8576C167.947 92.3784 168.086 90.9036 168.326 89.4437C168.55 88.0349 168.515 86.5972 168.222 85.201C167.89 83.935 167.223 82.7819 166.291 81.8631C165.493 81.0735 164.572 80.419 163.564 79.9252C162.112 79.2431 160.58 78.748 159.004 78.4519C158.437 78.3041 157.858 78.2119 157.273 78.1768C157.821 78.3801 158.383 78.5436 158.955 78.6658C160.484 79.0424 161.968 79.5835 163.381 80.2798C164.332 80.7787 165.2 81.4221 165.954 82.1871C166.81 83.0569 167.418 84.1397 167.715 85.3233C167.978 86.6598 167.999 88.0327 167.776 89.3765C167.524 90.8619 167.379 92.3636 167.342 93.8698C167.313 95.4449 167.831 96.9813 168.809 98.2164C169.307 98.7924 169.958 99.2162 170.686 99.4391C171.393 99.6439 172.143 99.6439 172.85 99.4391C173.538 99.2485 174.134 98.8139 174.525 98.2164C174.861 97.6453 175.024 96.9893 174.996 96.3274C174.989 95.1602 174.531 94.0409 173.718 93.2034C173.368 92.8532 172.91 92.6305 172.418 92.5707C171.926 92.5108 171.428 92.6174 171.004 92.8733C170.826 92.9776 170.672 93.118 170.552 93.2854C170.432 93.4528 170.349 93.6436 170.307 93.8453C170.28 94.044 170.296 94.2461 170.353 94.4382C170.41 94.6304 170.508 94.8081 170.639 94.9596C170.77 95.1111 170.932 95.233 171.114 95.317C171.296 95.4011 171.494 95.4454 171.695 95.447C171.851 95.4386 171.999 95.3734 172.11 95.2636Z" fill="#263238"/>
<path d="M134.365 43.5781C134.438 43.4414 134.497 43.2981 134.543 43.1502C134.732 42.7625 135.056 42.4564 135.453 42.2882C136.083 42.0251 136.784 41.9842 137.44 42.172C137.867 42.2672 138.254 42.4892 138.552 42.809C138.85 43.1287 139.044 43.5311 139.109 43.9633C139.464 45.8951 137.22 48.3343 134.561 47.8636C133.18 47.6294 131.893 47.0083 130.85 46.0724C129.71 45.0432 128.685 43.8932 127.794 42.6428C126.883 41.3614 125.831 40.1864 124.657 39.1398C123.526 38.147 122.127 37.5092 120.635 37.3058C119.276 37.1928 117.92 37.5464 116.79 38.3084C115.803 38.9571 114.968 39.8123 114.344 40.8149C113.499 42.2595 112.941 43.8537 112.7 45.5099C112.608 46.0846 112.553 46.537 112.529 46.8427C112.503 47.0006 112.503 47.1616 112.529 47.3195C112.691 46.7356 112.824 46.1439 112.926 45.5466C113.241 43.9483 113.837 42.4186 114.687 41.0288C115.293 40.0991 116.089 39.3075 117.022 38.7057C118.077 38.0135 119.336 37.7009 120.592 37.8193C121.976 38.0251 123.268 38.6331 124.309 39.5677C125.451 40.5899 126.477 41.7361 127.366 42.9851C128.272 44.2685 129.317 45.4474 130.483 46.5003C131.612 47.4963 133.001 48.1496 134.488 48.3832C135.172 48.4854 135.87 48.4283 136.529 48.2162C137.187 48.0041 137.788 47.6428 138.284 47.1605C138.738 46.7584 139.087 46.2513 139.3 45.6833C139.513 45.1153 139.584 44.5038 139.507 43.9021C139.419 43.3677 139.157 42.8775 138.761 42.5083C138.411 42.2057 137.99 41.9956 137.538 41.8969C136.813 41.7114 136.046 41.7894 135.374 42.117C134.948 42.3281 134.618 42.693 134.451 43.1379C134.392 43.277 134.362 43.427 134.365 43.5781Z" fill="#263238"/>
<path d="M117.661 47.3062C117.661 47.3062 117.704 47.2389 117.753 47.0922C117.815 46.8743 117.912 46.6678 118.04 46.4809C118.543 45.7869 119.254 45.2709 120.069 45.0075C121.357 44.5676 122.715 44.3747 124.074 44.439C124.918 44.4548 125.757 44.5823 126.568 44.818C127.459 45.1423 128.287 45.6202 129.013 46.2302C130.709 47.603 132.157 49.2574 133.292 51.1209C133.598 51.6286 133.861 52.1602 134.081 52.7104C134.294 53.3315 134.633 53.9018 135.078 54.3854C136.022 55.3584 137.204 56.0685 138.507 56.4457C139.167 56.6301 139.839 56.767 140.518 56.8553C141.176 56.9927 141.815 57.2103 142.42 57.5033C143.679 58.0899 144.762 58.9962 145.562 60.132C146.363 61.3256 146.763 62.7429 146.705 64.1791C146.646 65.6868 146.466 67.1873 146.167 68.6663C145.85 70.1919 145.78 71.7585 145.959 73.3063C146.199 74.8473 146.971 76.2555 148.142 77.2861C150.385 79.3158 153.197 80.135 155.166 81.8712C156.16 82.6522 156.921 83.6902 157.367 84.8728C157.723 86.0041 157.617 87.2303 157.073 88.2841C156.596 89.3417 155.93 90.2893 155.465 91.3408C154.965 92.3336 154.802 93.4625 155.001 94.5564C155.302 95.5275 155.936 96.361 156.792 96.9101C157.502 97.3804 158.182 97.8949 158.828 98.4506C159.3 98.9265 159.657 99.5052 159.869 100.141C160.081 100.778 160.143 101.454 160.05 102.119C159.964 102.978 159.799 103.827 159.555 104.656C159.46 104.944 159.384 105.238 159.329 105.536C159.371 105.47 159.404 105.398 159.427 105.322C159.488 105.181 159.567 104.967 159.665 104.711C159.958 103.885 160.163 103.03 160.277 102.161C160.349 101.522 160.314 100.876 160.173 100.248C159.994 99.4788 159.6 98.7767 159.036 98.2244C158.391 97.6485 157.711 97.1136 157 96.6227C156.222 96.1202 155.648 95.3575 155.38 94.4708C155.215 93.4622 155.385 92.4274 155.863 91.5242C156.309 90.546 156.988 89.6046 157.501 88.4675C158.101 87.3069 158.224 85.9577 157.843 84.7078C157.374 83.4337 156.567 82.3115 155.508 81.4616C153.43 79.6276 150.618 78.79 148.515 76.8643C147.438 75.9143 146.731 74.6158 146.516 73.1963C146.347 71.7089 146.42 70.2041 146.729 68.7397C147.034 67.2286 147.214 65.6951 147.267 64.1546C147.326 62.6071 146.886 61.0815 146.014 59.8019C145.164 58.5829 144.003 57.6139 142.652 56.9959C142.007 56.6898 141.328 56.462 140.628 56.3173C139.964 56.2311 139.307 56.1004 138.66 55.926C137.441 55.5852 136.333 54.9319 135.444 54.0309C135.036 53.5964 134.725 53.0794 134.534 52.5148C134.3 51.9406 134.02 51.3865 133.696 50.858C132.511 48.9596 131.003 47.2836 129.239 45.9062C128.477 45.2764 127.607 44.7897 126.672 44.4696C125.829 44.2375 124.96 44.1183 124.086 44.115C122.69 44.0741 121.299 44.3045 119.99 44.7936C119.145 45.0887 118.424 45.6593 117.942 46.4136C117.82 46.6097 117.737 46.8277 117.698 47.0555C117.661 47.2328 117.649 47.3062 117.661 47.3062Z" fill="#455A64"/>
</svg>
