<svg width="230" height="230" viewBox="0 0 230 230" fill="none" xmlns="http://www.w3.org/2000/svg">
<g clip-path="url(#clip0_13176_7754)">
<path d="M0 115C0 51.4873 51.4873 0 115 0C178.513 0 230 51.4873 230 115C230 178.513 178.513 230 115 230C51.4873 230 0 178.513 0 115Z" fill="#F8F6EE"/>
<path d="M160.957 69.832L156.783 85.9125L164.252 86.8019L166.041 72.1264L160.957 69.832Z" fill="#FFBE9D"/>
<path d="M164.446 73.6423L175.351 71.0953L169.934 63.7676C169.934 63.7676 159.928 65.88 160.959 69.8319L164.446 73.6423Z" fill="#FFBE9D"/>
<path d="M166.586 74.2863C166.586 74.2863 166.172 111.137 157.985 111.137C153.447 111.137 148.303 108.186 143.927 104.84C140.254 101.984 136.845 98.8041 133.74 95.3395V95.2182L130.92 78.1068C139.005 77.9046 153.033 96.3603 153.033 96.3603L159.764 72.9824L166.586 74.2863Z" fill="#C4A358"/>
<path opacity="0.2" d="M143.922 104.829C140.249 101.973 136.84 98.7932 133.734 95.3285V95.2072L136.362 89.335C140.754 93.3554 143.456 98.8932 143.922 104.829Z" fill="black"/>
<path d="M97.8371 37.2638C97.8371 37.2638 100.394 32.8368 107.721 32.0889C115.049 31.341 124.761 35.2423 126.247 46.431C127.732 57.6196 130.906 63.7547 130.906 63.7547C130.906 63.7547 107.307 69.92 100.677 67.6964C94.0471 65.4729 83.7889 40.4475 97.8371 37.2638Z" fill="#263238"/>
<path d="M146.762 233.228C143.457 239.818 140.132 246.914 136.939 253.999C132.744 263.358 128.803 272.727 125.447 281.116C123.052 287.1 119.929 294.65 118.292 299.218C114.746 298.937 111.386 297.52 108.711 295.175C109.944 286.958 113.229 265.612 119.434 246.833C122.688 236.948 126.761 227.194 131.774 219.26C108.337 158.83 112.875 135.755 112.875 135.755L137.737 133.845C137.737 133.845 142.214 156.525 145.974 179.772C147.935 191.961 149.693 204.312 150.502 213.661V213.752C151.076 220.465 149.782 227.206 146.762 233.228Z" fill="#263238"/>
<path opacity="0.2" d="M125.203 201.252C121.727 190.963 119.139 182.049 117.32 174.377C118.715 168.313 120.817 163.057 123.789 159.854C123.789 159.854 128.741 176.52 125.203 201.252Z" fill="black"/>
<path d="M127.7 131.406C127.7 131.406 120.453 187.511 116.3 214.507C111.933 242.858 111.378 288.36 112.469 306.897C110.882 307.817 105.091 308.918 101.968 307.958C101.968 307.958 87.1825 250.61 96.996 217.307C88.0617 151.701 101.039 135.631 101.039 135.631L127.7 131.406Z" fill="#263238"/>
<path opacity="0.7" d="M125.292 96.0774C118.004 89.5072 109.924 83.8742 101.238 79.3096C102.027 79.2187 102.845 79.1378 103.654 79.0671C109.168 78.4839 114.718 78.2981 120.259 78.5112C121.633 78.592 123.048 78.7032 124.433 78.8144C127.869 86.698 125.292 96.0774 125.292 96.0774Z" fill="white"/>
<path d="M101.231 131.406L137.513 128.96C137.513 128.96 138.595 139.845 138.342 139.694C138.089 139.542 99.543 141.048 99.543 141.048L101.231 131.406Z" fill="#263238"/>
<path d="M101.572 131.993L137.44 130.012V133.418L101.238 135.338L101.572 131.993Z" fill="black"/>
<path d="M121.774 134.851C121.516 134.851 121.268 134.753 121.08 134.577C120.892 134.4 120.779 134.158 120.764 133.901L120.602 131.879C120.589 131.744 120.604 131.608 120.646 131.479C120.687 131.349 120.754 131.23 120.843 131.127C120.932 131.024 121.04 130.94 121.162 130.88C121.284 130.82 121.416 130.785 121.552 130.778L125.483 130.464C125.625 130.453 125.767 130.471 125.902 130.518C126.036 130.565 126.158 130.64 126.262 130.737C126.368 130.833 126.452 130.95 126.51 131.081C126.567 131.211 126.596 131.353 126.595 131.495V133.598C126.595 133.866 126.489 134.123 126.299 134.312C126.11 134.502 125.852 134.608 125.584 134.608L121.815 134.811L121.774 134.851ZM125.554 131.182L121.623 131.485C121.577 131.489 121.533 131.502 121.493 131.523C121.453 131.544 121.417 131.572 121.388 131.607C121.359 131.642 121.337 131.682 121.324 131.725C121.31 131.768 121.305 131.814 121.309 131.859L121.461 133.881C121.471 133.97 121.514 134.052 121.581 134.112C121.648 134.172 121.735 134.205 121.825 134.204L125.595 134.002C125.684 133.999 125.769 133.962 125.831 133.898C125.893 133.834 125.928 133.748 125.928 133.658V131.556C125.929 131.508 125.919 131.461 125.9 131.418C125.881 131.374 125.852 131.335 125.817 131.303C125.785 131.265 125.745 131.234 125.699 131.213C125.654 131.192 125.604 131.181 125.554 131.182Z" fill="white"/>
<path d="M101.226 131.406C100.468 122.896 97.4258 107.3 92.1805 90.9166C90.4725 85.5901 93.363 79.5763 93.363 79.5763C93.363 79.5763 100.508 79.3944 101.226 79.3136C101.943 79.2327 102.833 79.1417 103.641 79.071C109.156 78.4878 114.705 78.302 120.246 78.5151C121.621 78.5959 123.036 78.7071 124.421 78.8183C124.865 78.8183 129.888 78.9093 130.323 78.9598C130.323 78.9598 137.276 86.904 137.701 93.3423C138.211 98.2976 138.4 103.281 138.267 108.26C138.267 114.102 137.418 130.021 137.418 130.021C136.306 136.176 123.764 130.547 123.764 130.547C105.663 139.512 101.226 131.406 101.226 131.406Z" fill="#C4A358"/>
<path opacity="0.8" d="M101.226 131.406C100.468 122.896 97.4258 107.3 92.1805 90.9166C90.4725 85.5901 93.363 79.5763 93.363 79.5763C93.363 79.5763 100.508 79.3944 101.226 79.3136C101.943 79.2327 102.833 79.1417 103.641 79.071C109.156 78.4878 114.705 78.302 120.246 78.5151C121.621 78.5959 123.036 78.7071 124.421 78.8183C124.865 78.8183 129.888 78.9093 130.323 78.9598C130.323 78.9598 137.276 86.904 137.701 93.3423C138.211 98.2976 138.4 103.281 138.267 108.26C138.267 114.102 137.418 130.021 137.418 130.021C136.306 136.176 123.764 130.547 123.764 130.547C105.663 139.512 101.226 131.406 101.226 131.406Z" fill="white"/>
<path opacity="0.2" d="M121.528 94.6285C121.528 94.7404 121.495 94.8499 121.433 94.943C121.371 95.036 121.282 95.1086 121.179 95.1514C121.076 95.1943 120.962 95.2055 120.852 95.1836C120.742 95.1618 120.641 95.1079 120.562 95.0287C120.483 94.9496 120.429 94.8487 120.407 94.7389C120.386 94.6291 120.397 94.5153 120.44 94.4119C120.482 94.3085 120.555 94.2201 120.648 94.1579C120.741 94.0957 120.851 94.0625 120.962 94.0625C121.113 94.0625 121.257 94.1221 121.363 94.2283C121.469 94.3344 121.528 94.4784 121.528 94.6285Z" fill="black"/>
<path opacity="0.2" d="M123.587 106.576C123.587 106.688 123.554 106.797 123.492 106.89C123.429 106.983 123.341 107.056 123.238 107.099C123.134 107.142 123.02 107.153 122.911 107.131C122.801 107.109 122.7 107.055 122.621 106.976C122.542 106.897 122.488 106.796 122.466 106.686C122.444 106.576 122.455 106.463 122.498 106.359C122.541 106.256 122.614 106.167 122.707 106.105C122.8 106.043 122.909 106.01 123.021 106.01C123.171 106.01 123.315 106.069 123.421 106.176C123.527 106.282 123.587 106.426 123.587 106.576Z" fill="black"/>
<path opacity="0.2" d="M123.611 118.538C123.923 118.538 124.177 118.285 124.177 117.972C124.177 117.66 123.923 117.406 123.611 117.406C123.298 117.406 123.045 117.66 123.045 117.972C123.045 118.285 123.298 118.538 123.611 118.538Z" fill="black"/>
<path opacity="0.2" d="M124.168 129.517C124.48 129.517 124.733 129.263 124.733 128.951C124.733 128.638 124.48 128.385 124.168 128.385C123.855 128.385 123.602 128.638 123.602 128.951C123.602 129.263 123.855 129.517 124.168 129.517Z" fill="black"/>
<path d="M104.179 156.306L91.6468 154.042L98.9437 127.086C98.9437 127.086 97.1043 120.395 95.083 112.724C94.0724 108.984 93.0617 105.022 92.1622 101.495C91.1648 97.9901 90.3751 94.4296 89.7973 90.8318C89.5648 86.5362 93.3952 79.5825 93.3952 79.5825L98.9639 78.6729C98.9639 78.6729 110.688 87.2235 111.223 104.668C111.759 122.113 104.179 156.306 104.179 156.306Z" fill="#C4A358"/>
<path d="M127.266 78.1143C127.266 78.1143 130.955 91.8499 132.764 101.957C134.573 112.064 139.555 155.1 139.555 155.1L142.274 153.746L138.545 128.064C138.545 128.064 139.909 98.2983 138.848 92.1834C137.787 86.0686 130.944 78.1143 130.944 78.1143H127.266Z" fill="#C4A358"/>
<path d="M122.404 80.8558C124.153 87.2334 120.383 92.8833 120.383 92.8833C109.195 89.3458 104.566 79.0365 104.566 79.0365C107.911 75.3575 105.799 65.6243 104.172 60.3281L108.649 63.6837L115.319 68.6665C115.194 70.0395 115.303 71.4238 115.643 72.7599C116.148 74.8824 117.048 76.8735 118.048 77.298L122.404 80.8558Z" fill="#FFBE9D"/>
<path opacity="0.2" d="M115.653 72.7556C112.995 72.1593 109.508 69.4102 108.952 66.6913C108.737 65.6954 108.639 64.6778 108.659 63.6592L115.329 68.642C115.201 70.0216 115.311 71.413 115.653 72.7556Z" fill="black"/>
<path d="M99.2491 49.7459C101.159 58.3168 101.786 61.9857 106.859 65.9174C114.48 71.8907 124.536 68.2521 125.213 59.4185C125.819 51.4743 122.585 38.7898 113.59 36.2428C111.676 35.6267 109.631 35.5353 107.668 35.9782C105.706 36.4211 103.899 37.3821 102.434 38.7611C100.97 40.14 99.9017 41.8864 99.3415 43.8185C98.7813 45.7505 98.7494 47.7974 99.2491 49.7459Z" fill="#FFBE9D"/>
<path d="M110.33 50.8134C110.461 51.5411 110.947 52.0869 111.411 52.0364C111.876 51.9858 112.149 51.3592 112.018 50.6315C111.886 49.9038 111.401 49.358 110.936 49.4085C110.471 49.4591 110.239 50.0857 110.33 50.8134Z" fill="#263238"/>
<path d="M119.338 49.5497C119.469 50.2775 119.955 50.8232 120.42 50.7828C120.884 50.7424 121.157 50.0955 121.036 49.3678C120.915 48.6401 120.419 48.0943 119.955 48.1448C119.49 48.1954 119.257 48.822 119.338 49.5497Z" fill="#263238"/>
<path d="M119.781 48.1971L121.408 47.5098C121.408 47.5098 120.772 48.9753 119.781 48.1971Z" fill="#263238"/>
<path d="M116.895 51.418C117.828 53.0123 118.962 54.4798 120.27 55.7843C119.944 56.0877 119.554 56.3134 119.129 56.4447C118.704 56.576 118.254 56.6093 117.814 56.5423L116.895 51.418Z" fill="#E59A74"/>
<path d="M108.23 46.4069C108.286 46.4069 108.342 46.3942 108.392 46.3697C108.443 46.3452 108.488 46.3095 108.523 46.2654C108.85 45.8574 109.273 45.5375 109.755 45.3346C110.237 45.1316 110.762 45.052 111.282 45.103C111.336 45.1116 111.391 45.1091 111.444 45.0958C111.497 45.0824 111.546 45.0585 111.59 45.0255C111.633 44.9924 111.67 44.9509 111.697 44.9034C111.724 44.856 111.741 44.8035 111.747 44.7493C111.753 44.6327 111.717 44.5178 111.644 44.4264C111.571 44.3351 111.468 44.2737 111.353 44.254C110.696 44.182 110.032 44.2757 109.421 44.5264C108.811 44.7771 108.272 45.1769 107.856 45.6892C107.788 45.7803 107.757 45.8938 107.771 46.0065C107.784 46.1193 107.839 46.2227 107.926 46.2957C108.013 46.3649 108.119 46.404 108.23 46.4069Z" fill="#263238"/>
<path d="M122.255 44.3393C122.363 44.3531 122.471 44.3241 122.558 44.2584C122.598 44.2189 122.63 44.1717 122.652 44.1196C122.674 44.0676 122.685 44.0117 122.685 43.9552C122.685 43.8987 122.674 43.8428 122.652 43.7907C122.63 43.7387 122.598 43.6915 122.558 43.652C122.135 43.1035 121.592 42.6602 120.969 42.3568C120.347 42.0535 119.663 41.8983 118.97 41.9034C118.916 41.907 118.862 41.9219 118.814 41.9472C118.765 41.9726 118.722 42.0078 118.688 42.0506C118.654 42.0934 118.629 42.1428 118.615 42.1958C118.601 42.2488 118.598 42.3041 118.606 42.3583C118.624 42.4725 118.683 42.5762 118.773 42.6491C118.863 42.7219 118.976 42.7588 119.091 42.7524C119.64 42.762 120.179 42.895 120.669 43.1418C121.159 43.3885 121.587 43.7425 121.921 44.1776C121.962 44.2274 122.012 44.2678 122.07 44.2958C122.128 44.3237 122.191 44.3386 122.255 44.3393Z" fill="#263238"/>
<path d="M110.736 49.4754L112.353 48.7881C112.353 48.7881 111.717 50.2435 110.736 49.4754Z" fill="#263238"/>
<path d="M103.673 54.7227C103.673 54.7227 107.887 48.5876 104.684 39.5013C104.684 39.5013 114.214 34.8722 121.44 41.927C121.44 41.927 114.72 30.1522 100.692 35.7919C86.6636 41.4317 97.2453 54.9046 98.9836 56.0063C100.722 57.1079 103.673 54.7227 103.673 54.7227Z" fill="#263238"/>
<path d="M97.5586 57.1572C98.6856 58.6486 100.357 59.6333 102.208 59.8962C104.573 60.1792 105.24 57.7839 104.229 55.5805C103.218 53.5591 100.843 51.0727 98.6703 51.8105C96.4974 52.5483 96.1032 55.2773 97.5586 57.1572Z" fill="#FFBE9D"/>
<path d="M118.323 58.5648C117.861 59.6679 117.479 60.8028 117.18 61.9608C116.968 61.9608 116.756 61.9608 116.554 61.9002C113.704 61.6172 112.511 60.5357 111.986 59.434C111.758 58.8913 111.661 58.3028 111.703 57.7158C111.715 57.372 111.776 57.0317 111.885 56.7051C113.31 57.7663 115.927 58.2414 117.352 58.4334C117.928 58.5446 118.323 58.5648 118.323 58.5648Z" fill="#263238"/>
<path d="M117.318 58.494L116.954 59.5047C114.275 59.2217 112.426 58.6658 111.668 57.7763C111.68 57.4325 111.742 57.0922 111.85 56.7656C113.275 57.7966 115.923 58.2716 117.318 58.494Z" fill="white"/>
<path d="M116.549 61.9017C113.699 61.6187 112.506 60.5372 111.98 59.4355C113.06 59.5664 114.107 59.8881 115.073 60.3856C115.711 60.7243 116.227 61.2545 116.549 61.9017Z" fill="#DE5753"/>
<path opacity="0.2" d="M96.7033 110.649C96.3908 111.504 95.8091 112.234 95.0458 112.731C94.0351 108.991 93.0245 105.029 92.125 101.502C94.4394 98.7019 96.39 96.3672 96.39 96.3672C96.39 96.3672 99.0581 104.655 96.7033 110.649Z" fill="black"/>
<path d="M93.3899 79.5771C88.4377 80.1735 73.2576 117.883 74.1874 123.836C75.1172 129.79 107.751 127.091 107.751 127.091V117.994L88.6903 114.154L95.2899 101.217C96.4579 97.4588 96.9439 93.5224 96.725 89.5934C96.3048 86.0628 95.17 82.6548 93.3899 79.5771Z" fill="#C4A358"/>
<path d="M88.5296 141.034C88.4766 141.048 88.421 141.048 88.3679 141.034C88.2868 140.989 88.2265 140.914 88.2001 140.826C88.1736 140.737 88.1831 140.641 88.2264 140.559C88.3174 140.377 97.7569 122.265 94.1792 116.565C93.7676 115.965 93.1962 115.493 92.5299 115.202C91.8636 114.911 91.129 114.812 90.4095 114.917C77.3821 115.372 71.207 134.262 71.1463 134.454C71.1091 134.531 71.0457 134.591 70.9676 134.625C70.8895 134.658 70.802 134.662 70.7211 134.637C70.6402 134.611 70.5712 134.557 70.5268 134.484C70.4824 134.412 70.4655 134.326 70.4793 134.242C70.5399 134.04 76.8565 114.685 90.3791 114.21C91.226 114.104 92.0854 114.238 92.8605 114.595C93.6355 114.952 94.2953 115.519 94.7654 116.231C98.5655 122.296 89.2472 140.165 88.8429 140.923C88.8044 140.967 88.7554 141 88.7006 141.019C88.6458 141.038 88.587 141.044 88.5296 141.034Z" fill="#C4A358"/>
<g opacity="0.6">
<path d="M88.5531 141.027C88.5 141.041 88.4444 141.041 88.3914 141.027C88.3103 140.983 88.25 140.908 88.2235 140.819C88.1971 140.73 88.2065 140.634 88.2499 140.552C88.3408 140.37 97.7804 122.258 94.2027 116.558C93.791 115.959 93.2196 115.486 92.5533 115.195C91.887 114.904 91.1524 114.805 90.4329 114.91C77.4055 115.365 71.2304 134.256 71.1697 134.448C71.1325 134.524 71.0691 134.584 70.991 134.618C70.913 134.651 70.8255 134.655 70.7445 134.63C70.6636 134.604 70.5946 134.55 70.5502 134.478C70.5058 134.405 70.489 134.319 70.5027 134.235C70.5633 134.033 76.88 114.678 90.4026 114.203C91.2494 114.098 92.1089 114.231 92.8839 114.588C93.659 114.945 94.3188 115.512 94.7888 116.224C98.5889 122.289 89.2706 140.158 88.8664 140.916C88.8278 140.96 88.7789 140.993 88.7241 141.012C88.6693 141.032 88.6104 141.037 88.5531 141.027Z" fill="white"/>
</g>
<path d="M65.4557 130.198L45 172.952L48.1533 185.808L84.0316 198.068L101.041 146.693L96.3414 141.912L95.8967 139.113L65.4557 130.198Z" fill="#263238"/>
<path opacity="0.2" d="M65.4557 130.198L45 172.952L48.1533 185.808L84.0316 198.068L101.041 146.693L70.4989 139.396L70.792 135.717L65.4557 130.198Z" fill="white"/>
<path opacity="0.1" d="M70.5096 139.392L70.8027 135.723L65.4766 130.204L95.8974 139.119L96.3522 141.918L101.052 146.699L70.5096 139.392Z" fill="white"/>
<path opacity="0.2" d="M70.4804 139.4L48.1348 185.812L84.0131 198.072L101.023 146.698L70.4804 139.4Z" fill="white"/>
<path opacity="0.1" d="M70.792 135.723L50.2655 173.715L45 172.957L48.1533 185.814L50.8416 174.453L70.792 135.723Z" fill="white"/>
<path d="M91.0316 114.021C90.1701 113.571 89.2094 113.346 88.238 113.365C87.2666 113.385 86.3158 113.648 85.4729 114.132C77.893 118.437 75.3057 139.541 75.0025 142.25C74.8457 142.312 74.7157 142.427 74.6354 142.575C74.5551 142.724 74.5296 142.896 74.5634 143.061C74.5971 143.226 74.688 143.374 74.8201 143.479C74.9521 143.584 75.1169 143.639 75.2855 143.635C75.4758 143.635 75.6583 143.559 75.7929 143.424C75.9275 143.29 76.0031 143.107 76.0031 142.917C76.0007 142.804 75.9721 142.693 75.9195 142.593C75.8669 142.493 75.7917 142.407 75.6999 142.341C75.9829 139.854 78.6207 118.832 85.8065 114.748C86.5511 114.315 87.3941 114.079 88.2556 114.063C89.117 114.047 89.9683 114.252 90.7284 114.657C101.401 119.61 93.8715 143.038 92.5071 147C92.3674 147.01 92.2335 147.061 92.1222 147.146C92.0108 147.231 91.9268 147.347 91.8805 147.479C91.8342 147.611 91.8276 147.754 91.8615 147.89C91.8955 148.026 91.9685 148.149 92.0716 148.244C92.1746 148.339 92.3032 148.401 92.4415 148.424C92.5798 148.447 92.7217 148.429 92.8497 148.372C92.9777 148.315 93.0862 148.221 93.1618 148.103C93.2374 147.985 93.2768 147.848 93.2752 147.708C93.2731 147.569 93.2271 147.435 93.1438 147.324C94.5689 143.392 102.482 119.327 91.0316 114.021Z" fill="#C4A358"/>
<path opacity="0.7" d="M91.0316 114.021C90.1701 113.571 89.2094 113.346 88.238 113.365C87.2666 113.385 86.3158 113.648 85.4729 114.132C77.893 118.437 75.3057 139.541 75.0025 142.25C74.8457 142.312 74.7157 142.427 74.6354 142.575C74.5551 142.724 74.5296 142.896 74.5634 143.061C74.5971 143.226 74.688 143.374 74.8201 143.479C74.9521 143.584 75.1169 143.639 75.2855 143.635C75.4758 143.635 75.6583 143.559 75.7929 143.424C75.9275 143.29 76.0031 143.107 76.0031 142.917C76.0007 142.804 75.9721 142.693 75.9195 142.593C75.8669 142.493 75.7917 142.407 75.6999 142.341C75.9829 139.854 78.6207 118.832 85.8065 114.748C86.5511 114.315 87.3941 114.079 88.2556 114.063C89.117 114.047 89.9683 114.252 90.7284 114.657C101.401 119.61 93.8715 143.038 92.5071 147C92.3674 147.01 92.2335 147.061 92.1222 147.146C92.0108 147.231 91.9268 147.347 91.8805 147.479C91.8342 147.611 91.8276 147.754 91.8615 147.89C91.8955 148.026 91.9685 148.149 92.0716 148.244C92.1746 148.339 92.3032 148.401 92.4415 148.424C92.5798 148.447 92.7217 148.429 92.8497 148.372C92.9777 148.315 93.0862 148.221 93.1618 148.103C93.2374 147.985 93.2768 147.848 93.2752 147.708C93.2731 147.569 93.2271 147.435 93.1438 147.324C94.5689 143.392 102.482 119.327 91.0316 114.021Z" fill="white"/>
<path d="M98.514 139.739H98.4635C98.3739 139.726 98.2929 139.679 98.238 139.607C98.1832 139.535 98.1588 139.445 98.1704 139.355C98.1704 139.163 100.727 119.616 95.3405 115.179C94.7349 114.711 94.0138 114.416 93.2539 114.325C92.4941 114.234 91.7238 114.351 91.025 114.663C78.7051 118.858 80.0291 138.203 80.0392 138.395C80.0448 138.44 80.041 138.485 80.028 138.529C80.0149 138.572 79.9929 138.612 79.9634 138.646C79.9338 138.681 79.8975 138.708 79.8565 138.728C79.8156 138.747 79.7711 138.758 79.7259 138.759C79.6363 138.764 79.5481 138.735 79.4801 138.676C79.4122 138.617 79.3698 138.535 79.362 138.445C79.362 138.243 77.9774 118.383 90.8027 114.016C91.6125 113.667 92.5013 113.542 93.376 113.654C94.2508 113.766 95.0793 114.111 95.7751 114.653C101.455 119.323 98.9587 138.627 98.8071 139.446C98.7985 139.521 98.7648 139.59 98.7116 139.644C98.6584 139.697 98.5887 139.73 98.514 139.739Z" fill="#263238"/>
<path d="M73.3701 136.043L59.9688 189.166L66.7098 200.557L104.599 201.911L112.2 141.551L106.318 138.327L105.085 135.78L73.3701 136.043Z" fill="#C4A358"/>
<path opacity="0.5" d="M73.3701 136.042L59.9688 189.165L66.7098 200.556L104.599 201.91L112.2 141.55L80.8591 143.39L80.0707 139.782L73.3701 136.042Z" fill="white"/>
<path opacity="0.3" d="M80.8714 143.389L80.0932 139.781L73.3926 136.041L105.097 135.769L106.34 138.326L112.222 141.55L80.8714 143.389Z" fill="white"/>
<path opacity="0.2" d="M80.8758 143.388L66.7266 200.554L104.616 201.909L112.216 141.549L80.8758 143.388Z" fill="white"/>
<path d="M86.4138 145.351C86.3349 145.352 86.2582 145.326 86.1971 145.276C86.136 145.226 86.0947 145.156 86.0803 145.078C85.8984 144.148 81.785 122.317 87.9703 115.818C88.6506 115.1 89.5004 114.565 90.4417 114.261C91.3829 113.957 92.3854 113.895 93.3571 114.08C106.657 115.97 104.909 143.784 104.828 144.967C104.825 145.012 104.814 145.056 104.794 145.096C104.774 145.136 104.747 145.172 104.713 145.201C104.679 145.23 104.639 145.252 104.597 145.266C104.554 145.28 104.509 145.284 104.464 145.28C104.419 145.279 104.374 145.269 104.334 145.249C104.293 145.23 104.256 145.202 104.227 145.168C104.197 145.134 104.175 145.094 104.162 145.05C104.149 145.007 104.145 144.961 104.151 144.916C104.151 144.633 105.94 116.556 93.256 114.757C92.3936 114.585 91.5017 114.635 90.6638 114.902C89.8259 115.169 89.0695 115.644 88.4655 116.283C82.5127 122.539 86.7069 144.724 86.7473 144.947C86.7624 145.036 86.7425 145.128 86.6917 145.203C86.6409 145.279 86.5632 145.332 86.4745 145.351H86.4138Z" fill="#263238"/>
<path opacity="0.1" d="M80.0707 139.779L65.2343 188.354L59.9688 189.163L66.7098 200.554L66.0024 188.9L80.0707 139.779Z" fill="white"/>
<path d="M87.1633 145.159C87.1913 145.249 87.2011 145.343 87.1923 145.436C87.1835 145.53 87.1562 145.62 87.112 145.703C87.0678 145.786 87.0076 145.859 86.9349 145.918C86.8621 145.978 86.7783 146.022 86.6883 146.048C86.5524 146.091 86.407 146.092 86.2706 146.051C86.1342 146.01 86.013 145.93 85.9223 145.82C85.8316 145.711 85.7756 145.576 85.7614 145.435C85.7472 145.293 85.7754 145.151 85.8424 145.025C85.9095 144.9 86.0123 144.797 86.1379 144.73C86.2635 144.663 86.4062 144.635 86.5478 144.649C86.6894 144.664 86.8235 144.72 86.9331 144.81C87.0427 144.901 87.1228 145.023 87.1633 145.159Z" fill="#263238"/>
<path d="M105.106 144.751C105.148 144.887 105.149 145.033 105.108 145.169C105.068 145.305 104.988 145.427 104.878 145.517C104.768 145.608 104.634 145.664 104.492 145.678C104.351 145.692 104.208 145.664 104.083 145.597C103.957 145.53 103.854 145.427 103.787 145.302C103.72 145.176 103.692 145.033 103.707 144.892C103.721 144.75 103.777 144.616 103.868 144.507C103.959 144.397 104.08 144.317 104.217 144.276C104.306 144.248 104.4 144.238 104.494 144.247C104.587 144.256 104.678 144.283 104.761 144.328C104.843 144.372 104.917 144.432 104.976 144.505C105.035 144.578 105.079 144.661 105.106 144.751Z" fill="#263238"/>
<path d="M158.225 91.1429C158.143 91.1435 158.064 91.114 158.003 91.0599C157.941 91.0059 157.902 90.9311 157.892 90.8498C157.892 90.6477 154.951 70.1807 166.917 63.8839C167.627 63.4253 168.45 63.1713 169.295 63.1499C170.14 63.1285 170.975 63.3405 171.707 63.7626C177.771 67.573 177.327 88.0198 177.296 88.8587C177.294 88.9481 177.256 89.0329 177.192 89.0952C177.128 89.1575 177.042 89.1923 176.953 89.1923C176.907 89.1923 176.862 89.1831 176.82 89.1651C176.778 89.1471 176.741 89.1207 176.709 89.0875C176.678 89.0544 176.654 89.0152 176.639 88.9723C176.623 88.9295 176.616 88.884 176.619 88.8385C176.619 88.6364 177.125 67.947 171.344 64.3489C170.714 63.9875 169.997 63.8093 169.272 63.8343C168.547 63.8593 167.843 64.0866 167.24 64.4904C155.699 70.5547 158.539 90.5466 158.569 90.769C158.576 90.8136 158.574 90.8592 158.563 90.903C158.552 90.9468 158.532 90.9879 158.505 91.0238C158.477 91.0597 158.443 91.0897 158.403 91.1119C158.364 91.1341 158.321 91.1481 158.276 91.153L158.225 91.1429Z" fill="#263238"/>
<path d="M151.616 89.4278L146.613 143.986L155.032 154.194L192.679 149.666L190.83 88.8517L184.523 86.5776L182.896 84.2529L151.616 89.4278Z" fill="#263238"/>
<path opacity="0.5" d="M151.616 89.4257L146.613 143.984L155.032 154.192L192.679 149.664L190.83 88.8496L160.146 95.5304L158.812 92.0839L151.616 89.4257Z" fill="white"/>
<path opacity="0.3" d="M160.141 95.5325L158.807 92.086L151.611 89.4278L182.891 84.2529L184.518 86.5776L190.825 88.8517L160.141 95.5325Z" fill="white"/>
<path opacity="0.2" d="M160.143 95.5304L155.029 154.192L192.676 149.664L190.827 88.8496L160.143 95.5304Z" fill="white"/>
<path d="M165.886 96.6087C165.816 96.6105 165.746 96.59 165.688 96.5501C165.63 96.5101 165.586 96.4528 165.563 96.3863C165.259 95.5676 158.326 76.172 163.238 67.591C163.787 66.5907 164.556 65.7286 165.488 65.0701C166.419 64.4116 167.489 63.9741 168.615 63.7907C169.676 63.5834 170.769 63.6127 171.817 63.8765C172.865 64.1403 173.843 64.6321 174.679 65.3169C182.572 71.4721 183.987 92.4849 184.037 93.3744C184.041 93.4633 184.01 93.5502 183.952 93.6176C183.894 93.685 183.813 93.7281 183.724 93.7382C183.679 93.741 183.634 93.7348 183.591 93.72C183.548 93.7052 183.509 93.6821 183.475 93.652C183.441 93.622 183.414 93.5856 183.394 93.5449C183.374 93.5041 183.363 93.4599 183.36 93.4148C183.36 93.2025 181.915 71.8158 174.264 65.8526C173.497 65.2259 172.601 64.7761 171.641 64.535C170.68 64.294 169.678 64.2676 168.706 64.4578C167.679 64.6257 166.704 65.0251 165.855 65.6257C165.006 66.2264 164.304 67.0125 163.804 67.9245C159.044 76.2326 166.098 95.9517 166.169 96.1538C166.185 96.1956 166.193 96.2401 166.191 96.2848C166.189 96.3295 166.179 96.3734 166.16 96.414C166.141 96.4545 166.114 96.4908 166.081 96.5208C166.048 96.5508 166.009 96.5738 165.967 96.5884L165.886 96.6087Z" fill="#263238"/>
<path opacity="0.1" d="M158.812 92.084L151.687 142.377L146.613 143.984L155.032 154.192L152.526 142.792L158.812 92.084Z" fill="white"/>
<path d="M166.64 96.2998C166.7 96.426 166.721 96.5669 166.7 96.705C166.68 96.8431 166.619 96.972 166.526 97.0757C166.433 97.1794 166.311 97.2531 166.175 97.2876C166.04 97.3221 165.898 97.3158 165.766 97.2696C165.634 97.2234 165.519 97.1392 165.435 97.0278C165.351 96.9163 165.302 96.7825 165.294 96.6432C165.286 96.5039 165.319 96.3653 165.39 96.2449C165.46 96.1244 165.565 96.0275 165.69 95.9663C165.774 95.9252 165.866 95.9012 165.959 95.8957C166.053 95.8903 166.146 95.9035 166.235 95.9345C166.323 95.9655 166.404 96.0138 166.474 96.0765C166.544 96.1392 166.6 96.2151 166.64 96.2998Z" fill="#263238"/>
<path d="M184.28 93.1245C184.336 93.2515 184.354 93.3921 184.332 93.5292C184.31 93.6663 184.249 93.794 184.155 93.8969C184.062 93.9998 183.941 94.0734 183.807 94.1088C183.672 94.1442 183.531 94.1399 183.399 94.0963C183.267 94.0528 183.151 93.972 183.064 93.8636C182.977 93.7552 182.923 93.624 182.91 93.4858C182.896 93.3476 182.923 93.2084 182.987 93.085C183.05 92.9617 183.149 92.8595 183.269 92.7909C183.357 92.7414 183.453 92.7107 183.553 92.7008C183.653 92.6909 183.753 92.702 183.849 92.7334C183.944 92.7649 184.031 92.8159 184.106 92.8832C184.18 92.9506 184.239 93.0328 184.28 93.1245Z" fill="#263238"/>
<path d="M124.377 112.06L124.589 110.312L124.74 110.15C125.529 109.139 125.377 107.391 125.165 106.026C124.953 104.662 124.235 102.822 122.941 102.327C123.131 101.959 123.178 101.535 123.073 101.135C122.994 100.869 122.847 100.629 122.648 100.437C123.588 99.4265 123.548 97.5668 123.224 96.2225C122.901 94.8783 122.355 93.1904 121.203 92.5738C121.134 92.5393 121.063 92.5089 120.991 92.4829L120.132 90.9668L119.04 91.1892L118.959 92.4526C117.039 93.0489 115.099 94.5649 115.594 97.0109C115.589 97.0444 115.589 97.0784 115.594 97.112C116.13 99.4871 118.767 100.761 121.173 100.963C121.467 101.029 121.775 101.001 122.052 100.882C122.195 100.999 122.297 101.158 122.345 101.337C122.404 101.619 122.349 101.913 122.194 102.155C121.927 102.197 121.673 102.293 121.446 102.438C119.323 103.55 117.403 105.733 117.807 108.139C117.807 108.139 117.807 108.21 117.807 108.24C118.303 110.686 120.587 111.343 122.669 111.141L123.245 112.293L124.377 112.06ZM121.223 100.255C119.202 100.073 116.746 98.9717 116.291 96.9401C115.837 94.9086 117.565 93.5542 119.323 93.0489C119.567 92.9647 119.826 92.932 120.084 92.9528C120.341 92.9737 120.592 93.0477 120.819 93.1702C121.719 93.6957 122.183 95.1916 122.477 96.3741L122.537 96.6268C122.729 97.6375 122.82 99.2344 122.052 99.9723C121.719 100.296 121.719 100.296 121.193 100.255H121.223ZM122.84 110.413C121.951 110.534 118.97 110.666 118.515 108.007C118.161 105.986 119.96 103.965 121.81 103.035C122.254 102.812 122.254 102.812 122.689 103.035C123.699 103.419 124.225 104.935 124.427 105.935C124.427 106.016 124.427 106.107 124.427 106.178C124.619 107.421 124.771 108.947 124.134 109.786C123.968 109.976 123.765 110.129 123.537 110.237C123.309 110.345 123.062 110.405 122.81 110.413H122.84Z" fill="#263238"/>
<path d="M122.867 110.766C120.846 111.029 118.572 110.432 118.148 108.067C117.723 105.702 119.633 103.772 121.604 102.741C122.18 102.438 122.2 102.417 122.797 102.65C124.009 103.125 124.616 104.954 124.818 106.076C125.131 108.249 125.162 110.473 122.867 110.766Z" fill="#C4A358"/>
<path d="M119.237 92.7098C117.215 93.2657 115.406 94.7312 115.932 97.0154C116.457 99.2996 118.964 100.411 121.167 100.593C121.814 100.654 121.844 100.664 122.299 100.219C123.239 99.3097 123.097 97.3894 122.825 96.2877C122.299 94.145 121.46 92.0831 119.237 92.7098Z" fill="#C4A358"/>
<path d="M123.454 111.214C122.018 105.453 120.23 99.0855 119.734 98.5397C118.912 98.2023 118.059 97.945 117.188 97.7716L117.329 97.1045C118.284 97.2905 119.215 97.5786 120.108 97.9636C120.866 98.3982 122.938 106.353 124.151 111.052L123.454 111.214Z" fill="#263238"/>
<path opacity="0.4" d="M122.867 110.766C120.846 111.029 118.572 110.432 118.148 108.067C117.723 105.702 119.633 103.772 121.604 102.741C122.18 102.438 122.2 102.417 122.797 102.65C124.009 103.125 124.616 104.954 124.818 106.076C125.131 108.249 125.162 110.473 122.867 110.766Z" fill="white"/>
<path opacity="0.4" d="M119.237 92.7098C117.215 93.2657 115.406 94.7312 115.932 97.0154C116.457 99.2996 118.964 100.411 121.167 100.593C121.814 100.654 121.844 100.664 122.299 100.219C123.239 99.3097 123.097 97.3894 122.825 96.2877C122.299 94.145 121.46 92.0831 119.237 92.7098Z" fill="white"/>
<path d="M165.828 92.3673C165.758 92.3663 165.69 92.3447 165.632 92.3051C165.575 92.2656 165.53 92.2098 165.504 92.145C165.11 91.2151 155.954 69.0906 168.374 63.4811C169.106 63.1307 169.91 62.9573 170.721 62.9748C171.532 62.9924 172.328 63.2004 173.044 63.5821C180.118 67.1601 183.969 85.4945 184.161 86.2727C184.171 86.3172 184.173 86.3633 184.165 86.4084C184.158 86.4534 184.141 86.4965 184.117 86.5351C184.092 86.5737 184.06 86.607 184.023 86.6331C183.985 86.6592 183.943 86.6776 183.898 86.6871C183.807 86.7084 183.711 86.6926 183.632 86.6434C183.552 86.5941 183.495 86.5154 183.474 86.4243C183.474 86.2323 179.492 67.6351 172.751 64.1886C172.131 63.8558 171.442 63.6749 170.739 63.6608C170.036 63.6468 169.34 63.7999 168.708 64.1077C156.914 69.4342 166.111 91.6295 166.202 91.8519C166.221 91.8941 166.233 91.94 166.234 91.9867C166.236 92.0335 166.228 92.08 166.211 92.1235C166.194 92.167 166.168 92.2066 166.135 92.2398C166.102 92.2731 166.063 92.2993 166.02 92.3168C165.962 92.3516 165.895 92.3692 165.828 92.3673Z" fill="#263238"/>
<g opacity="0.7">
<path d="M165.802 92.3664C165.732 92.3654 165.664 92.3437 165.607 92.3041C165.549 92.2646 165.505 92.2089 165.479 92.144C165.085 91.2141 155.928 69.0896 168.349 63.4801C169.081 63.1297 169.885 62.9563 170.696 62.9739C171.507 62.9914 172.302 63.1995 173.018 63.5812C180.093 67.1591 183.944 85.4935 184.136 86.2717C184.146 86.3162 184.147 86.3624 184.14 86.4074C184.132 86.4525 184.116 86.4955 184.091 86.5341C184.067 86.5727 184.035 86.606 183.997 86.6321C183.96 86.6582 183.918 86.6766 183.873 86.6861C183.782 86.7074 183.686 86.6917 183.606 86.6424C183.527 86.5932 183.47 86.5144 183.448 86.4233C183.448 86.2313 179.466 67.6341 172.725 64.1876C172.106 63.8548 171.417 63.6739 170.714 63.6599C170.011 63.6458 169.315 63.799 168.683 64.1067C156.888 69.4332 166.085 91.6285 166.176 91.8509C166.196 91.8932 166.207 91.9391 166.209 91.9858C166.21 92.0325 166.202 92.079 166.185 92.1225C166.168 92.166 166.143 92.2056 166.11 92.2389C166.077 92.2721 166.038 92.2983 165.994 92.3158C165.936 92.3507 165.87 92.3682 165.802 92.3664Z" fill="white"/>
</g>
<path d="M159.1 91.99L168.731 138.412L179.03 146.73L214.999 134.733L197.404 83.5606L190.764 82.6004L188.712 80.6396L159.1 91.99Z" fill="#C4A358"/>
<path opacity="0.2" d="M159.1 91.9977L168.731 138.42L179.03 146.738L214.999 134.741L197.404 83.5684L168.681 96.2629L166.68 93.1601L159.1 91.9977Z" fill="white"/>
<path opacity="0.1" d="M168.671 96.2552L166.68 93.1523L159.1 91.99L188.702 80.6396L190.764 82.6004L197.393 83.5606L168.671 96.2552Z" fill="white"/>
<path opacity="0.2" d="M168.648 96.2629L178.998 146.738L214.967 134.741L197.371 83.5684L168.648 96.2629Z" fill="white"/>
<path opacity="0.1" d="M166.648 93.1455L173.349 135.808L168.7 138.405L178.999 146.724L174.259 136.05L166.648 93.1455Z" fill="white"/>
<path d="M191.861 89.0594C191.771 88.9554 191.656 88.8755 191.527 88.8269C190.213 84.7841 181.683 60.3551 169.374 63.0739C168.424 63.2363 167.531 63.6354 166.777 64.2343C166.023 64.8331 165.431 65.6125 165.058 66.5002C161.602 74.586 172.587 93.4257 174.002 95.811C173.935 95.9343 173.905 96.0743 173.916 96.2141C173.927 96.354 173.978 96.4878 174.063 96.5993C174.12 96.6758 174.191 96.7401 174.273 96.7883C174.355 96.8365 174.446 96.8677 174.54 96.88C174.635 96.8922 174.731 96.8853 174.822 96.8597C174.914 96.8341 174.999 96.7902 175.074 96.7307C175.15 96.674 175.214 96.6027 175.262 96.5211C175.311 96.4394 175.342 96.3489 175.355 96.2549C175.369 96.1609 175.363 96.0652 175.339 95.9734C175.315 95.8816 175.273 95.7955 175.215 95.72C175.147 95.6306 175.058 95.5591 174.956 95.5115C174.853 95.464 174.741 95.4419 174.629 95.4471C173.335 93.264 162.43 74.4647 165.715 66.7731C166.044 65.9864 166.567 65.2958 167.235 64.7656C167.903 64.2354 168.694 63.883 169.535 63.741C181.026 61.2142 189.475 84.8852 190.84 89.0089C190.703 89.125 190.615 89.2887 190.595 89.467C190.574 89.6453 190.622 89.8248 190.729 89.9691C190.846 90.1183 191.017 90.2164 191.206 90.2427C191.394 90.2691 191.585 90.2217 191.739 90.1106C191.819 90.0512 191.885 89.9763 191.934 89.8905C191.984 89.8046 192.015 89.7095 192.027 89.6111C192.038 89.5127 192.029 89.413 192 89.3182C191.972 89.2233 191.924 89.1352 191.861 89.0594Z" fill="#263238"/>
<path opacity="0.8" d="M191.861 89.0594C191.771 88.9554 191.656 88.8755 191.527 88.8269C190.213 84.7841 181.683 60.3551 169.374 63.0739C168.424 63.2363 167.531 63.6354 166.777 64.2343C166.023 64.8331 165.431 65.6125 165.058 66.5002C161.602 74.586 172.587 93.4257 174.002 95.811C173.935 95.9343 173.905 96.0743 173.916 96.2141C173.927 96.354 173.978 96.4878 174.063 96.5993C174.12 96.6758 174.191 96.7401 174.273 96.7883C174.355 96.8365 174.446 96.8677 174.54 96.88C174.635 96.8922 174.731 96.8853 174.822 96.8597C174.914 96.8341 174.999 96.7902 175.074 96.7307C175.15 96.674 175.214 96.6027 175.262 96.5211C175.311 96.4394 175.342 96.3489 175.355 96.2549C175.369 96.1609 175.363 96.0652 175.339 95.9734C175.315 95.8816 175.273 95.7955 175.215 95.72C175.147 95.6306 175.058 95.5591 174.956 95.5115C174.853 95.464 174.741 95.4419 174.629 95.4471C173.335 93.264 162.43 74.4647 165.715 66.7731C166.044 65.9864 166.567 65.2958 167.235 64.7656C167.903 64.2354 168.694 63.883 169.535 63.741C181.026 61.2142 189.475 84.8852 190.84 89.0089C190.703 89.125 190.615 89.2887 190.595 89.467C190.574 89.6453 190.622 89.8248 190.729 89.9691C190.846 90.1183 191.017 90.2164 191.206 90.2427C191.394 90.2691 191.585 90.2217 191.739 90.1106C191.819 90.0512 191.885 89.9763 191.934 89.8905C191.984 89.8046 192.015 89.7095 192.027 89.6111C192.038 89.5127 192.029 89.413 192 89.3182C191.972 89.2233 191.924 89.1352 191.861 89.0594Z" fill="white"/>
<path d="M179.008 62.6945L171.388 60.3193L167.062 67.1215L175.33 71.1037L179.008 62.6945Z" fill="#FFBE9D"/>
<path d="M114.713 116.902L107.224 119.035L105.668 123.977C106.386 128.02 114.097 126.271 114.097 126.271L115.673 127.282C115.97 127.468 116.308 127.578 116.657 127.602C117.006 127.627 117.356 127.566 117.676 127.425C117.996 127.283 118.277 127.065 118.493 126.79C118.71 126.515 118.855 126.191 118.918 125.847L119.736 121.177C119.796 120.8 119.753 120.413 119.612 120.058C119.472 119.702 119.239 119.391 118.938 119.156L116.583 117.316C116.325 117.106 116.022 116.959 115.697 116.887C115.373 116.815 115.036 116.82 114.713 116.902Z" fill="#FFBE9D"/>
<path d="M78.214 108.257C75.5964 115.423 73.8379 121.679 74.1714 123.822C75.081 129.785 107.735 127.076 107.735 127.076V117.98L88.6743 114.139L78.214 108.257Z" fill="#C4A358"/>
<path d="M72.4804 130.544C72.4304 130.554 72.3789 130.554 72.3288 130.544C72.2873 130.525 72.25 130.497 72.2193 130.463C72.1886 130.429 72.165 130.389 72.1499 130.346C72.1349 130.303 72.1286 130.257 72.1316 130.211C72.1345 130.165 72.1466 130.121 72.1671 130.08C74.8353 124.298 80.7678 114.545 90.359 114.201C90.4521 114.201 90.5417 114.237 90.6094 114.301C90.677 114.364 90.7176 114.452 90.7228 114.545C90.7256 114.637 90.6923 114.727 90.63 114.795C90.5677 114.862 90.4813 114.903 90.3893 114.909C81.1418 115.232 75.381 124.733 72.7735 130.373C72.743 130.424 72.7002 130.466 72.649 130.496C72.5977 130.526 72.5398 130.543 72.4804 130.544Z" fill="#C4A358"/>
<g opacity="0.6">
<path d="M72.4687 130.545C72.4186 130.555 72.3672 130.555 72.3171 130.545C72.2756 130.526 72.2383 130.498 72.2076 130.464C72.1769 130.43 72.1533 130.39 72.1382 130.347C72.1231 130.304 72.1169 130.258 72.1199 130.212C72.1228 130.166 72.1349 130.122 72.1554 130.081C74.8236 124.299 80.7561 114.546 90.3473 114.202C90.4403 114.202 90.53 114.238 90.5976 114.301C90.6653 114.365 90.7059 114.453 90.7111 114.546C90.7139 114.638 90.6806 114.728 90.6183 114.796C90.556 114.863 90.4696 114.904 90.3776 114.91C81.1301 115.233 75.3693 124.734 72.7618 130.374C72.7313 130.425 72.6885 130.467 72.6372 130.497C72.586 130.527 72.5281 130.544 72.4687 130.545Z" fill="white"/>
</g>
<path d="M76.6553 134.515H76.5846C76.4933 134.496 76.4129 134.442 76.3603 134.365C76.3076 134.288 76.2866 134.193 76.3016 134.101C77.858 126.318 80.7586 116.515 85.7412 113.988C86.561 113.569 87.4685 113.351 88.3891 113.351C89.3097 113.351 90.2172 113.569 91.037 113.988C91.0853 114.002 91.1299 114.027 91.1678 114.061C91.2057 114.094 91.236 114.135 91.2567 114.181C91.2774 114.227 91.288 114.277 91.2877 114.328C91.2875 114.378 91.2765 114.428 91.2553 114.474C91.2342 114.52 91.2035 114.561 91.1653 114.594C91.1271 114.627 91.0823 114.651 91.0338 114.666C90.9854 114.68 90.9344 114.683 90.8844 114.676C90.8344 114.669 90.7865 114.652 90.7439 114.624C90.0217 114.247 89.219 114.05 88.4042 114.05C87.5895 114.05 86.7868 114.247 86.0646 114.624C81.3347 117.02 78.515 126.622 76.9687 134.242C76.9519 134.315 76.9126 134.381 76.8563 134.43C76.8 134.479 76.7297 134.509 76.6553 134.515Z" fill="#C4A358"/>
<g opacity="0.7">
<path d="M76.6885 134.518H76.6178C76.5265 134.499 76.4461 134.445 76.3935 134.368C76.3408 134.291 76.3198 134.196 76.3348 134.104C77.8912 126.321 80.7918 116.517 85.7744 113.991C86.5942 113.572 87.5017 113.354 88.4223 113.354C89.3429 113.354 90.2504 113.572 91.0702 113.991C91.1185 114.005 91.1631 114.03 91.201 114.064C91.2389 114.097 91.2692 114.138 91.2899 114.184C91.3106 114.23 91.3212 114.28 91.3209 114.331C91.3207 114.381 91.3097 114.431 91.2885 114.477C91.2674 114.523 91.2367 114.564 91.1985 114.597C91.1603 114.63 91.1155 114.654 91.067 114.668C91.0186 114.683 90.9676 114.686 90.9176 114.679C90.8676 114.672 90.8197 114.655 90.7771 114.627C90.0549 114.25 89.2522 114.053 88.4374 114.053C87.6227 114.053 86.82 114.25 86.0978 114.627C81.3679 117.023 78.5482 126.625 77.0019 134.245C76.9851 134.318 76.9458 134.384 76.8895 134.433C76.8332 134.482 76.7629 134.512 76.6885 134.518Z" fill="white"/>
</g>
<path d="M79.8187 132.996C79.7735 132.993 79.7295 132.98 79.6892 132.959C79.649 132.938 79.6133 132.909 79.5841 132.875C79.555 132.84 79.5331 132.8 79.5195 132.756C79.506 132.713 79.5012 132.668 79.5054 132.622C80.0309 126.932 82.1937 116.956 90.8247 114.015C90.8671 113.999 90.9123 113.992 90.9575 113.995C91.0027 113.997 91.0469 114.008 91.0876 114.028C91.1282 114.048 91.1644 114.076 91.1939 114.11C91.2235 114.144 91.2457 114.184 91.2593 114.227C91.2883 114.313 91.2823 114.407 91.2426 114.488C91.2028 114.57 91.1326 114.632 91.0471 114.662C83.1943 117.33 80.8091 125.942 80.1825 132.693C80.1787 132.737 80.1662 132.78 80.1459 132.819C80.1255 132.858 80.0976 132.892 80.0637 132.921C80.0299 132.949 79.9908 132.97 79.9488 132.983C79.9067 132.996 79.8625 133.001 79.8187 132.996Z" fill="#263238"/>
<path d="M86.4138 145.351C86.3349 145.352 86.2582 145.326 86.1971 145.276C86.136 145.226 86.0947 145.156 86.0803 145.078C85.8984 144.148 81.785 122.317 87.9703 115.818C88.6506 115.1 89.5004 114.565 90.4417 114.261C91.3829 113.957 92.3854 113.895 93.3571 114.08C93.4455 114.094 93.525 114.142 93.5794 114.214C93.6338 114.285 93.6591 114.374 93.6501 114.464C93.6352 114.554 93.5857 114.635 93.5122 114.69C93.4387 114.744 93.3469 114.768 93.256 114.757C92.3936 114.585 91.5017 114.635 90.6638 114.902C89.8259 115.169 89.0695 115.644 88.4655 116.283C82.5127 122.539 86.7069 144.724 86.7473 144.947C86.7624 145.036 86.7425 145.128 86.6917 145.203C86.6409 145.279 86.5632 145.332 86.4745 145.351H86.4138Z" fill="#263238"/>
</g>
<defs>
<clipPath id="clip0_13176_7754">
<path d="M0 115C0 51.4873 51.4873 0 115 0C178.513 0 230 51.4873 230 115C230 178.513 178.513 230 115 230C51.4873 230 0 178.513 0 115Z" fill="white"/>
</clipPath>
</defs>
</svg>
